<?xml version="1.0" encoding="utf-8"?>
<!-- Generator: Adobe Illustrator 23.0.1, SVG Export Plug-In . SVG Version: 6.00 Build 0)  -->
<svg version="1.1" id="Layer_1" xmlns="http://www.w3.org/2000/svg" xmlns:xlink="http://www.w3.org/1999/xlink" x="0px" y="0px"
	 viewBox="0 0 457.4 448" style="enable-background:new 0 0 457.4 448;" xml:space="preserve">
<style type="text/css">
	.st0{fill:#EFF0F7;}
	.st1{fill:#F15C5E;}
	.st2{fill:#D95C5E;}
	.st3{fill:#FFFFFF;}
	.st4{fill:#5D5179;}
	.st5{fill:none;stroke:#D6D6D6;}
	.st6{fill:#F5F5F5;}
	.st7{enable-background:new    ;}
	.st8{fill:#CFD1DE;}
	.st9{fill:#F7D372;}
	.st10{fill:#85B9D9;}
	.st11{fill:#76A6C4;}
</style>
<g id="Group_1175" transform="translate(-320.205 -2628.215)">
	<path id="Rectangle_971" class="st0" d="M730.3,3057.3H546.6c-6.1,0-10.9-4.9-10.9-10.9v-169.2c0-6.1,4.9-10.9,10.9-10.9h183.6
		c6.1,0,10.9,4.9,10.9,10.9v169.2C741.2,3052.4,736.3,3057.3,730.3,3057.3z"/>
	<path id="Rectangle_981" class="st0" d="M730.3,2821.8H677c-6.1,0-10.9-4.9-10.9-10.9v-98.5c0-6.1,4.9-10.9,10.9-10.9h53.3
		c6.1,0,10.9,4.9,10.9,10.9v98.5C741.2,2816.9,736.3,2821.8,730.3,2821.8z"/>
	<path id="Rectangle_970" class="st0" d="M425.9,2881.5h-58.4c-6.1,0-10.9-4.9-10.9-10.9v-97.8c0-6.1,4.9-10.9,10.9-10.9h58.4
		c6.1,0,10.9,4.9,10.9,10.9v97.8C436.8,2876.7,432,2881.5,425.9,2881.5z"/>
	<path id="Rectangle_972" class="st0" d="M593.2,2927.8H477.7c-6.1,0-10.9-4.9-10.9-10.9v-183.5c0-6.1,4.9-10.9,10.9-10.9h115.5
		c6.1,0,10.9,4.9,10.9,10.9v183.5C604.1,2922.9,599.3,2927.8,593.2,2927.8z"/>
	<g>
		<polyline class="st1" points="512.8,2796.9 547.2,2791.9 548.8,2816.6 516.3,2821 		"/>
		<polyline class="st2" points="523.7,2822.9 542.2,2819.8 543.6,2829.9 526.1,2832.5 		"/>
		<g>
			<circle class="st2" cx="527.8" cy="2750.6" r="4.2"/>
			
				<rect x="527.3" y="2750.2" transform="matrix(0.9989 -4.630255e-02 4.630255e-02 0.9989 -127.2243 27.4273)" class="st2" width="2.2" height="19.4"/>
		</g>
		<polyline class="st1" points="503.1,2768.6 548.7,2763.5 551,2788.2 507.8,2792.8 		"/>
		<circle class="st3" cx="538.7" cy="2775.6" r="4.7"/>
		<circle class="st3" cx="521.9" cy="2777.2" r="4.7"/>
	</g>
	<g>
		
			<image style="overflow:visible;opacity:0.25;enable-background:new    ;" width="485" height="657" xlink:href="181A5C22D995ABB4.png"  transform="matrix(0.379 0 0 0.379 477.2879 2801.0686)">
		</image>
		<g>
			<g>
				<g>
					<path class="st4" d="M494.3,2806.8h149.8c4.9,0,8.8,4.2,8.8,9.4v214.8c0,5.2-4,9.4-8.8,9.4H494.3c-4.9,0-8.8-4.2-8.8-9.4
						v-214.8C485.6,2811.1,489.5,2806.8,494.3,2806.8z"/>
				</g>
			</g>
		</g>
	</g>
	<path class="st5" d="M494.3,2807.2h149.8c4.8,0,8.6,4.1,8.6,9.2v214.8c0,5.1-3.8,9.2-8.6,9.2H494.3c-4.8,0-8.6-4.1-8.6-9.2v-214.8
		C485.8,2811.3,489.6,2807.2,494.3,2807.2z"/>
	<rect id="Rectangle_732-2_4_" x="495.1" y="2816.2" class="st6" width="148.2" height="214.9"/>
	<g class="st7">
		<g>
			<rect x="511.2" y="2975.9" class="st8" width="116.1" height="42.3"/>
		</g>
	</g>
	<g class="st7">
		<g>
			<rect x="513.2" y="2867.6" class="st8" width="115.2" height="41.1"/>
		</g>
	</g>
	<g class="st7">
		<g>
			<rect x="508.6" y="2831.1" class="st8" width="116.2" height="26.6"/>
		</g>
	</g>
	<g class="st7">
		
			<image style="overflow:visible;opacity:0.16;enable-background:new    ;" width="364" height="174" xlink:href="181A5C22D995ABB5.png"  transform="matrix(0.3741 0 0 0.3741 470.2743 2911.9678)">
		</image>
		<g>
			<polygon class="st9" points="474.1,2966.9 476.6,2915.6 602.5,2922.1 600,2973.4 			"/>
		</g>
	</g>
	<g>
		
			<image style="overflow:visible;opacity:0.16;enable-background:new    ;" width="211" height="333" xlink:href="181A5C22D995ABB6.png"  transform="matrix(0.372 0 0 0.372 407.2133 2861.8948)">
		</image>
		<g>
			<g>
				<polyline class="st10" points="419.3,2929.8 466.3,2930.2 463.5,2963.6 419.1,2962.9 				"/>
				<polyline class="st11" points="428.5,2966.8 453.8,2966.5 453.6,2980.2 429.8,2980.2 				"/>
				<polyline class="st11" points="446.9,2943 476.6,2933.5 480.9,2946.5 452.9,2955.3 				"/>
				<g>
					<circle class="st11" cx="448.7" cy="2870.9" r="5.7"/>
					
						<rect x="434.6" y="2882.2" transform="matrix(0.1055 -0.9944 0.9944 0.1055 -2467.1719 3024.6267)" class="st11" width="26.2" height="2.9"/>
				</g>
				<polyline class="st10" points="412.1,2890 474.2,2892.6 472,2926 413.4,2923.2 				"/>
				<circle class="st3" cx="458.3" cy="2906.8" r="6.3"/>
				<circle class="st3" cx="435.4" cy="2905.3" r="6.3"/>
			</g>
		</g>
	</g>
	<g>
		
			<image style="overflow:visible;opacity:0.16;enable-background:new    ;" width="219" height="333" xlink:href="181A5C22D995ABAB.png"  transform="matrix(0.3724 0 0 0.3724 589.101 2873.8909)">
		</image>
		<g>
			<g>
				<polyline class="st1" points="652.8,2977.6 608.8,2972.3 610.5,2938.7 657.1,2944.9 				"/>
				<polyline class="st2" points="640.3,2992.6 616.5,2990.8 617.3,2977.2 642.6,2979.3 				"/>
				<polyline class="st2" points="620.5,2965.5 593.7,2952.8 599.9,2940.7 627.9,2954.1 				"/>
				<g>
					<circle class="st2" cx="636.1" cy="2882.5" r="5.7"/>
					
						<rect x="622.4" y="2893.7" transform="matrix(3.309683e-02 -0.9995 0.9995 3.309683e-02 -2279.0757 3434.4751)" class="st2" width="26.2" height="2.9"/>
				</g>
				<polyline class="st1" points="663.9,2939.1 605.4,2933.8 607.9,2900.4 666,2906.4 				"/>
				<circle class="st3" cx="621.8" cy="2916.6" r="6.3"/>
				<circle class="st3" cx="644.5" cy="2918.2" r="6.3"/>
			</g>
		</g>
	</g>
	<g>
		<path class="st6" d="M610.8,2842.1h-88.2c-1,0-1.7-0.8-1.7-1.7s0.8-1.7,1.7-1.7h88.2c1,0,1.7,0.8,1.7,1.7
			C612.6,2841.4,611.8,2842.1,610.8,2842.1z"/>
		<path class="st6" d="M587.2,2850H523c-1,0-1.7-0.8-1.7-1.7c0-1,0.8-1.7,1.7-1.7h64.1c1,0,1.7,0.8,1.7,1.7
			C588.9,2849.3,588.1,2850,587.2,2850z"/>
	</g>
	<g>
		<path class="st6" d="M614.5,2878h-87.2c-1,0-1.7-0.8-1.7-1.7s0.8-1.7,1.7-1.7h87.2c1,0,1.7,0.8,1.7,1.7S615.4,2878,614.5,2878z"/>
		<path class="st6" d="M610.1,2885.8h-82.7c-1,0-1.7-0.8-1.7-1.7s0.8-1.7,1.7-1.7h82.7c1,0,1.7,0.8,1.7,1.7
			S611.1,2885.8,610.1,2885.8z"/>
		<path class="st6" d="M587.9,2893.7h-60.5c-1,0-1.7-0.8-1.7-1.7c0-1,0.8-1.7,1.7-1.7h60.5c1,0,1.7,0.8,1.7,1.7
			C589.6,2892.9,588.9,2893.7,587.9,2893.7z"/>
		<path class="st6" d="M544.1,2902.1h-17c-1,0-1.7-0.8-1.7-1.7c0-1,0.8-1.7,1.7-1.7h17c1,0,1.7,0.8,1.7,1.7
			C545.9,2901.4,545.1,2902.1,544.1,2902.1z"/>
	</g>
	<g>
		<path class="st6" d="M517.1,2930.1L517.1,2930.1l-24.8-1.2c-1,0-1.7-0.9-1.6-1.8c0-1,0.9-1.7,1.8-1.6l24.7,1.2
			c1,0,1.7,0.9,1.6,1.8C518.8,2929.4,518,2930.1,517.1,2930.1z"/>
		<path class="st6" d="M572.4,2947.2C572.4,2947.2,572.3,2947.2,572.4,2947.2l-80.5-3.8c-1,0-1.7-0.9-1.6-1.8c0-1,0.9-1.7,1.8-1.6
			l80.3,3.8c1,0,1.7,0.9,1.6,1.8C574,2946.4,573.3,2947.2,572.4,2947.2z"/>
		<path class="st6" d="M580.2,2955.4C580.1,2955.4,580.1,2955.4,580.2,2955.4l-88.6-4.1c-1,0-1.7-0.9-1.6-1.8c0-1,0.9-1.6,1.8-1.6
			l88.5,4.1c1,0,1.7,0.9,1.6,1.8S581.1,2955.4,580.2,2955.4z"/>
		<path class="st6" d="M549.9,2961.2C549.9,2961.2,549.8,2961.2,549.9,2961.2l-58.9-2.7c-1,0-1.7-0.9-1.6-1.8c0-1,0.9-1.6,1.8-1.6
			l58.9,2.7c1,0,1.7,0.9,1.6,1.8C551.5,2960.6,550.7,2961.2,549.9,2961.2z"/>
		<path class="st6" d="M582.3,2940.3L582.3,2940.3l-90.3-4.2c-1,0-1.7-0.9-1.6-1.8c0-1,0.9-1.7,1.8-1.6l90.2,4.2
			c1,0,1.7,0.9,1.6,1.8C584,2939.7,583.2,2940.3,582.3,2940.3z"/>
	</g>
	<g>
		<path class="st6" d="M593.7,2987.8h-68.9c-1,0-1.7-0.8-1.7-1.7s0.8-1.7,1.7-1.7h68.9c1,0,1.7,0.8,1.7,1.7
			S594.7,2987.8,593.7,2987.8z"/>
		<path class="st6" d="M607.6,2995.7h-82.7c-1,0-1.7-0.8-1.7-1.7s0.8-1.7,1.7-1.7h82.7c1,0,1.7,0.8,1.7,1.7
			S608.6,2995.7,607.6,2995.7z"/>
		<path class="st6" d="M585.5,3003.6H525c-1,0-1.7-0.8-1.7-1.7c0-1,0.8-1.7,1.7-1.7h60.5c1,0,1.7,0.8,1.7,1.7
			C587.2,3002.8,586.4,3003.6,585.5,3003.6z"/>
		<path class="st6" d="M567.3,3011.3h-42.7c-1,0-1.7-0.8-1.7-1.7c0-1,0.8-1.7,1.7-1.7h42.7c1,0,1.7,0.8,1.7,1.7
			C569,3010.5,568.2,3011.3,567.3,3011.3z"/>
	</g>
</g>
</svg>
