<?xml version="1.0" encoding="utf-8"?>
<!-- Generator: Adobe Illustrator 23.0.1, SVG Export Plug-In . SVG Version: 6.00 Build 0)  -->
<svg version="1.1" id="Layer_1" xmlns="http://www.w3.org/2000/svg" xmlns:xlink="http://www.w3.org/1999/xlink" x="0px" y="0px"
	 viewBox="0 0 255.9 118.4" style="enable-background:new 0 0 255.9 118.4;" xml:space="preserve">
<style type="text/css">
	.st0{fill:#EFF0F7;}
</style>
<rect id="Rectangle_1045" x="96" y="95.1" class="st0" width="16.1" height="23.3"/>
<rect id="Rectangle_1051" x="144.1" y="47.5" class="st0" width="16.1" height="23.3"/>
<rect id="Rectangle_1052" x="191.9" y="47.5" class="st0" width="16.1" height="23.3"/>
<rect id="Rectangle_1053" x="239.8" y="47.5" class="st0" width="16.1" height="23.3"/>
<rect id="Rectangle_1059" x="144.1" y="0" class="st0" width="16.1" height="23.3"/>
<rect id="Rectangle_1060" x="191.9" y="0" class="st0" width="16.1" height="23.3"/>
<rect id="Rectangle_1061" x="239.8" y="0" class="st0" width="16.1" height="23.3"/>
<rect id="Rectangle_1045-2" x="0" y="95.1" class="st0" width="16.1" height="23.3"/>
<rect id="Rectangle_1046" x="47.9" y="95.1" class="st0" width="16.1" height="23.3"/>
<rect id="Rectangle_1051-2" x="0.1" y="47.5" class="st0" width="16.1" height="23.3"/>
<rect id="Rectangle_1052-2" x="47.9" y="47.5" class="st0" width="16.1" height="23.3"/>
<rect id="Rectangle_1053-2" x="95.8" y="47.5" class="st0" width="16.1" height="23.3"/>
<rect id="Rectangle_1054" x="143.6" y="47.5" class="st0" width="16.1" height="23.3"/>
<rect id="Rectangle_1059-2" x="0.1" y="0" class="st0" width="16.1" height="23.3"/>
<rect id="Rectangle_1060-2" x="47.9" y="0" class="st0" width="16.1" height="23.3"/>
<rect id="Rectangle_1061-2" x="95.8" y="0" class="st0" width="16.1" height="23.3"/>
<rect id="Rectangle_1062" x="143.6" y="0" class="st0" width="16.1" height="23.3"/>
</svg>
