<?xml version="1.0" encoding="utf-8"?>
<!-- Generator: Adobe Illustrator 22.0.1, SVG Export Plug-In . SVG Version: 6.00 Build 0)  -->
<svg version="1.1" id="Layer_1" xmlns="http://www.w3.org/2000/svg" xmlns:xlink="http://www.w3.org/1999/xlink" x="0px" y="0px"
	 viewBox="0 0 500.2 449" style="enable-background:new 0 0 500.2 449;" xml:space="preserve">
<style type="text/css">
	.st0{clip-path:url(#SVGID_2_);fill:#F2C453;}
	.st1{clip-path:url(#SVGID_2_);fill:#BF6ED3;}
	.st2{clip-path:url(#SVGID_2_);fill:#6EBEEA;}
	.st3{clip-path:url(#SVGID_2_);fill:#80DD73;}
	.st4{fill:#DD4E55;}
	.st5{fill:#F15C5E;}
	.st6{fill:#BF6ED3;}
</style>
<g>
	<defs>
		<path id="SVGID_1_" d="M333.8,366.1h-168c-17.5,0-31.8-14.3-31.8-31.8V44.8c0-17.5,14.3-31.8,31.8-31.8h168
			c17.5,0,31.8,14.3,31.8,31.8v289.5C365.7,351.8,351.4,366.1,333.8,366.1z M165.9,34.3c-5.8,0-10.5,4.7-10.5,10.5v289.5
			c0,5.8,4.7,10.5,10.5,10.5h168c5.8,0,10.5-4.7,10.5-10.5V44.8c0-5.8-4.7-10.5-10.5-10.5H165.9z"/>
	</defs>
	<clipPath id="SVGID_2_">
		<use xlink:href="#SVGID_1_"  style="overflow:visible;"/>
	</clipPath>
	<polygon class="st0" points="386.1,-75.9 221.2,-37.5 172,124.4 287.7,247.9 452.5,209.6 501.7,47.7 	"/>
	<polygon class="st1" points="197.8,-16.7 33,21.7 -16.2,183.6 99.4,307.1 264.2,268.8 313.4,106.9 	"/>
	<polygon class="st2" points="438.2,128.9 273.3,167.3 224.1,329.2 339.8,452.8 504.6,414.4 553.8,252.5 	"/>
	<polygon class="st3" points="226.2,210.6 61.4,249 12.2,410.9 127.8,534.5 292.6,496.1 341.8,334.2 	"/>
</g>
<g>
	<polygon class="st4" points="207.8,120.7 291.2,152 291.2,203.2 207.8,172.9 	"/>
	<polygon class="st5" points="207.8,199 291.2,152 291.2,203.2 249.5,224 	"/>
	<polygon class="st5" points="291.2,124.9 207.8,172.9 207.8,120.7 249.5,99.8 	"/>
</g>
<circle class="st6" cx="249.6" cy="313" r="16.1"/>
</svg>
