<?xml version="1.0" encoding="utf-8"?>
<!-- Generator: Adobe Illustrator 22.0.1, SVG Export Plug-In . SVG Version: 6.00 Build 0)  -->
<svg version="1.1" id="Layer_1" xmlns="http://www.w3.org/2000/svg" xmlns:xlink="http://www.w3.org/1999/xlink" x="0px" y="0px"
	 viewBox="0 0 576 512" style="enable-background:new 0 0 576 512;" xml:space="preserve">
<style type="text/css">
	.st0{fill:none;stroke:#EBEBEB;stroke-width:4;stroke-miterlimit:10;}
	.st1{fill:#DD4E55;}
	.st2{fill:#F15C5E;}
	.st3{fill:#80DD73;}
	.st4{fill:#875BBA;}
	.st5{fill:#68A8DD;}
	.st6{fill:#F2C453;}
	.st7{fill:#FFFFFF;}
	.st8{fill:#5B8FB2;}
	.st9{clip-path:url(#SVGID_2_);fill:#80DD73;}
	.st10{clip-path:url(#SVGID_4_);fill:#BF6ED3;}
	.st11{clip-path:url(#SVGID_6_);fill:#6EBEEA;}
	.st12{clip-path:url(#SVGID_8_);fill:#F2C453;}
	.st13{clip-path:url(#SVGID_10_);fill:#80DD73;}
	.st14{clip-path:url(#SVGID_12_);fill:#BF6ED3;}
	.st15{clip-path:url(#SVGID_14_);fill:#6EBEEA;}
	.st16{clip-path:url(#SVGID_16_);fill:#F2C453;}
	.st17{fill:#BF6ED3;}
	.st18{fill:#6EBEEA;}
</style>
<polygon class="st0" points="1001.5,130 839.7,130 758.8,270.1 839.7,410.3 1001.5,410.3 1082.4,270.1 "/>
<polygon class="st1" points="864.2,214.5 976.9,256.7 976.9,325.8 864.2,284.9 "/>
<polygon class="st2" points="864.2,320.2 976.9,256.7 976.9,325.8 920.6,354 "/>
<polygon class="st2" points="976.9,220.1 864.2,284.9 864.2,214.5 920.6,186.3 "/>
<circle class="st0" cx="1078.3" cy="270.1" r="44"/>
<ellipse transform="matrix(0.1602 -0.9871 0.9871 0.1602 438.5372 1328.8387)" class="st0" cx="1000.2" cy="406.7" rx="44" ry="44"/>
<circle class="st0" cx="841.8" cy="406.7" r="44"/>
<circle class="st0" cx="762.9" cy="270.1" r="44"/>
<circle class="st0" cx="841.8" cy="133.6" r="44"/>
<ellipse transform="matrix(0.1602 -0.9871 0.9871 0.1602 708.1108 1099.4845)" class="st0" cx="1000.2" cy="133.6" rx="44" ry="44"/>
<circle class="st0" cx="1086.3" cy="368.3" r="53.7"/>
<circle class="st0" cx="919.9" cy="464" r="53.7"/>
<circle class="st0" cx="753.2" cy="366.3" r="53.7"/>
<circle class="st0" cx="754.2" cy="173.8" r="53.7"/>
<circle class="st0" cx="921.6" cy="78.7" r="53.7"/>
<circle class="st0" cx="1088.3" cy="176.4" r="53.7"/>
<circle class="st0" cx="1087" cy="367.1" r="53.7"/>
<circle class="st0" cx="920.6" cy="462.8" r="53.7"/>
<circle class="st0" cx="753.9" cy="365.1" r="53.7"/>
<circle class="st0" cx="755" cy="172.6" r="53.7"/>
<circle class="st0" cx="922.3" cy="77.5" r="53.7"/>
<circle class="st0" cx="1089.1" cy="175.2" r="53.7"/>
<polygon class="st0" points="1001.5,130 839.7,130 758.8,270.1 839.7,410.3 1001.5,410.3 1082.4,270.1 "/>
<polygon class="st3" points="764.3,-519.4 606.7,-482.8 559.7,-328 670.2,-209.8 827.8,-246.5 874.9,-401.3 "/>
<polygon class="st4" points="558,-424.5 443.6,-310.1 485.5,-153.8 641.8,-111.9 756.2,-226.3 714.3,-382.6 "/>
<polygon class="st5" points="660.7,-417.3 546.3,-302.9 588.1,-146.6 744.4,-104.7 858.8,-219.1 817,-375.4 "/>
<polygon class="st6" points="575.3,-520.9 460.9,-406.5 502.8,-250.2 659.1,-208.3 773.5,-322.7 731.6,-479 "/>
<polygon class="st7" points="519.7,-403.7 519.7,-241.9 659.9,-161 800,-241.9 800,-403.7 659.9,-484.6 "/>
<g>
	<polygon class="st1" points="599.9,-375 712.6,-332.8 712.6,-263.7 599.9,-304.6 	"/>
	<polygon class="st2" points="599.9,-269.3 712.6,-332.8 712.6,-263.7 656.3,-235.5 	"/>
	<polygon class="st2" points="712.6,-369.4 599.9,-304.6 599.9,-375 656.3,-403.2 	"/>
</g>
<circle class="st8" cx="123.3" cy="-241.8" r="73"/>
<circle class="st6" cx="192.2" cy="-414.1" r="73"/>
<circle class="st5" cx="251" cy="-250.3" r="73"/>
<circle class="st8" cx="125.8" cy="-374.9" r="68.9"/>
<circle class="st5" cx="238.8" cy="-408.1" r="85.3"/>
<circle class="st5" cx="194.6" cy="-283.7" r="68.9"/>
<circle class="st6" cx="288.3" cy="-309.9" r="68.9"/>
<circle class="st5" cx="117.3" cy="-270.4" r="86.8"/>
<circle class="st8" cx="227.3" cy="-205.9" r="83.9"/>
<circle class="st6" cx="158.4" cy="-429.7" r="68.9"/>
<g>
	<polygon class="st1" points="142.9,-365.6 255.6,-323.4 255.6,-254.3 142.9,-295.2 	"/>
	<polygon class="st2" points="142.9,-259.9 255.6,-323.4 255.6,-254.3 199.3,-226.1 	"/>
	<polygon class="st2" points="255.6,-360 142.9,-295.2 142.9,-365.6 199.3,-393.8 	"/>
</g>
<circle class="st6" cx="134.6" cy="-201.5" r="68.9"/>
<g>
	<polygon class="st1" points="250.6,161.4 366.9,204.9 366.9,276.3 250.6,234.1 	"/>
	<polygon class="st2" points="250.6,270.5 366.9,204.9 366.9,276.3 308.7,305.4 	"/>
	<polygon class="st2" points="366.9,167.1 250.6,234.1 250.6,161.4 308.7,132.2 	"/>
</g>
<g>
	<g>
		<defs>
			<path id="SVGID_1_" d="M311.2,402l-160.5-92.7V124l160.5-92.7L471.7,124v185.4L311.2,402z M178.9,293l132.3,76.4L443.5,293V140.2
				L311.2,63.9l-132.3,76.4V293z"/>
		</defs>
		<clipPath id="SVGID_2_">
			<use xlink:href="#SVGID_1_"  style="overflow:visible;"/>
		</clipPath>
		<polygon class="st9" points="410.3,32.7 263,67 219,211.6 322.3,322 469.6,287.8 513.6,143.1 		"/>
	</g>
	<g>
		<defs>
			<path id="SVGID_3_" d="M311.2,402l-160.5-92.7V124l160.5-92.7L471.7,124v185.4L311.2,402z M178.9,293l132.3,76.4L443.5,293V140.2
				L311.2,63.9l-132.3,76.4V293z"/>
		</defs>
		<clipPath id="SVGID_4_">
			<use xlink:href="#SVGID_3_"  style="overflow:visible;"/>
		</clipPath>
		<polygon class="st10" points="136.3,83.4 94.5,211.7 136.3,367.5 292.2,409.4 406.3,295.2 364.5,139.4 		"/>
	</g>
	<g>
		<defs>
			<path id="SVGID_5_" d="M311.2,402l-160.5-92.7V124l160.5-92.7L471.7,124v185.4L311.2,402z M178.9,293l132.3,76.4L443.5,293V140.2
				L311.2,63.9l-132.3,76.4V293z"/>
		</defs>
		<clipPath id="SVGID_6_">
			<use xlink:href="#SVGID_5_"  style="overflow:visible;"/>
		</clipPath>
		<polyline class="st11" points="504.7,285.9 354.6,241.1 247.6,348 287.4,461.4 		"/>
	</g>
	<g>
		<defs>
			<path id="SVGID_7_" d="M311.2,402l-160.5-92.7V124l160.5-92.7L471.7,124v185.4L311.2,402z M178.9,293l132.3,76.4L443.5,293V140.2
				L311.2,63.9l-132.3,76.4V293z"/>
		</defs>
		<clipPath id="SVGID_8_">
			<use xlink:href="#SVGID_7_"  style="overflow:visible;"/>
		</clipPath>
		<polygon class="st12" points="232,5.5 139.5,87.2 171.1,233 302.4,268.2 398.6,172.1 363.4,40.7 		"/>
	</g>
</g>
<g>
	<polygon class="st1" points="-344.1,179.1 -260.7,210.3 -260.7,261.5 -344.1,231.2 	"/>
	<polygon class="st2" points="-344.1,257.3 -260.7,210.3 -260.7,261.5 -302.4,282.4 	"/>
	<polygon class="st2" points="-260.7,183.2 -344.1,231.2 -344.1,179.1 -302.4,158.2 	"/>
</g>
<g>
	<g>
		<defs>
			<path id="SVGID_9_" d="M-412.4,450.7c-0.8,0-1.7-0.1-2.6-0.3c-6.4-1.5-8.2-7.1-9.8-12.1c-0.3-0.8-0.6-1.8-0.9-2.8l-29.9-91.6
				c-0.4-1.2-0.7-2.2-1-3.1c-3.5-10.2-2.5-14.3,5.1-21.7c0.7-0.7,1.6-1.5,2.5-2.5l50.5-50.5c-9-43.4-12.6-105.1,42.2-159.9
				c11.7-11.7,23.9-23.9,42.8-36.1c6.7-4.3,15.4-4.3,22.1,0l0,0c19.1,12.4,31.7,25.1,42.8,36.3c42.1,42,55.6,92.9,42,159.7l51,50
				c1.6,1.6,2.8,2.7,3.8,3.5c7,6,6.9,10.9,4.2,18.2c-0.4,1-0.8,2.3-1.4,3.8l-31,93.4c-0.5,1.4-0.9,2.7-1.2,3.7
				c-1.4,4.4-3.1,9.8-9.4,11.3c-6.3,1.5-10.3-2.6-13.8-6.2c-0.6-0.7-1.4-1.4-2.2-2.3l-43.7-43.7c-1.3,3.5-2.5,7.1-3.6,10.6
				c-2.8,8.4-10.6,14-19.4,14h-58.5c-8.8,0-16.6-5.6-19.4-14c-1.1-3.4-2.3-6.9-3.6-10.6l-43.7,43.7c-0.9,0.9-1.7,1.8-2.4,2.5
				C-404.1,447.2-407.5,450.7-412.4,450.7z M-438,333.7c0.1,0.2,0.1,0.4,0.2,0.5c0.3,1,0.7,2.1,1.1,3.3l28,85.8l61.8-61.8l5.4,14.7
				c3.7,10.1,6.6,18.3,9.2,25.9c0.1,0.2,0.2,0.3,0.4,0.3h58.5c0.2,0,0.3-0.1,0.4-0.3c2.9-8.7,6.1-17.5,9.2-25.9l5.4-14.7l61.3,61.3
				l28.9-87.6c0.3-0.9,0.6-1.8,0.9-2.5c-0.8-0.7-1.6-1.5-2.6-2.5l-58.8-57.7l1.2-5.4c6.5-29.3,7.5-54.4,3.1-76.7
				c-5.2-26.3-17.8-49.2-38.6-70c-10.9-11-22.2-22.4-39.5-33.6l0,0c-0.1-0.1-0.2-0.1-0.3,0c-17.1,11.1-28,21.9-39.5,33.5
				c-38.7,38.7-49.7,84-35.6,146.8l1.2,5.4l-58.2,58.2c-1.1,1.1-2,2-2.8,2.7C-437.8,333.6-437.9,333.6-438,333.7z"/>
		</defs>
		<clipPath id="SVGID_10_">
			<use xlink:href="#SVGID_9_"  style="overflow:visible;"/>
		</clipPath>
		<polygon class="st13" points="-221.5,57.5 -411.9,101.8 -468.7,288.8 -335.2,431.5 -144.8,387.3 -88,200.2 		"/>
	</g>
	<g>
		<defs>
			<path id="SVGID_11_" d="M-412.4,450.7c-0.8,0-1.7-0.1-2.6-0.3c-6.4-1.5-8.2-7.1-9.8-12.1c-0.3-0.8-0.6-1.8-0.9-2.8l-29.9-91.6
				c-0.4-1.2-0.7-2.2-1-3.1c-3.5-10.2-2.5-14.3,5.1-21.7c0.7-0.7,1.6-1.5,2.5-2.5l50.5-50.5c-9-43.4-12.6-105.1,42.2-159.9
				c11.7-11.7,23.9-23.9,42.8-36.1c6.7-4.3,15.4-4.3,22.1,0l0,0c19.1,12.4,31.7,25.1,42.8,36.3c42.1,42,55.6,92.9,42,159.7l51,50
				c1.6,1.6,2.8,2.7,3.8,3.5c7,6,6.9,10.9,4.2,18.2c-0.4,1-0.8,2.3-1.4,3.8l-31,93.4c-0.5,1.4-0.9,2.7-1.2,3.7
				c-1.4,4.4-3.1,9.8-9.4,11.3c-6.3,1.5-10.3-2.6-13.8-6.2c-0.6-0.7-1.4-1.4-2.2-2.3l-43.7-43.7c-1.3,3.5-2.5,7.1-3.6,10.6
				c-2.8,8.4-10.6,14-19.4,14h-58.5c-8.8,0-16.6-5.6-19.4-14c-1.1-3.4-2.3-6.9-3.6-10.6l-43.7,43.7c-0.9,0.9-1.7,1.8-2.4,2.5
				C-404.1,447.2-407.5,450.7-412.4,450.7z M-438,333.7c0.1,0.2,0.1,0.4,0.2,0.5c0.3,1,0.7,2.1,1.1,3.3l28,85.8l61.8-61.8l5.4,14.7
				c3.7,10.1,6.6,18.3,9.2,25.9c0.1,0.2,0.2,0.3,0.4,0.3h58.5c0.2,0,0.3-0.1,0.4-0.3c2.9-8.7,6.1-17.5,9.2-25.9l5.4-14.7l61.3,61.3
				l28.9-87.6c0.3-0.9,0.6-1.8,0.9-2.5c-0.8-0.7-1.6-1.5-2.6-2.5l-58.8-57.7l1.2-5.4c6.5-29.3,7.5-54.4,3.1-76.7
				c-5.2-26.3-17.8-49.2-38.6-70c-10.9-11-22.2-22.4-39.5-33.6l0,0c-0.1-0.1-0.2-0.1-0.3,0c-17.1,11.1-28,21.9-39.5,33.5
				c-38.7,38.7-49.7,84-35.6,146.8l1.2,5.4l-58.2,58.2c-1.1,1.1-2,2-2.8,2.7C-437.8,333.6-437.9,333.6-438,333.7z"/>
		</defs>
		<clipPath id="SVGID_12_">
			<use xlink:href="#SVGID_11_"  style="overflow:visible;"/>
		</clipPath>
		<polygon class="st14" points="-575.7,123.1 -629.7,288.9 -575.7,490.4 -374.2,544.4 -226.7,396.9 -280.7,195.4 		"/>
	</g>
	<g>
		<defs>
			<path id="SVGID_13_" d="M-412.4,450.7c-0.8,0-1.7-0.1-2.6-0.3c-6.4-1.5-8.2-7.1-9.8-12.1c-0.3-0.8-0.6-1.8-0.9-2.8l-29.9-91.6
				c-0.4-1.2-0.7-2.2-1-3.1c-3.5-10.2-2.5-14.3,5.1-21.7c0.7-0.7,1.6-1.5,2.5-2.5l50.5-50.5c-9-43.4-12.6-105.1,42.2-159.9
				c11.7-11.7,23.9-23.9,42.8-36.1c6.7-4.3,15.4-4.3,22.1,0l0,0c19.1,12.4,31.7,25.1,42.8,36.3c42.1,42,55.6,92.9,42,159.7l51,50
				c1.6,1.6,2.8,2.7,3.8,3.5c7,6,6.9,10.9,4.2,18.2c-0.4,1-0.8,2.3-1.4,3.8l-31,93.4c-0.5,1.4-0.9,2.7-1.2,3.7
				c-1.4,4.4-3.1,9.8-9.4,11.3c-6.3,1.5-10.3-2.6-13.8-6.2c-0.6-0.7-1.4-1.4-2.2-2.3l-43.7-43.7c-1.3,3.5-2.5,7.1-3.6,10.6
				c-2.8,8.4-10.6,14-19.4,14h-58.5c-8.8,0-16.6-5.6-19.4-14c-1.1-3.4-2.3-6.9-3.6-10.6l-43.7,43.7c-0.9,0.9-1.7,1.8-2.4,2.5
				C-404.1,447.2-407.5,450.7-412.4,450.7z M-438,333.7c0.1,0.2,0.1,0.4,0.2,0.5c0.3,1,0.7,2.1,1.1,3.3l28,85.8l61.8-61.8l5.4,14.7
				c3.7,10.1,6.6,18.3,9.2,25.9c0.1,0.2,0.2,0.3,0.4,0.3h58.5c0.2,0,0.3-0.1,0.4-0.3c2.9-8.7,6.1-17.5,9.2-25.9l5.4-14.7l61.3,61.3
				l28.9-87.6c0.3-0.9,0.6-1.8,0.9-2.5c-0.8-0.7-1.6-1.5-2.6-2.5l-58.8-57.7l1.2-5.4c6.5-29.3,7.5-54.4,3.1-76.7
				c-5.2-26.3-17.8-49.2-38.6-70c-10.9-11-22.2-22.4-39.5-33.6l0,0c-0.1-0.1-0.2-0.1-0.3,0c-17.1,11.1-28,21.9-39.5,33.5
				c-38.7,38.7-49.7,84-35.6,146.8l1.2,5.4l-58.2,58.2c-1.1,1.1-2,2-2.8,2.7C-437.8,333.6-437.9,333.6-438,333.7z"/>
		</defs>
		<clipPath id="SVGID_14_">
			<use xlink:href="#SVGID_13_"  style="overflow:visible;"/>
		</clipPath>
		<polyline class="st15" points="-71.4,384 -265.4,326.1 -403.6,464.3 -352.2,610.8 		"/>
	</g>
	<g>
		<defs>
			<path id="SVGID_15_" d="M-412.4,450.7c-0.8,0-1.7-0.1-2.6-0.3c-6.4-1.5-8.2-7.1-9.8-12.1c-0.3-0.8-0.6-1.8-0.9-2.8l-29.9-91.6
				c-0.4-1.2-0.7-2.2-1-3.1c-3.5-10.2-2.5-14.3,5.1-21.7c0.7-0.7,1.6-1.5,2.5-2.5l50.5-50.5c-9-43.4-12.6-105.1,42.2-159.9
				c11.7-11.7,23.9-23.9,42.8-36.1c6.7-4.3,15.4-4.3,22.1,0l0,0c19.1,12.4,31.7,25.1,42.8,36.3c42.1,42,55.6,92.9,42,159.7l51,50
				c1.6,1.6,2.8,2.7,3.8,3.5c7,6,6.9,10.9,4.2,18.2c-0.4,1-0.8,2.3-1.4,3.8l-31,93.4c-0.5,1.4-0.9,2.7-1.2,3.7
				c-1.4,4.4-3.1,9.8-9.4,11.3c-6.3,1.5-10.3-2.6-13.8-6.2c-0.6-0.7-1.4-1.4-2.2-2.3l-43.7-43.7c-1.3,3.5-2.5,7.1-3.6,10.6
				c-2.8,8.4-10.6,14-19.4,14h-58.5c-8.8,0-16.6-5.6-19.4-14c-1.1-3.4-2.3-6.9-3.6-10.6l-43.7,43.7c-0.9,0.9-1.7,1.8-2.4,2.5
				C-404.1,447.2-407.5,450.7-412.4,450.7z M-438,333.7c0.1,0.2,0.1,0.4,0.2,0.5c0.3,1,0.7,2.1,1.1,3.3l28,85.8l61.8-61.8l5.4,14.7
				c3.7,10.1,6.6,18.3,9.2,25.9c0.1,0.2,0.2,0.3,0.4,0.3h58.5c0.2,0,0.3-0.1,0.4-0.3c2.9-8.7,6.1-17.5,9.2-25.9l5.4-14.7l61.3,61.3
				l28.9-87.6c0.3-0.9,0.6-1.8,0.9-2.5c-0.8-0.7-1.6-1.5-2.6-2.5l-58.8-57.7l1.2-5.4c6.5-29.3,7.5-54.4,3.1-76.7
				c-5.2-26.3-17.8-49.2-38.6-70c-10.9-11-22.2-22.4-39.5-33.6l0,0c-0.1-0.1-0.2-0.1-0.3,0c-17.1,11.1-28,21.9-39.5,33.5
				c-38.7,38.7-49.7,84-35.6,146.8l1.2,5.4l-58.2,58.2c-1.1,1.1-2,2-2.8,2.7C-437.8,333.6-437.9,333.6-438,333.7z"/>
		</defs>
		<clipPath id="SVGID_16_">
			<use xlink:href="#SVGID_15_"  style="overflow:visible;"/>
		</clipPath>
		<polygon class="st16" points="-438.9,-79.4 -558.5,26.1 -517.7,214.7 -347.9,260.1 -223.6,135.9 -269.1,-33.9 		"/>
	</g>
</g>
<polygon class="st3" points="-249.4,-392.4 -339.7,-302.1 -306.7,-178.8 -183.4,-145.8 -93.1,-236 -126.1,-359.4 "/>
<polygon class="st17" points="-348.7,-272.9 -402.4,-157.1 -329,-52.6 -201.8,-64 -148.1,-179.9 -221.6,-284.3 "/>
<polygon class="st18" points="-213.7,-328.3 -304,-238 -270.9,-114.7 -147.6,-81.6 -57.3,-171.9 -90.4,-295.3 "/>
<polygon class="st6" points="-315.3,-377.1 -405.6,-286.8 -372.6,-163.5 -249.2,-130.4 -158.9,-220.7 -192,-344 "/>
<polygon class="st7" points="-348.7,-284.8 -348.7,-155.3 -236.6,-90.6 -124.4,-155.3 -124.4,-284.8 -236.6,-349.6 "/>
<g>
	<polygon class="st1" points="-296.7,-272.4 -183.7,-230.1 -183.7,-160.8 -296.7,-201.8 	"/>
	<polygon class="st2" points="-296.7,-166.4 -183.7,-230.1 -183.7,-160.8 -240.1,-132.6 	"/>
	<polygon class="st2" points="-183.7,-266.8 -296.7,-201.8 -296.7,-272.4 -240.1,-300.7 	"/>
</g>
</svg>
