<?xml version="1.0" encoding="utf-8"?>
<!-- Generator: Adobe Illustrator 22.0.1, SVG Export Plug-In . SVG Version: 6.00 Build 0)  -->
<svg version="1.1" id="Layer_1" xmlns="http://www.w3.org/2000/svg" xmlns:xlink="http://www.w3.org/1999/xlink" x="0px" y="0px"
	 viewBox="0 0 576 512" style="enable-background:new 0 0 576 512;" xml:space="preserve">
<style type="text/css">
	.st0{fill:#DD4E55;}
	.st1{fill:#F15C5E;}
	.st2{clip-path:url(#SVGID_2_);fill:#80DD73;}
	.st3{clip-path:url(#SVGID_4_);fill:#BF6ED3;}
	.st4{clip-path:url(#SVGID_6_);fill:#6EBEEA;}
	.st5{clip-path:url(#SVGID_8_);fill:#F2C453;}
	.st6{clip-path:url(#SVGID_12_);fill:#DD4E55;}
	.st7{clip-path:url(#SVGID_14_);fill:#F15C5E;}
	.st8{fill:#F96B6B;}
	.st9{clip-path:url(#SVGID_17_);fill:#F96B6B;}
</style>
<polygon class="st0" points="800.8,-116 674.1,-169.9 800.8,-225 927.5,-169.9 "/>
<polygon class="st1" points="798.7,-156.9 672,-210.8 798.7,-265.9 925.5,-210.8 "/>
<g>
	<g>
		<defs>
			<path id="SVGID_1_" d="M156.4,430.3c-0.9,0-1.8-0.1-2.8-0.3c-6.9-1.6-8.8-7.7-10.6-13c-0.3-0.9-0.6-1.9-1-3l-32.2-98.8
				c-0.4-1.3-0.8-2.4-1.1-3.3c-3.8-11-2.7-15.4,5.5-23.4c0.8-0.8,1.7-1.6,2.7-2.7l54.5-54.5c-9.7-46.8-13.6-113.3,45.5-172.4
				c12.6-12.6,25.8-25.8,46.2-38.9c7.2-4.6,16.6-4.6,23.8,0l0,0c20.6,13.4,34.2,27.1,46.2,39.1c45.4,45.3,60,100.2,45.3,172.2
				l55,53.9c1.7,1.7,3,2.9,4.1,3.8c7.5,6.5,7.4,11.8,4.5,19.6c-0.4,1.1-0.9,2.5-1.5,4.1L407,413.4c-0.5,1.5-1,2.9-1.3,4
				c-1.5,4.7-3.3,10.6-10.1,12.2s-11.1-2.8-14.9-6.7c-0.6-0.8-1.5-1.5-2.4-2.5l-47.2-47c-1.4,3.8-2.7,7.7-3.9,11.4
				c-3,9.1-11.4,15.1-20.9,15.1h-63.1c-9.5,0-17.9-6-20.9-15.1c-1.2-3.7-2.5-7.4-3.9-11.4l-47.1,47.1c-1,1-1.8,1.9-2.6,2.7
				C165.4,426.6,161.7,430.3,156.4,430.3z M128.8,304.2c0.1,0.2,0.1,0.4,0.2,0.5c0.3,1.1,0.8,2.3,1.2,3.6l30.2,92.5l66.6-66.6
				l5.8,15.9c4,10.9,7.1,19.7,9.9,27.9c0.1,0.2,0.2,0.3,0.4,0.3h63.1c0.2,0,0.3-0.1,0.4-0.3c3.1-9.4,6.6-18.9,9.9-27.9l5.8-15.9
				l66.1,66.1l31.2-94.5c0.3-1,0.6-1.9,1-2.7c-0.9-0.8-1.7-1.6-2.8-2.7l-63.4-62.2l1.3-5.8c7-31.6,8.1-58.7,3.3-82.7
				c-5.6-28.4-19.2-53.1-41.6-75.5c-11.8-11.9-23.9-24.2-42.6-36.2l0,0c-0.1-0.1-0.2-0.1-0.3,0c-18.4,12-30.2,23.6-42.6,36.1
				c-41.7,41.7-53.6,90.6-38.4,158.3l1.3,5.8l-62.8,62.8c-1.2,1.2-2.2,2.2-3,2.9C129,304,128.9,304,128.8,304.2z"/>
		</defs>
		<clipPath id="SVGID_2_">
			<use xlink:href="#SVGID_1_"  style="overflow:visible;"/>
		</clipPath>
		<polygon class="st2" points="362.2,6.3 156.9,54.1 95.6,255.7 239.7,409.6 445,362 506.3,160.2 		"/>
	</g>
	<g>
		<defs>
			<path id="SVGID_3_" d="M156.4,430.3c-0.9,0-1.8-0.1-2.8-0.3c-6.9-1.6-8.8-7.7-10.6-13c-0.3-0.9-0.6-1.9-1-3l-32.2-98.8
				c-0.4-1.3-0.8-2.4-1.1-3.3c-3.8-11-2.7-15.4,5.5-23.4c0.8-0.8,1.7-1.6,2.7-2.7l54.5-54.5c-9.7-46.8-13.6-113.3,45.5-172.4
				c12.6-12.6,25.8-25.8,46.2-38.9c7.2-4.6,16.6-4.6,23.8,0l0,0c20.6,13.4,34.2,27.1,46.2,39.1c45.4,45.3,60,100.2,45.3,172.2
				l55,53.9c1.7,1.7,3,2.9,4.1,3.8c7.5,6.5,7.4,11.8,4.5,19.6c-0.4,1.1-0.9,2.5-1.5,4.1L407,413.4c-0.5,1.5-1,2.9-1.3,4
				c-1.5,4.7-3.3,10.6-10.1,12.2s-11.1-2.8-14.9-6.7c-0.6-0.8-1.5-1.5-2.4-2.5l-47.2-47c-1.4,3.8-2.7,7.7-3.9,11.4
				c-3,9.1-11.4,15.1-20.9,15.1h-63.1c-9.5,0-17.9-6-20.9-15.1c-1.2-3.7-2.5-7.4-3.9-11.4l-47.1,47.1c-1,1-1.8,1.9-2.6,2.7
				C165.4,426.6,161.7,430.3,156.4,430.3z M128.8,304.2c0.1,0.2,0.1,0.4,0.2,0.5c0.3,1.1,0.8,2.3,1.2,3.6l30.2,92.5l66.6-66.6
				l5.8,15.9c4,10.9,7.1,19.7,9.9,27.9c0.1,0.2,0.2,0.3,0.4,0.3h63.1c0.2,0,0.3-0.1,0.4-0.3c3.1-9.4,6.6-18.9,9.9-27.9l5.8-15.9
				l66.1,66.1l31.2-94.5c0.3-1,0.6-1.9,1-2.7c-0.9-0.8-1.7-1.6-2.8-2.7l-63.4-62.2l1.3-5.8c7-31.6,8.1-58.7,3.3-82.7
				c-5.6-28.4-19.2-53.1-41.6-75.5c-11.8-11.9-23.9-24.2-42.6-36.2l0,0c-0.1-0.1-0.2-0.1-0.3,0c-18.4,12-30.2,23.6-42.6,36.1
				c-41.7,41.7-53.6,90.6-38.4,158.3l1.3,5.8l-62.8,62.8c-1.2,1.2-2.2,2.2-3,2.9C129,304,128.9,304,128.8,304.2z"/>
		</defs>
		<clipPath id="SVGID_4_">
			<use xlink:href="#SVGID_3_"  style="overflow:visible;"/>
		</clipPath>
		<polygon class="st3" points="-19.7,77 -77.9,255.8 -19.7,473.1 197.6,531.4 356.7,372.3 298.4,155 		"/>
	</g>
	<g>
		<defs>
			<path id="SVGID_5_" d="M156.4,430.3c-0.9,0-1.8-0.1-2.8-0.3c-6.9-1.6-8.8-7.7-10.6-13c-0.3-0.9-0.6-1.9-1-3l-32.2-98.8
				c-0.4-1.3-0.8-2.4-1.1-3.3c-3.8-11-2.7-15.4,5.5-23.4c0.8-0.8,1.7-1.6,2.7-2.7l54.5-54.5c-9.7-46.8-13.6-113.3,45.5-172.4
				c12.6-12.6,25.8-25.8,46.2-38.9c7.2-4.6,16.6-4.6,23.8,0l0,0c20.6,13.4,34.2,27.1,46.2,39.1c45.4,45.3,60,100.2,45.3,172.2
				l55,53.9c1.7,1.7,3,2.9,4.1,3.8c7.5,6.5,7.4,11.8,4.5,19.6c-0.4,1.1-0.9,2.5-1.5,4.1L407,413.4c-0.5,1.5-1,2.9-1.3,4
				c-1.5,4.7-3.3,10.6-10.1,12.2s-11.1-2.8-14.9-6.7c-0.6-0.8-1.5-1.5-2.4-2.5l-47.2-47c-1.4,3.8-2.7,7.7-3.9,11.4
				c-3,9.1-11.4,15.1-20.9,15.1h-63.1c-9.5,0-17.9-6-20.9-15.1c-1.2-3.7-2.5-7.4-3.9-11.4l-47.1,47.1c-1,1-1.8,1.9-2.6,2.7
				C165.4,426.6,161.7,430.3,156.4,430.3z M128.8,304.2c0.1,0.2,0.1,0.4,0.2,0.5c0.3,1.1,0.8,2.3,1.2,3.6l30.2,92.5l66.6-66.6
				l5.8,15.9c4,10.9,7.1,19.7,9.9,27.9c0.1,0.2,0.2,0.3,0.4,0.3h63.1c0.2,0,0.3-0.1,0.4-0.3c3.1-9.4,6.6-18.9,9.9-27.9l5.8-15.9
				l66.1,66.1l31.2-94.5c0.3-1,0.6-1.9,1-2.7c-0.9-0.8-1.7-1.6-2.8-2.7l-63.4-62.2l1.3-5.8c7-31.6,8.1-58.7,3.3-82.7
				c-5.6-28.4-19.2-53.1-41.6-75.5c-11.8-11.9-23.9-24.2-42.6-36.2l0,0c-0.1-0.1-0.2-0.1-0.3,0c-18.4,12-30.2,23.6-42.6,36.1
				c-41.7,41.7-53.6,90.6-38.4,158.3l1.3,5.8l-62.8,62.8c-1.2,1.2-2.2,2.2-3,2.9C129,304,128.9,304,128.8,304.2z"/>
		</defs>
		<clipPath id="SVGID_6_">
			<use xlink:href="#SVGID_5_"  style="overflow:visible;"/>
		</clipPath>
		<polyline class="st4" points="524.2,358.4 314.9,296 165.9,445 221.3,603 		"/>
	</g>
	<g>
		<defs>
			<path id="SVGID_7_" d="M156.4,430.3c-0.9,0-1.8-0.1-2.8-0.3c-6.9-1.6-8.8-7.7-10.6-13c-0.3-0.9-0.6-1.9-1-3l-32.2-98.8
				c-0.4-1.3-0.8-2.4-1.1-3.3c-3.8-11-2.7-15.4,5.5-23.4c0.8-0.8,1.7-1.6,2.7-2.7l54.5-54.5c-9.7-46.8-13.6-113.3,45.5-172.4
				c12.6-12.6,25.8-25.8,46.2-38.9c7.2-4.6,16.6-4.6,23.8,0l0,0c20.6,13.4,34.2,27.1,46.2,39.1c45.4,45.3,60,100.2,45.3,172.2
				l55,53.9c1.7,1.7,3,2.9,4.1,3.8c7.5,6.5,7.4,11.8,4.5,19.6c-0.4,1.1-0.9,2.5-1.5,4.1L407,413.4c-0.5,1.5-1,2.9-1.3,4
				c-1.5,4.7-3.3,10.6-10.1,12.2s-11.1-2.8-14.9-6.7c-0.6-0.8-1.5-1.5-2.4-2.5l-47.2-47c-1.4,3.8-2.7,7.7-3.9,11.4
				c-3,9.1-11.4,15.1-20.9,15.1h-63.1c-9.5,0-17.9-6-20.9-15.1c-1.2-3.7-2.5-7.4-3.9-11.4l-47.1,47.1c-1,1-1.8,1.9-2.6,2.7
				C165.4,426.6,161.7,430.3,156.4,430.3z M128.8,304.2c0.1,0.2,0.1,0.4,0.2,0.5c0.3,1.1,0.8,2.3,1.2,3.6l30.2,92.5l66.6-66.6
				l5.8,15.9c4,10.9,7.1,19.7,9.9,27.9c0.1,0.2,0.2,0.3,0.4,0.3h63.1c0.2,0,0.3-0.1,0.4-0.3c3.1-9.4,6.6-18.9,9.9-27.9l5.8-15.9
				l66.1,66.1l31.2-94.5c0.3-1,0.6-1.9,1-2.7c-0.9-0.8-1.7-1.6-2.8-2.7l-63.4-62.2l1.3-5.8c7-31.6,8.1-58.7,3.3-82.7
				c-5.6-28.4-19.2-53.1-41.6-75.5c-11.8-11.9-23.9-24.2-42.6-36.2l0,0c-0.1-0.1-0.2-0.1-0.3,0c-18.4,12-30.2,23.6-42.6,36.1
				c-41.7,41.7-53.6,90.6-38.4,158.3l1.3,5.8l-62.8,62.8c-1.2,1.2-2.2,2.2-3,2.9C129,304,128.9,304,128.8,304.2z"/>
		</defs>
		<clipPath id="SVGID_8_">
			<use xlink:href="#SVGID_7_"  style="overflow:visible;"/>
		</clipPath>
		<polygon class="st5" points="106.3,-151 -22.7,-37.3 21.3,166.1 204.4,215.1 338.5,81.2 289.4,-102 		"/>
	</g>
</g>
<g>
	<polygon class="st0" points="230.3,132.2 319.3,165.6 319.3,220.2 230.3,187.9 	"/>
	<polygon class="st1" points="230.3,215.7 319.3,165.6 319.3,220.2 274.7,242.4 	"/>
	<polygon class="st1" points="319.3,136.6 230.3,187.9 230.3,132.2 274.7,109.9 	"/>
</g>
<g>
	<g>
		<path id="SVGID_9_" class="st0" d="M576-109l-109.4-34.8v-151.3L576-329.9V-109z"/>
	</g>
	<g>
		<defs>
			<polygon id="SVGID_10_" points="576,-109 466.6,-143.8 466.6,-295.1 576,-329.9 			"/>
		</defs>
		<clipPath id="SVGID_12_">
			<use xlink:href="#SVGID_10_"  style="overflow:visible;"/>
		</clipPath>
		<polygon class="st6" points="629.3,-106.1 479.2,-34.4 348.7,-144 368.2,-325.3 518.3,-397 648.8,-287.4 		"/>
	</g>
</g>
<g>
	<g>
		<path id="SVGID_11_" class="st1" d="M513.8-109l-109.4-34.8v-151.3l109.4-34.8V-109z"/>
	</g>
	<g>
		<defs>
			<polygon id="SVGID_13_" points="513.8,-109 404.4,-143.8 404.4,-295.1 513.8,-329.9 			"/>
		</defs>
		<clipPath id="SVGID_14_">
			<use xlink:href="#SVGID_13_"  style="overflow:visible;"/>
		</clipPath>
		<polygon class="st7" points="567.1,-106.1 417,-34.4 286.4,-144 306,-325.3 456,-397 586.6,-287.4 		"/>
	</g>
</g>
<g>
	<g>
		<path id="SVGID_15_" class="st8" d="M447.9-109l-109.4-34.8v-151.3l109.4-34.8V-109z"/>
	</g>
	<g>
		<defs>
			<polygon id="SVGID_16_" points="447.9,-109 338.5,-143.8 338.5,-295.1 447.9,-329.9 			"/>
		</defs>
		<clipPath id="SVGID_17_">
			<use xlink:href="#SVGID_16_"  style="overflow:visible;"/>
		</clipPath>
		<polygon class="st9" points="501.2,-106.1 351.1,-34.4 220.6,-144 240.1,-325.3 390.2,-397 520.8,-287.4 		"/>
	</g>
</g>
<polygon class="st0" points="83.8,-127.6 -35.3,-178.3 83.8,-230.1 202.9,-178.3 "/>
<polygon class="st1" points="81.9,-151 -37.3,-201.7 81.9,-253.5 201,-201.7 "/>
<polygon class="st8" points="81.9,-172.8 -37.3,-223.4 81.9,-275.3 201,-223.4 "/>
<polygon class="st8" points="798.7,-200.7 672,-254.6 798.7,-309.7 925.5,-254.6 "/>
<polygon class="st8" points="800.8,7.6 674.1,-46.9 674.1,-138.7 800.8,-84.2 "/>
<polygon class="st0" points="927.5,-46.9 800.8,7.6 800.8,-84.2 927.5,-138.7 "/>
</svg>
