<?xml version="1.0" encoding="utf-8"?>
<!-- Generator: Adobe Illustrator 22.0.1, SVG Export Plug-In . SVG Version: 6.00 Build 0)  -->
<svg version="1.1" id="Layer_1" xmlns="http://www.w3.org/2000/svg" xmlns:xlink="http://www.w3.org/1999/xlink" x="0px" y="0px"
	 viewBox="0 0 500.2 449" style="enable-background:new 0 0 500.2 449;" xml:space="preserve">
<style type="text/css">
	.st0{clip-path:url(#SVGID_6_);fill:#80DD73;}
	.st1{clip-path:url(#SVGID_8_);fill:#BF6ED3;}
	.st2{clip-path:url(#SVGID_12_);fill:#6EBEEA;}
	.st3{clip-path:url(#SVGID_14_);fill:#F2C453;}
	.st4{clip-path:url(#SVGID_17_);fill:#BF6ED3;}
	.st5{clip-path:url(#SVGID_19_);fill:#80DD73;}
	.st6{clip-path:url(#SVGID_21_);fill:#6EBEEA;}
	.st7{clip-path:url(#SVGID_23_);fill:#F2C453;}
	.st8{clip-path:url(#SVGID_25_);fill:#BF6ED3;}
	.st9{clip-path:url(#SVGID_27_);fill:#80DD73;}
	.st10{clip-path:url(#SVGID_29_);fill:#6EBEEA;}
	.st11{clip-path:url(#SVGID_31_);fill:#F2C453;}
	.st12{clip-path:url(#SVGID_33_);fill:#BF6ED3;}
	.st13{clip-path:url(#SVGID_35_);fill:#80DD73;}
	.st14{clip-path:url(#SVGID_37_);fill:#6EBEEA;}
	.st15{clip-path:url(#SVGID_39_);fill:#F2C453;}
	.st16{fill:#DD4E55;}
	.st17{clip-path:url(#SVGID_41_);fill:#DD4E55;}
	.st18{fill:#F15C5E;}
	.st19{clip-path:url(#SVGID_43_);fill:#F15C5E;}
	.st20{clip-path:url(#SVGID_45_);fill:#BF6ED3;}
	.st21{clip-path:url(#SVGID_47_);fill:#80DD73;}
	.st22{clip-path:url(#SVGID_49_);fill:#6EBEEA;}
	.st23{clip-path:url(#SVGID_51_);fill:#F2C453;}
	.st24{fill:#F96B6B;}
	.st25{clip-path:url(#SVGID_53_);fill:#F96B6B;}
	.st26{fill:#CC4652;}
	.st27{clip-path:url(#SVGID_55_);fill:#CC4652;}
	.st28{clip-path:url(#SVGID_57_);fill:#DD4E55;}
	.st29{clip-path:url(#SVGID_59_);fill:#BF6ED3;}
	.st30{clip-path:url(#SVGID_61_);fill:#80DD73;}
	.st31{clip-path:url(#SVGID_63_);fill:#6EBEEA;}
	.st32{clip-path:url(#SVGID_65_);fill:#F2C453;}
	.st33{clip-path:url(#SVGID_67_);fill:#F15C5E;}
	.st34{clip-path:url(#SVGID_69_);fill:#F96B6B;}
	.st35{clip-path:url(#SVGID_71_);fill:#80DD73;}
	.st36{clip-path:url(#SVGID_71_);fill:#BF6ED3;}
	.st37{clip-path:url(#SVGID_71_);fill:#F2C453;}
	.st38{clip-path:url(#SVGID_71_);fill:#6EBEEA;}
	.st39{clip-path:url(#SVGID_73_);fill:#80DD73;}
	.st40{clip-path:url(#SVGID_73_);fill:#BF6ED3;}
	.st41{clip-path:url(#SVGID_73_);fill:#6EBEEA;}
	.st42{clip-path:url(#SVGID_73_);fill:#F2C453;}
	.st43{fill:none;stroke:#F2C453;stroke-width:21;stroke-miterlimit:10;}
</style>
<g>
	<g>
		<defs>
			<path id="SVGID_5_" d="M782.6-115.6l-153.3-88.5v-177l153.3-88.5l153.3,88.5v177L782.6-115.6z M650.3-216.3l132.3,76.4
				l132.3-76.4v-152.8l-132.3-76.4l-132.3,76.4V-216.3z"/>
		</defs>
		<clipPath id="SVGID_6_">
			<use xlink:href="#SVGID_5_"  style="overflow:visible;"/>
		</clipPath>
		<polygon class="st0" points="875.9,-465.6 736.7,-433.2 695.1,-296.5 792.8,-192.1 932,-224.5 973.5,-361.3 		"/>
	</g>
	<g>
		<defs>
			<path id="SVGID_7_" d="M782.6-115.6l-153.3-88.5v-177l153.3-88.5l153.3,88.5v177L782.6-115.6z M650.3-216.3l132.3,76.4
				l132.3-76.4v-152.8l-132.3-76.4l-132.3,76.4V-216.3z"/>
		</defs>
		<clipPath id="SVGID_8_">
			<use xlink:href="#SVGID_7_"  style="overflow:visible;"/>
		</clipPath>
		<polygon class="st1" points="617,-417.7 577.5,-296.4 616.9,-149.1 764.3,-109.6 872.1,-217.5 832.6,-364.8 		"/>
	</g>
	<g>
		<defs>
			<path id="SVGID_10_" d="M782.6-115.6l-153.3-88.5v-177l153.3-88.5l153.3,88.5v177L782.6-115.6z M650.3-216.3l132.3,76.4
				l132.3-76.4v-152.8l-132.3-76.4l-132.3,76.4V-216.3z"/>
		</defs>
		<clipPath id="SVGID_12_">
			<use xlink:href="#SVGID_10_"  style="overflow:visible;"/>
		</clipPath>
		<polyline class="st2" points="965.1,-226.3 823.2,-268.6 722.2,-167.6 759.8,-60.5 		"/>
	</g>
	<g>
		<defs>
			<path id="SVGID_13_" d="M782.6-115.6l-153.3-88.5v-177l153.3-88.5l153.3,88.5v177L782.6-115.6z M650.3-216.3l132.3,76.4
				l132.3-76.4v-152.8l-132.3-76.4l-132.3,76.4V-216.3z"/>
		</defs>
		<clipPath id="SVGID_14_">
			<use xlink:href="#SVGID_13_"  style="overflow:visible;"/>
		</clipPath>
		<polygon class="st3" points="707.4,-491.3 619.9,-414.1 649.8,-276.3 774,-243 864.8,-333.9 831.6,-458 		"/>
	</g>
</g>
<g>
	<g>
		<defs>
			<path id="SVGID_16_" d="M141.2-128.8l-199-56.6v-246l199-56.6V-128.8z M-40.8-198.3l165,47v-314.3l-165,47
				C-40.8-418.6-40.8-198.3-40.8-198.3z"/>
		</defs>
		<clipPath id="SVGID_17_">
			<use xlink:href="#SVGID_16_"  style="overflow:visible;"/>
		</clipPath>
		<polygon class="st4" points="36,-298.2 -118.4,-232.2 -252.8,-333 -232.7,-499.7 -78.2,-565.7 56.1,-464.9 		"/>
	</g>
	<g>
		<defs>
			<path id="SVGID_18_" d="M141.2-128.8l-199-56.6v-246l199-56.6V-128.8z M-40.8-198.3l165,47v-314.3l-165,47
				C-40.8-418.6-40.8-198.3-40.8-198.3z"/>
		</defs>
		<clipPath id="SVGID_19_">
			<use xlink:href="#SVGID_18_"  style="overflow:visible;"/>
		</clipPath>
		<polygon class="st5" points="277,-347.2 122.6,-281.2 -11.8,-382 8.3,-548.7 162.8,-614.7 297.1,-513.9 		"/>
	</g>
	<g>
		<defs>
			<path id="SVGID_20_" d="M141.2-128.8l-199-56.6v-246l199-56.6V-128.8z M-40.8-198.3l165,47v-314.3l-165,47
				C-40.8-418.6-40.8-198.3-40.8-198.3z"/>
		</defs>
		<clipPath id="SVGID_21_">
			<use xlink:href="#SVGID_20_"  style="overflow:visible;"/>
		</clipPath>
		<polygon class="st6" points="132,-122.2 -22.4,-56.2 -156.8,-157 -136.7,-323.7 17.8,-389.7 152.1,-288.9 		"/>
	</g>
	<g>
		<defs>
			<path id="SVGID_22_" d="M141.2-128.8l-199-56.6v-246l199-56.6V-128.8z M-40.8-198.3l165,47v-314.3l-165,47
				C-40.8-418.6-40.8-198.3-40.8-198.3z"/>
		</defs>
		<clipPath id="SVGID_23_">
			<use xlink:href="#SVGID_22_"  style="overflow:visible;"/>
		</clipPath>
		<polygon class="st7" points="248,-94.2 93.6,-28.2 -40.8,-129 -20.7,-295.7 133.8,-361.7 268.1,-260.9 		"/>
	</g>
</g>
<g>
	<g>
		<defs>
			<path id="SVGID_24_" d="M176.7-159.5l-165-47v-204l165-47V-159.5z M25.8-217.1l136.8,38.9v-260.6l-136.8,39V-217.1z"/>
		</defs>
		<clipPath id="SVGID_25_">
			<use xlink:href="#SVGID_24_"  style="overflow:visible;"/>
		</clipPath>
		<polygon class="st8" points="89.5,-299.9 -38.6,-245.3 -150,-328.8 -133.3,-467.1 -5.2,-521.7 106.1,-438.2 		"/>
	</g>
	<g>
		<defs>
			<path id="SVGID_26_" d="M176.7-159.5l-165-47v-204l165-47V-159.5z M25.8-217.1l136.8,38.9v-260.6l-136.8,39V-217.1z"/>
		</defs>
		<clipPath id="SVGID_27_">
			<use xlink:href="#SVGID_26_"  style="overflow:visible;"/>
		</clipPath>
		<polygon class="st9" points="289.3,-340.6 161.2,-285.9 49.9,-369.4 66.5,-507.7 194.6,-562.4 306,-478.8 		"/>
	</g>
	<g>
		<defs>
			<path id="SVGID_28_" d="M176.7-159.5l-165-47v-204l165-47V-159.5z M25.8-217.1l136.8,38.9v-260.6l-136.8,39V-217.1z"/>
		</defs>
		<clipPath id="SVGID_29_">
			<use xlink:href="#SVGID_28_"  style="overflow:visible;"/>
		</clipPath>
		<polygon class="st10" points="169.1,-154 41,-99.3 -70.4,-182.9 -53.7,-321.1 74.4,-375.8 185.7,-292.3 		"/>
	</g>
	<g>
		<defs>
			<path id="SVGID_30_" d="M176.7-159.5l-165-47v-204l165-47V-159.5z M25.8-217.1l136.8,38.9v-260.6l-136.8,39V-217.1z"/>
		</defs>
		<clipPath id="SVGID_31_">
			<use xlink:href="#SVGID_30_"  style="overflow:visible;"/>
		</clipPath>
		<polygon class="st11" points="265.3,-130.8 137.2,-76.1 25.8,-159.7 42.5,-297.9 170.5,-352.6 281.9,-269 		"/>
	</g>
</g>
<g>
	<g>
		<defs>
			<path id="SVGID_32_" d="M217.7-184.8l-137-39v-169.4l137-39V-184.8z M92.4-232.6L206-200.3v-216.4L92.4-384.3V-232.6z"/>
		</defs>
		<clipPath id="SVGID_33_">
			<use xlink:href="#SVGID_32_"  style="overflow:visible;"/>
		</clipPath>
		<polygon class="st12" points="145.3,-301.4 39,-256 -53.5,-325.4 -39.7,-440.1 66.6,-485.5 159.1,-416.2 		"/>
	</g>
	<g>
		<defs>
			<path id="SVGID_34_" d="M217.7-184.8l-137-39v-169.4l137-39V-184.8z M92.4-232.6L206-200.3v-216.4L92.4-384.3V-232.6z"/>
		</defs>
		<clipPath id="SVGID_35_">
			<use xlink:href="#SVGID_34_"  style="overflow:visible;"/>
		</clipPath>
		<polygon class="st13" points="311.2,-335.1 204.9,-289.7 112.4,-359.1 126.2,-473.9 232.5,-519.3 325,-449.9 		"/>
	</g>
	<g>
		<defs>
			<path id="SVGID_36_" d="M217.7-184.8l-137-39v-169.4l137-39V-184.8z M92.4-232.6L206-200.3v-216.4L92.4-384.3V-232.6z"/>
		</defs>
		<clipPath id="SVGID_37_">
			<use xlink:href="#SVGID_36_"  style="overflow:visible;"/>
		</clipPath>
		<polygon class="st14" points="211.4,-180.2 105,-134.8 12.6,-204.2 26.4,-319 132.7,-364.4 225.2,-295 		"/>
	</g>
	<g>
		<defs>
			<path id="SVGID_38_" d="M217.7-184.8l-137-39v-169.4l137-39V-184.8z M92.4-232.6L206-200.3v-216.4L92.4-384.3V-232.6z"/>
		</defs>
		<clipPath id="SVGID_39_">
			<use xlink:href="#SVGID_38_"  style="overflow:visible;"/>
		</clipPath>
		<polygon class="st15" points="291.2,-161 184.9,-115.5 92.4,-184.9 106.3,-299.7 212.6,-345.1 305.1,-275.7 		"/>
	</g>
</g>
<g>
	<g>
		<path id="SVGID_9_" class="st16" d="M-253.1-309l-109.4-34.8v-151.3l109.4-34.8V-309z"/>
	</g>
	<g>
		<defs>
			<polygon id="SVGID_40_" points="-253.1,-309 -362.5,-343.8 -362.5,-495.1 -253.1,-529.9 			"/>
		</defs>
		<clipPath id="SVGID_41_">
			<use xlink:href="#SVGID_40_"  style="overflow:visible;"/>
		</clipPath>
		<polygon class="st17" points="-199.8,-306.1 -349.9,-234.4 -480.4,-344 -460.9,-525.3 -310.8,-597 -180.3,-487.4 		"/>
	</g>
</g>
<g>
	<g>
		<path id="SVGID_11_" class="st18" d="M-315.3-309l-109.4-34.8v-151.3l109.4-34.8V-309z"/>
	</g>
	<g>
		<defs>
			<polygon id="SVGID_42_" points="-315.3,-309 -424.7,-343.8 -424.7,-495.1 -315.3,-529.9 			"/>
		</defs>
		<clipPath id="SVGID_43_">
			<use xlink:href="#SVGID_42_"  style="overflow:visible;"/>
		</clipPath>
		<polygon class="st19" points="-262,-306.1 -412.1,-234.4 -542.7,-344 -523.1,-525.3 -373.1,-597 -242.5,-487.4 		"/>
	</g>
</g>
<g>
	<g>
		<defs>
			<path id="SVGID_44_" d="M-273.2-245l-193.3-55v-239l193.3-55V-245z M-450-312.4l160.3,45.6v-305.3L-450-526.5V-312.4z"/>
		</defs>
		<clipPath id="SVGID_45_">
			<use xlink:href="#SVGID_44_"  style="overflow:visible;"/>
		</clipPath>
		<polygon class="st20" points="-375.3,-409.5 -525.3,-345.4 -655.8,-443.3 -636.3,-605.3 -486.3,-669.3 -355.8,-571.4 		"/>
	</g>
	<g>
		<defs>
			<path id="SVGID_46_" d="M-273.2-245l-193.3-55v-239l193.3-55V-245z M-450-312.4l160.3,45.6v-305.3L-450-526.5V-312.4z"/>
		</defs>
		<clipPath id="SVGID_47_">
			<use xlink:href="#SVGID_46_"  style="overflow:visible;"/>
		</clipPath>
		<polygon class="st21" points="-141.2,-457.1 -291.2,-393 -421.7,-490.9 -402.2,-652.9 -252.2,-716.9 -121.7,-619 		"/>
	</g>
	<g>
		<defs>
			<path id="SVGID_48_" d="M-273.2-245l-193.3-55v-239l193.3-55V-245z M-450-312.4l160.3,45.6v-305.3L-450-526.5V-312.4z"/>
		</defs>
		<clipPath id="SVGID_49_">
			<use xlink:href="#SVGID_48_"  style="overflow:visible;"/>
		</clipPath>
		<polygon class="st22" points="-282.1,-238.5 -432.1,-174.5 -562.6,-272.3 -543.1,-434.3 -393,-498.4 -262.6,-400.5 		"/>
	</g>
	<g>
		<defs>
			<path id="SVGID_50_" d="M-273.2-245l-193.3-55v-239l193.3-55V-245z M-450-312.4l160.3,45.6v-305.3L-450-526.5V-312.4z"/>
		</defs>
		<clipPath id="SVGID_51_">
			<use xlink:href="#SVGID_50_"  style="overflow:visible;"/>
		</clipPath>
		<polygon class="st23" points="-169.4,-211.3 -319.4,-147.3 -449.9,-245.2 -430.4,-407.1 -280.4,-471.2 -149.9,-373.3 		"/>
	</g>
</g>
<g>
	<g>
		<path id="SVGID_15_" class="st24" d="M-381.2-309l-109.4-34.8v-151.3l109.4-34.8V-309z"/>
	</g>
	<g>
		<defs>
			<polygon id="SVGID_52_" points="-381.2,-309 -490.6,-343.8 -490.6,-495.1 -381.2,-529.9 			"/>
		</defs>
		<clipPath id="SVGID_53_">
			<use xlink:href="#SVGID_52_"  style="overflow:visible;"/>
		</clipPath>
		<polygon class="st25" points="-327.9,-306.1 -478,-234.4 -608.5,-344 -589,-525.3 -438.9,-597 -308.3,-487.4 		"/>
	</g>
</g>
<g>
	<polygon class="st16" points="369.6,-145.6 452.8,-114.4 452.8,-63.4 369.6,-93.6 	"/>
	<polygon class="st18" points="369.6,-67.6 452.8,-114.4 452.8,-63.4 411.2,-42.6 	"/>
	<polygon class="st18" points="452.8,-141.5 369.6,-93.6 369.6,-145.6 411.2,-166.4 	"/>
</g>
<g>
	<g>
		<path id="SVGID_4_" class="st26" d="M-333.9,109.7L-408.2,86V-16.7l74.3-23.7V109.7z"/>
	</g>
	<g>
		<defs>
			<polygon id="SVGID_54_" points="-333.9,109.7 -408.2,86 -408.2,-16.7 -333.9,-40.4 			"/>
		</defs>
		<clipPath id="SVGID_55_">
			<use xlink:href="#SVGID_54_"  style="overflow:visible;"/>
		</clipPath>
		<polygon class="st27" points="-297.8,111.6 -399.8,160.3 -488.4,85.9 -475.1,-37.2 -373.1,-85.9 -284.5,-11.5 		"/>
	</g>
</g>
<g>
	<g>
		<path id="SVGID_3_" class="st16" d="M-377.4,110.6l-75.3-24v-104l75.3-24V110.6z"/>
	</g>
	<g>
		<defs>
			<polygon id="SVGID_56_" points="-377.4,110.6 -452.7,86.6 -452.7,-17.4 -377.4,-41.4 			"/>
		</defs>
		<clipPath id="SVGID_57_">
			<use xlink:href="#SVGID_56_"  style="overflow:visible;"/>
		</clipPath>
		<polygon class="st28" points="-340.8,112.6 -444,161.9 -533.8,86.5 -520.3,-38.1 -417.1,-87.4 -327.4,-12.1 		"/>
	</g>
</g>
<g>
	<g>
		<defs>
			<path id="SVGID_58_" d="M-327.4,209.1l-193.3-55v-239l193.3-55V209.1z M-502.8,139.8l157.5,44.8v-300l-157.5,44.9V139.8z"/>
		</defs>
		<clipPath id="SVGID_59_">
			<use xlink:href="#SVGID_58_"  style="overflow:visible;"/>
		</clipPath>
		<polygon class="st29" points="-429.4,44.6 -579.5,108.7 -710,10.8 -690.5,-151.2 -540.5,-215.2 -409.9,-117.3 		"/>
	</g>
	<g>
		<defs>
			<path id="SVGID_60_" d="M-327.4,209.1l-193.3-55v-239l193.3-55V209.1z M-502.8,139.8l157.5,44.8v-300l-157.5,44.9V139.8z"/>
		</defs>
		<clipPath id="SVGID_61_">
			<use xlink:href="#SVGID_60_"  style="overflow:visible;"/>
		</clipPath>
		<polygon class="st30" points="-195.4,-3 -345.4,61.1 -475.9,-36.8 -456.4,-198.8 -306.4,-262.8 -175.9,-164.9 		"/>
	</g>
	<g>
		<defs>
			<path id="SVGID_62_" d="M-327.4,209.1l-193.3-55v-239l193.3-55V209.1z M-502.8,139.8l157.5,44.8v-300l-157.5,44.9V139.8z"/>
		</defs>
		<clipPath id="SVGID_63_">
			<use xlink:href="#SVGID_62_"  style="overflow:visible;"/>
		</clipPath>
		<polygon class="st31" points="-336.2,215.6 -486.2,279.6 -616.8,181.8 -597.2,19.8 -447.1,-44.3 -316.8,53.6 		"/>
	</g>
	<g>
		<defs>
			<path id="SVGID_64_" d="M-327.4,209.1l-193.3-55v-239l193.3-55V209.1z M-502.8,139.8l157.5,44.8v-300l-157.5,44.9V139.8z"/>
		</defs>
		<clipPath id="SVGID_65_">
			<use xlink:href="#SVGID_64_"  style="overflow:visible;"/>
		</clipPath>
		<polygon class="st32" points="-223.5,242.8 -373.5,306.8 -504,208.9 -484.5,47 -334.5,-17.1 -204.1,80.8 		"/>
	</g>
</g>
<g>
	<g>
		<path id="SVGID_2_" class="st18" d="M-419.9,112.6L-497.1,88V-18.8l77.2-24.6V112.6z"/>
	</g>
	<g>
		<defs>
			<polygon id="SVGID_66_" points="-419.9,112.6 -497.1,88 -497.1,-18.8 -419.9,-43.4 			"/>
		</defs>
		<clipPath id="SVGID_67_">
			<use xlink:href="#SVGID_66_"  style="overflow:visible;"/>
		</clipPath>
		<polygon class="st33" points="-382.4,114.6 -488.2,165.3 -580.5,87.9 -566.7,-40 -460.6,-90.7 -368.5,-13.3 		"/>
	</g>
</g>
<g>
	<g>
		<path id="SVGID_1_" class="st24" d="M-465.2,114.6l-79.2-25.2V-20.1l79.2-25.2V114.6z"/>
	</g>
	<g>
		<defs>
			<polygon id="SVGID_68_" points="-465.2,114.6 -544.5,89.4 -544.5,-20.1 -465.2,-45.3 			"/>
		</defs>
		<clipPath id="SVGID_69_">
			<use xlink:href="#SVGID_68_"  style="overflow:visible;"/>
		</clipPath>
		<polygon class="st34" points="-426.6,116.7 -535.3,168.6 -629.8,89.3 -615.7,-42 -507,-93.9 -412.4,-14.6 		"/>
	</g>
</g>
<g>
	<polygon class="st16" points="235.6,165.6 323.8,198.6 323.8,252.6 235.6,220.6 	"/>
	<polygon class="st18" points="235.6,248.2 323.8,198.6 323.8,252.6 279.7,274.7 	"/>
	<polygon class="st18" points="323.8,170 235.6,220.6 235.6,165.6 279.7,143.5 	"/>
</g>
<g>
	<defs>
		<path id="SVGID_70_" d="M441.5,149c31.6,72.2-1.4,156.7-73.6,188.3s-156.7-1.4-188.3-73.6c-31.6-72.2,1.4-156.7,73.6-188.3
			S409.9,76.7,441.5,149z M198.3,255.5c27.1,61.9,99.4,90.1,161.3,63.1s90.1-99.4,63.1-161.3c-27.1-61.9-99.4-90.1-161.3-63.1
			S171.3,193.6,198.3,255.5z"/>
	</defs>
	<clipPath id="SVGID_71_">
		<use xlink:href="#SVGID_70_"  style="overflow:visible;"/>
	</clipPath>
	<polygon class="st35" points="476.4,121.3 568.4,252 501.2,397.1 342,411.4 250,280.7 317.1,135.7 	"/>
	<polygon class="st36" points="318.4,-134.3 487.1,-86.3 551.4,76.9 446.9,192.1 278.3,144.1 214,-19.1 	"/>
	<polygon class="st37" points="201.3,104.1 352.4,156.3 382.6,313.3 261.8,418 110.8,365.7 80.5,208.8 	"/>
	<polygon class="st38" points="230.1,4.5 294.2,150.9 199.5,279.7 40.6,262 -23.5,115.5 71.2,-13.2 	"/>
</g>
<g>
	<defs>
		<path id="SVGID_72_" d="M280.5,346c-10,2.2-20,3.3-30.7,3.3c-78.9,0-143-64.1-143-143s64.1-143,143-143s143,64.1,143,143
			c0,51.3-27.2,96.4-67.8,121.6c0,0-17.9,0.9-23.9,0.5c-5.3-0.4-20.8-3.5-20.8-3.5c52.8-13.6,92-61.6,92-118.6
			c0-67.5-54.9-122.5-122.5-122.5s-122.5,54.9-122.5,122.5c0,62.6,47.3,114.4,108,121.6c0,0,4.7,3.2,19.1,9.9
			C268.9,344,280.5,346,280.5,346z M325,327.9c0,0-9.3,1.6-23.9,0.5c-9.7-0.6-20.8-3.5-20.8-3.5"/>
	</defs>
	<clipPath id="SVGID_73_">
		<use xlink:href="#SVGID_72_"  style="overflow:visible;"/>
	</clipPath>
	<polygon class="st39" points="276,-29.3 167.5,79.2 207.2,227.3 355.3,266.9 463.7,158.6 424.1,10.4 	"/>
	<polygon class="st40" points="89.7,212.4 25.2,351.5 113.3,477 266.1,463.3 330.6,324.1 242.3,198.7 	"/>
	<polygon class="st41" points="319.2,155.3 210.8,263.8 250.5,411.9 398.6,451.7 507.1,343.2 467.3,195 	"/>
	<polygon class="st42" points="50.7,-242 -52.4,-69.4 -14.7,166.1 126.2,229.4 229.3,56.8 191.5,-178.7 	"/>
</g>
<circle class="st43" cx="825.4" cy="145.6" r="142.2"/>
<circle class="st43" cx="760.4" cy="145.6" r="142.2"/>
</svg>
