<?xml version="1.0" encoding="utf-8"?>
<!-- Generator: Adobe Illustrator 22.0.1, SVG Export Plug-In . SVG Version: 6.00 Build 0)  -->
<svg version="1.1" id="Layer_1" xmlns="http://www.w3.org/2000/svg" xmlns:xlink="http://www.w3.org/1999/xlink" x="0px" y="0px"
	 viewBox="0 0 429 124.6" style="enable-background:new 0 0 429 124.6;" xml:space="preserve">
<style type="text/css">
	.st0{fill:none;stroke:#EBEBEB;stroke-width:4;stroke-miterlimit:10;}
	.st1{fill:#DD4E55;}
	.st2{fill:#F15C5E;}
	.st3{fill:#80DD73;}
	.st4{fill:#875BBA;}
	.st5{fill:#68A8DD;}
	.st6{fill:#F2C453;}
	.st7{fill:#FFFFFF;}
	.st8{fill:#5B8FB2;}
	.st9{fill:#9D63C6;}
	.st10{fill:#BF6ED3;}
	.st11{fill:#6EBEEA;}
	.st12{fill:none;stroke:#FFFFFF;stroke-width:80;stroke-miterlimit:10;}
	.st13{clip-path:url(#SVGID_2_);fill:#80DD73;}
	.st14{clip-path:url(#SVGID_4_);fill:#BF6ED3;}
	.st15{clip-path:url(#SVGID_6_);fill:#6EBEEA;}
	.st16{clip-path:url(#SVGID_8_);fill:#F2C453;}
</style>
<polygon class="st0" points="918.5,38.4 756.7,38.4 675.8,178.5 756.7,318.7 918.5,318.7 999.4,178.5 "/>
<polygon class="st1" points="781.2,122.9 893.9,165.1 893.9,234.2 781.2,193.3 "/>
<polygon class="st2" points="781.2,228.6 893.9,165.1 893.9,234.2 837.6,262.4 "/>
<polygon class="st2" points="893.9,128.5 781.2,193.3 781.2,122.9 837.6,94.7 "/>
<circle class="st0" cx="995.3" cy="178.5" r="44"/>
<ellipse transform="matrix(0.1602 -0.9871 0.9871 0.1602 459.2495 1169.9832)" class="st0" cx="917.2" cy="315.1" rx="44" ry="44"/>
<circle class="st0" cx="758.8" cy="315.1" r="44"/>
<circle class="st0" cx="679.9" cy="178.5" r="44"/>
<circle class="st0" cx="758.8" cy="42" r="44"/>
<ellipse transform="matrix(0.1602 -0.9871 0.9871 0.1602 728.8231 940.629)" class="st0" cx="917.2" cy="42" rx="44" ry="44"/>
<circle class="st0" cx="1003.3" cy="276.7" r="53.7"/>
<circle class="st0" cx="836.9" cy="372.4" r="53.7"/>
<circle class="st0" cx="670.2" cy="274.7" r="53.7"/>
<circle class="st0" cx="671.2" cy="82.2" r="53.7"/>
<circle class="st0" cx="838.6" cy="-12.9" r="53.7"/>
<circle class="st0" cx="1005.3" cy="84.8" r="53.7"/>
<circle class="st0" cx="1004" cy="275.5" r="53.7"/>
<circle class="st0" cx="837.6" cy="371.2" r="53.7"/>
<circle class="st0" cx="670.9" cy="273.5" r="53.7"/>
<circle class="st0" cx="672" cy="81" r="53.7"/>
<circle class="st0" cx="839.3" cy="-14.1" r="53.7"/>
<circle class="st0" cx="1006.1" cy="83.6" r="53.7"/>
<polygon class="st0" points="918.5,38.4 756.7,38.4 675.8,178.5 756.7,318.7 918.5,318.7 999.4,178.5 "/>
<polygon class="st3" points="681.3,-611 523.7,-574.4 476.7,-419.6 587.2,-301.4 744.8,-338.1 791.9,-492.9 "/>
<polygon class="st4" points="475,-516.1 360.6,-401.7 402.5,-245.4 558.8,-203.5 673.2,-317.9 631.3,-474.2 "/>
<polygon class="st5" points="577.7,-508.9 463.3,-394.5 505.1,-238.2 661.4,-196.3 775.8,-310.7 734,-467 "/>
<polygon class="st6" points="492.3,-612.5 377.9,-498.1 419.8,-341.8 576.1,-299.9 690.5,-414.3 648.6,-570.6 "/>
<polygon class="st7" points="436.7,-495.3 436.7,-333.5 576.9,-252.6 717,-333.5 717,-495.3 576.9,-576.2 "/>
<g>
	<polygon class="st1" points="516.9,-466.6 629.6,-424.4 629.6,-355.3 516.9,-396.2 	"/>
	<polygon class="st2" points="516.9,-360.9 629.6,-424.4 629.6,-355.3 573.3,-327.1 	"/>
	<polygon class="st2" points="629.6,-461 516.9,-396.2 516.9,-466.6 573.3,-494.8 	"/>
</g>
<circle class="st8" cx="40.3" cy="-333.4" r="73"/>
<circle class="st6" cx="109.2" cy="-505.7" r="73"/>
<circle class="st5" cx="168" cy="-341.9" r="73"/>
<circle class="st8" cx="42.8" cy="-466.5" r="68.9"/>
<circle class="st5" cx="155.8" cy="-499.7" r="85.3"/>
<circle class="st5" cx="111.6" cy="-375.3" r="68.9"/>
<circle class="st6" cx="205.3" cy="-401.5" r="68.9"/>
<circle class="st5" cx="34.3" cy="-362" r="86.8"/>
<circle class="st8" cx="144.3" cy="-297.5" r="83.9"/>
<circle class="st6" cx="75.4" cy="-521.3" r="68.9"/>
<g>
	<polygon class="st1" points="59.9,-457.2 172.6,-415 172.6,-345.9 59.9,-386.8 	"/>
	<polygon class="st2" points="59.9,-351.5 172.6,-415 172.6,-345.9 116.3,-317.7 	"/>
	<polygon class="st2" points="172.6,-451.6 59.9,-386.8 59.9,-457.2 116.3,-485.4 	"/>
</g>
<circle class="st6" cx="51.6" cy="-293.1" r="68.9"/>
<polygon class="st9" points="-397,-341.1 -450.7,-225.3 -377.3,-120.8 -250.1,-132.2 -196.4,-248 -269.8,-352.5 "/>
<polygon class="st5" points="-266.5,-391.2 -356.8,-301 -323.7,-177.6 -200.4,-144.6 -110.1,-234.9 -143.1,-358.2 "/>
<polygon class="st6" points="-350.4,-445.4 -440.7,-355.1 -407.7,-231.8 -284.3,-198.7 -194.1,-289 -227.1,-412.3 "/>
<polygon class="st7" points="-397.5,-340.9 -397.5,-211.4 -285.4,-146.6 -173.2,-211.4 -173.2,-340.9 -285.4,-405.6 "/>
<g>
	<polygon class="st1" points="-345.5,-328.5 -232.5,-286.1 -232.5,-216.8 -345.5,-257.9 	"/>
	<polygon class="st2" points="-345.5,-222.5 -232.5,-286.1 -232.5,-216.8 -289,-188.6 	"/>
	<polygon class="st2" points="-232.5,-322.8 -345.5,-257.9 -345.5,-328.5 -289,-356.7 	"/>
</g>
<polygon class="st3" points="-591.3,-39.3 -730.5,-6.9 -772,129.9 -674.4,234.2 -535.2,201.8 -493.6,65.1 "/>
<polygon class="st10" points="-781.8,22.1 -889.7,129.9 -850.2,277.3 -702.9,316.7 -595,208.9 -634.5,61.6 "/>
<polyline class="st11" points="-502.1,200.1 -643.9,157.7 -745,258.8 -707.4,365.9 "/>
<polygon class="st6" points="-760.4,-69.7 -851.3,21.1 -818.1,145.3 -693.9,178.5 -603,87.6 -636.3,-36.5 "/>
<polygon class="st7" points="-817.1,56.9 -817.1,210.5 -684.1,287.3 -551,210.5 -551,56.9 -684.1,-19.9 "/>
<g>
	<polygon class="st1" points="-749.7,74 -624.3,121 -624.3,197.8 -749.7,152.3 	"/>
	<polygon class="st2" points="-749.7,191.6 -624.3,121 -624.3,197.8 -687,229.1 	"/>
	<polygon class="st2" points="-624.3,80.2 -749.7,152.3 -749.7,74 -687,42.6 	"/>
</g>
<polygon class="st12" points="-876.9,22.3 -876.9,245 -684.1,356.4 -491.2,245 -491.2,22.3 -684.1,-89 "/>
<g>
	<g>
		<defs>
			<path id="SVGID_1_" d="M51.6,112.4c0,9.4-4.8,12.8-13.9,12.8H0.2v-18.4h30.9V72.7H13.3c-9.5,0-13.1-4.8-13.1-14.1V13.7
				C0.2,4.2,5,0.4,14.3,0.4h34.4v18.4h-28v35.6h17.8c9.5,0,13.1,5,13.1,14.2L51.6,112.4L51.6,112.4z M126.9,125.2H96.6
				c-9.2,0-13.8-3.4-13.8-12.8V13.3c0-9.4,4.5-12.8,13.8-12.8h30.3v18.4h-23.6v87.8h23.6V125.2z M211,125.2h-20.5V79.3h-13.8v45.9
				h-20.5V0.5h40.6c9.2,0,14.1,3.8,14.1,13.3v45.9c0,6.1-2.8,8.9-7.5,10.3v0.5c4.5,0.5,7.5,3.3,7.5,9.4L211,125.2L211,125.2z
				 M190.5,61V19h-13.8v42H190.5z M262.7,125.2h-20.5V0.5h20.5V125.2z M348.8,112.1c0,8.1-5.3,13.1-14.2,13.1H294V0.5h40.6
				c9.2,0,14.2,3.6,14.2,13.1v39.5c0,6.1-2.8,8.9-7,10.3v0.5c4.2,0.6,7,3.3,7,9.4L348.8,112.1L348.8,112.1z M328.4,54.6V19h-13.9
				v35.6H328.4z M328.4,106.8V72.7h-13.9v34.1H328.4z M424.2,125.2h-44.1V0.5h44.1v18.4h-23.6v35.6h22v18.1h-22v34.1h23.6V125.2z"/>
		</defs>
		<clipPath id="SVGID_2_">
			<use xlink:href="#SVGID_1_"  style="overflow:visible;"/>
		</clipPath>
		<polygon class="st13" points="345,-389.9 35.1,-317.8 -57.4,-13.4 160,218.9 469.8,146.8 562.3,-157.6 		"/>
	</g>
	<g>
		<defs>
			<path id="SVGID_3_" d="M51.6,112.4c0,9.4-4.8,12.8-13.9,12.8H0.2v-18.4h30.9V72.7H13.3c-9.5,0-13.1-4.8-13.1-14.1V13.7
				C0.2,4.2,5,0.4,14.3,0.4h34.4v18.4h-28v35.6h17.8c9.5,0,13.1,5,13.1,14.2L51.6,112.4L51.6,112.4z M126.9,125.2H96.6
				c-9.2,0-13.8-3.4-13.8-12.8V13.3c0-9.4,4.5-12.8,13.8-12.8h30.3v18.4h-23.6v87.8h23.6V125.2z M211,125.2h-20.5V79.3h-13.8v45.9
				h-20.5V0.5h40.6c9.2,0,14.1,3.8,14.1,13.3v45.9c0,6.1-2.8,8.9-7.5,10.3v0.5c4.5,0.5,7.5,3.3,7.5,9.4L211,125.2L211,125.2z
				 M190.5,61V19h-13.8v42H190.5z M262.7,125.2h-20.5V0.5h20.5V125.2z M348.8,112.1c0,8.1-5.3,13.1-14.2,13.1H294V0.5h40.6
				c9.2,0,14.2,3.6,14.2,13.1v39.5c0,6.1-2.8,8.9-7,10.3v0.5c4.2,0.6,7,3.3,7,9.4L348.8,112.1L348.8,112.1z M328.4,54.6V19h-13.9
				v35.6H328.4z M328.4,106.8V72.7h-13.9v34.1H328.4z M424.2,125.2h-44.1V0.5h44.1v18.4h-23.6v35.6h22v18.1h-22v34.1h23.6V125.2z"/>
		</defs>
		<clipPath id="SVGID_4_">
			<use xlink:href="#SVGID_3_"  style="overflow:visible;"/>
		</clipPath>
		<polygon class="st14" points="-79.2,-253.3 -319.3,-13.3 -231.5,314.7 96.5,402.6 336.6,162.5 248.7,-165.5 		"/>
	</g>
	<g>
		<defs>
			<path id="SVGID_5_" d="M51.6,112.4c0,9.4-4.8,12.8-13.9,12.8H0.2v-18.4h30.9V72.7H13.3c-9.5,0-13.1-4.8-13.1-14.1V13.7
				C0.2,4.2,5,0.4,14.3,0.4h34.4v18.4h-28v35.6h17.8c9.5,0,13.1,5,13.1,14.2L51.6,112.4L51.6,112.4z M126.9,125.2H96.6
				c-9.2,0-13.8-3.4-13.8-12.8V13.3c0-9.4,4.5-12.8,13.8-12.8h30.3v18.4h-23.6v87.8h23.6V125.2z M211,125.2h-20.5V79.3h-13.8v45.9
				h-20.5V0.5h40.6c9.2,0,14.1,3.8,14.1,13.3v45.9c0,6.1-2.8,8.9-7.5,10.3v0.5c4.5,0.5,7.5,3.3,7.5,9.4L211,125.2L211,125.2z
				 M190.5,61V19h-13.8v42H190.5z M262.7,125.2h-20.5V0.5h20.5V125.2z M348.8,112.1c0,8.1-5.3,13.1-14.2,13.1H294V0.5h40.6
				c9.2,0,14.2,3.6,14.2,13.1v39.5c0,6.1-2.8,8.9-7,10.3v0.5c4.2,0.6,7,3.3,7,9.4L348.8,112.1L348.8,112.1z M328.4,54.6V19h-13.9
				v35.6H328.4z M328.4,106.8V72.7h-13.9v34.1H328.4z M424.2,125.2h-44.1V0.5h44.1v18.4h-23.6v35.6h22v18.1h-22v34.1h23.6V125.2z"/>
		</defs>
		<clipPath id="SVGID_6_">
			<use xlink:href="#SVGID_5_"  style="overflow:visible;"/>
		</clipPath>
		<polyline class="st15" points="546,141.8 230.3,47.6 5.3,272.6 89,511 		"/>
	</g>
	<g>
		<defs>
			<path id="SVGID_7_" d="M51.6,112.4c0,9.4-4.8,12.8-13.9,12.8H0.2v-18.4h30.9V72.7H13.3c-9.5,0-13.1-4.8-13.1-14.1V13.7
				C0.2,4.2,5,0.4,14.3,0.4h34.4v18.4h-28v35.6h17.8c9.5,0,13.1,5,13.1,14.2L51.6,112.4L51.6,112.4z M126.9,125.2H96.6
				c-9.2,0-13.8-3.4-13.8-12.8V13.3c0-9.4,4.5-12.8,13.8-12.8h30.3v18.4h-23.6v87.8h23.6V125.2z M211,125.2h-20.5V79.3h-13.8v45.9
				h-20.5V0.5h40.6c9.2,0,14.1,3.8,14.1,13.3v45.9c0,6.1-2.8,8.9-7.5,10.3v0.5c4.5,0.5,7.5,3.3,7.5,9.4L211,125.2L211,125.2z
				 M190.5,61V19h-13.8v42H190.5z M262.7,125.2h-20.5V0.5h20.5V125.2z M348.8,112.1c0,8.1-5.3,13.1-14.2,13.1H294V0.5h40.6
				c9.2,0,14.2,3.6,14.2,13.1v39.5c0,6.1-2.8,8.9-7,10.3v0.5c4.2,0.6,7,3.3,7,9.4L348.8,112.1L348.8,112.1z M328.4,54.6V19h-13.9
				v35.6H328.4z M328.4,106.8V72.7h-13.9v34.1H328.4z M424.2,125.2h-44.1V0.5h44.1v18.4h-23.6v35.6h22v18.1h-22v34.1h23.6V125.2z"/>
		</defs>
		<clipPath id="SVGID_8_">
			<use xlink:href="#SVGID_7_"  style="overflow:visible;"/>
		</clipPath>
		<polygon class="st16" points="-24.4,-462.9 -226.7,-260.7 -152.6,15.6 123.7,89.7 325.9,-112.6 251.9,-388.9 		"/>
	</g>
</g>
</svg>
