<?xml version="1.0" encoding="utf-8"?>
<!-- Generator: Adobe Illustrator 22.1.0, SVG Export Plug-In . SVG Version: 6.00 Build 0)  -->
<svg version="1.1" id="Layer_1" xmlns="http://www.w3.org/2000/svg" xmlns:xlink="http://www.w3.org/1999/xlink" x="0px" y="0px"
	 viewBox="0 0 853.3 1697.7" style="enable-background:new 0 0 853.3 1697.7;" xml:space="preserve">
<style type="text/css">
	.st0{fill:#FFFFFF;}
	.st1{fill:none;stroke:#FFFFFF;stroke-width:45;}
</style>
<g>
	<path class="st0" d="M431.6,466.9c-84.4,0-152.8,68.4-152.8,152.8c0,84.4,68.4,152.8,152.8,152.8s152.8-68.4,152.8-152.8
		C584.4,535.3,516,466.9,431.6,466.9z M363.3,573.8l111.3-23.7c0.3-0.1,0.7-0.1,1-0.2c20.2-4,39.7,9.1,43.7,29.2
		c4,20.2-9.1,39.7-29.2,43.7l-9.1,1.9c3.2,15.1-6.4,29.9-21.5,33.1L405,669.4c-15.1,3.2-29.9-6.4-33.1-21.5l-14-65.9
		C357.1,578.3,359.5,574.6,363.3,573.8z M515.2,674.4L370,705.3c-13.5,2.9-21.2-14.5-14.1-16l165.7-35.2
		C528.6,652.6,528.8,671.5,515.2,674.4z"/>
	<path class="st0" d="M486.2,604.6c0.2,0,0.3-0.1,0.5-0.1c10-2.2,16.2-12.2,14-22.2s-12.2-16.3-22.2-14l-9.1,1.9l7.7,36.3
		L486.2,604.6z"/>
</g>
<path class="st0" d="M642.5,180.7c-84.4,0-152.8,68.4-152.8,152.8s68.4,152.8,152.8,152.8s152.8-68.4,152.8-152.8
	S726.9,180.7,642.5,180.7z M614.9,277.4c7.2-23.5,32.1-36.8,55.7-29.6c23.5,7.2,36.8,32.1,29.6,55.7c-7.2,23.5-32.1,36.8-55.7,29.6
	C621,325.9,607.7,301,614.9,277.4z M702.3,411.4l-4.2,13.9c-2.7,8.8-12.1,13.8-20.9,11.1l-117.3-35.9c-8.8-2.7-13.8-12.1-11.1-20.9
	l4.2-13.9c7.4-23.8,32.2-37.7,56.4-31.5l-3.6,68.7l24.5-42.1l-5-21.9l32,9.8l-16.4,15.4l-3.2,48.6l35.4-58.9
	C696.7,362.1,709.5,387.5,702.3,411.4z"/>
<path class="st0" d="M746.2,520.5c-48.9,0-88.5,39.6-88.5,88.5s39.6,88.5,88.5,88.5s88.5-39.6,88.5-88.5S795.1,520.5,746.2,520.5z
	 M777.3,638c1.2,3,1.7,1.8-0.6,4.3L758.6,663c-2.2,2.4-1.7,2.6-2.9-0.4l-8.1-20.1c-1.7,2-3.5,3.9-5.1,5.7c-0.8,1-2.2,1.3-3.4,0.8
	l-15-6.4c-1.2-0.5-1.9-1.7-1.8-3c0.2-2.6,0.4-5,0.5-7.6l-20.1,8.1c-3.3,1.3-2.9,1.5-2.6-1.7l2.3-26.8c0.1-3.2-0.1-2.7,2.9-3.9
	l19.9-8c2.9-15.5,9.4-29,26.8-36c4.6-1.9,9.5-3.4,14.4-4.4c1.2-0.1,2.3,0.4,3,1.3c2.7,4.3,5,8.7,6.9,13.3
	c6.8,17.4,1.8,31.5-7.3,44.3L777.3,638z"/>
<path class="st0" d="M436.3,236.9C422.4,123.7,319.3,43.2,206.1,57.1C92.9,71,12.4,174,26.3,287.2C40.2,400.4,143.3,480.9,256.5,467
	S450.2,350.1,436.3,236.9z M160.9,366.5l-23.5,2.9c-3.3,0.4-6.2-1.9-6.6-5.1l-5.8-46.9c-0.4-3.3,1.9-6.2,5.1-6.6l23.5-2.9
	c3.2-0.4,6.2,1.9,6.6,5.1l5.8,46.9C166.4,363.2,164.2,366.1,160.9,366.5z M219.6,359.3l-23.5,2.9c-3.3,0.4-6.2-1.9-6.6-5.1
	l-13-105.7c-0.4-3.3,1.9-6.2,5.1-6.6l23.5-2.9c3.3-0.4,6.3,1.8,6.6,5.1l13,105.7C225.1,356,222.8,358.9,219.6,359.3z M233.9,232.3
	c0-0.9-0.1-1.7,0-2.6L195.4,206c-3.3,1.8-7.1,2.5-10.8,1.9l-32.7,41.8c0.7,1.5,1.1,3.3,1.3,5c1.1,9.9-6,18.9-16,19.9
	c-9.9,1.1-18.9-6-19.9-16c-1.1-9.9,6-18.9,16-19.9c1.5-0.1,3-0.1,4.6,0.1l32.7-41.8c-0.7-1.3-1.1-2.9-1.2-4.4
	c-1.2-9.8,5.8-18.6,15.5-19.8c9.8-1.2,18.6,5.8,19.8,15.5c0,0.9,0.1,1.7,0,2.6l38.4,23.6c4-2.2,8.5-2.8,12.8-1.6l31.6-32.3
	c-0.3-0.8-0.5-1.7-0.6-2.5c-0.3-2.2-0.1-4.3,0.4-6.5c2.4-9.5,12-15.2,21.5-12.8s15.2,12,12.8,21.5c-2.4,9.5-12,15.2-21.5,12.8
	l-31.4,32.3c0.3,0.8,0.5,1.7,0.6,2.5c1.2,9.8-5.7,18.6-15.5,19.8S235.1,242,233.9,232.3z M278.3,352.1l-23.5,2.9
	c-3.3,0.4-6.2-1.9-6.6-5.1l-7.2-58.8c-0.4-3.3,1.9-6.2,5.1-6.6l23.5-2.9c3.3-0.4,6.2,2,6.6,5.1l7.2,58.8
	C283.9,348.8,281.6,351.7,278.3,352.1z M337.1,344.8l-23.5,2.9c-3.3,0.4-6.2-1.9-6.6-5.1l-13-105.7c-0.4-3.3,1.9-6.2,5.1-6.6
	l23.5-2.9c3.3-0.4,6.2,1.9,6.6,5.1l13,105.7C342.6,341.5,340.4,344.4,337.1,344.8z"/>
<g>
	<path class="st0" d="M154.7,570.1c2.9,0.5,5.6-1.4,6.1-4.3c0.5-2.9-1.4-5.6-4.3-6.1c-2.9-0.6-5.6,1.4-6.1,4.3
		C149.9,566.9,151.8,569.6,154.7,570.1z"/>
	<path class="st0" d="M152.6,502.6c-48.9,0-88.5,39.6-88.5,88.5c0,48.9,39.6,88.5,88.5,88.5s88.5-39.6,88.5-88.5
		C241.1,542.2,201.5,502.6,152.6,502.6z M184.3,637c-0.1,0.3-0.2,0.5-0.3,0.7c-0.8,1.3-2.4,1.6-3.6,0.8l-8.1-5.3l-6.1-16.8
		c5.2-1.1,10.2-3,14.8-5.6l6.1,17L184.3,637z M190.6,596.7c-11,12-27.3,17.6-43.4,14.6c-5.7-1-11.1-3-16-6l-15,17.8l-9.4,2.2
		c-0.2,0.1-0.5,0.1-0.7,0.1c-1.5-0.1-2.6-1.3-2.5-2.8l0.5-9.6l15.1-18c-3-3.5-5.5-7.4-7.3-11.6v-0.1c-0.5-1.4,0.2-2.9,1.6-3.4l5-1.8
		c1.3-0.4,2.8,0.2,3.3,1.5c1.1,2.6,2.6,5.1,4.3,7.3l14.4-17.2c-0.8-2.4-1-5.1-0.6-7.7c1.6-8.4,9.6-14,18-12.6
		c8.6,1.4,14.5,9.5,13.1,18.1c-0.5,2.5-1.6,5-3.3,7l5.8,16c-4.4,3.1-9.5,5-14.8,5.6l-5.7-15.8c-0.1,0-0.2,0-0.3,0s-0.2-0.1-0.3-0.1
		l-14.2,17c3.4,1.9,7.1,3.2,10.9,3.9c12.3,2.2,24.9-2.1,33.4-11.2c0.9-1,2.5-1.2,3.6-0.3l4.1,3.3c0,0.1,0.1,0.1,0.1,0.1
		C191.4,593.9,191.6,595.6,190.6,596.7z"/>
</g>
<path class="st0" d="M465,1042.9c-29.8,0-54,24.2-54,54c0,29.8,24.2,54,54,54s54-24.2,54-54C519,1067.1,494.8,1042.9,465,1042.9z
	 M437.4,1092.7l-0.4-1.8c-0.5-2.6,1-5.1,3.6-5.7l40-9.2c2.6-0.5,5.1,1.1,5.7,3.6l0.4,1.8c0.1,0.7,0,1.4-0.5,2
	c-2.4,3-3.2,4-13.8,16.2c-1.3,1.5-3.9,5.1-6.1,5.6c-2.2,0.6-6.1-1.5-8.1-2.4c-14.9-6.3-16-6.9-19.5-8.5
	C438,1094,437.6,1093.4,437.4,1092.7z M489,1112.9l-40,9.2c-2.6,0.6-5.1-1-5.7-3.6l-4.5-19.7c-0.1-0.3,0.1-0.6,0.4-0.7
	c0.1,0,0.3,0,0.4,0c2.5,1.2,5.9,2.7,17.4,7.5c3,1.8,6.4,2.7,9.9,2.5c3.2-1.4,5.9-3.7,7.8-6.6c8.3-9.2,10.7-12,12.4-14.2
	c0.2-0.3,0.6-0.3,0.8-0.1c0.1,0.1,0.2,0.2,0.2,0.3l4.5,19.7C493.2,1109.8,491.6,1112.3,489,1112.9z"/>
<g>
	<path class="st0" d="M656.5,774.6c-0.3-0.6-1-0.8-1.6-0.5l-13.6,6.8l-3-5.9c-0.3-0.6-1-0.8-1.6-0.5l-3.6,1.8
		c-0.6,0.3-0.8,1-0.5,1.6l5.4,10.7c0.3,0.6,1,0.8,1.6,0.5l18.3-9.2c0.6-0.3,0.8-1,0.4-1.7L656.5,774.6z"/>
	<path class="st0" d="M642.2,728.6c-29.8,0-54,24.2-54,54s24.2,54,54,54s54-24.2,54-54S672,728.6,642.2,728.6z M676.2,774.3
		l-9.9,30.4c-1.3,3.8-5.3,5.8-9,4.6l-15.2-4.9l-16.4,5.6c-0.2,0.1-0.5,0.1-0.8,0c-0.7-0.2-1.1-1-0.9-1.7l2.9-8.9l-10.1-3.3
		c-3.8-1.3-5.8-5.3-4.6-9l9.9-30.4c1.3-3.8,5.3-5.8,9-4.6l40.6,13.2C675.5,766.5,677.5,770.5,676.2,774.3z"/>
</g>
<path class="st0" d="M321,793.5c-29.8,0-54,24.2-54,54s24.2,54,54,54s54-24.2,54-54S350.8,793.5,321,793.5z M351.1,834.5l-5.5,25.9
	c-0.3,1.1-1,2.1-2.1,2.5c-4.4,2-9.3,2.6-14,1.6c-7.2-1.5-11.1-6.2-16.8-7.4c-4.2-0.9-8.5-1-12.7-0.2l-2.1,10c-0.3,1.4-1.7,2.3-3.1,2
	l-1.7-0.4c-1.4-0.3-2.3-1.7-2-3.1l8.7-41.1c-2-2-2.2-5.1-0.7-7.5c1.8-2.8,5.6-3.6,8.4-1.8c2.8,1.8,3.6,5.6,1.8,8.4
	c2.5-0.3,5-0.2,7.5,0.3c7.2,1.5,11.1,6.2,16.8,7.4c4.4,0.7,8.8,0.5,13.3-0.7c0.5-0.1,1-0.1,1.5,0
	C350.3,830.8,351.5,832.6,351.1,834.5z"/>
<g>
	<path class="st0" d="M505,880.9c-0.1,0-0.1,0-0.2,0c-11.4-2.2-22.4,5.2-24.6,16.6c-0.3,1.6,0.9,3.2,2.5,3.4c1.5,0.2,3-0.8,3.3-2.3
		c1.6-8.1,9.5-13.4,17.6-11.9c1.6,0.4,3.2-0.6,3.6-2.2C507.6,882.9,506.6,881.3,505,880.9z"/>
	<path class="st0" d="M499.5,828c-48.9,0-88.5,39.6-88.5,88.5s39.6,88.5,88.5,88.5s88.5-39.6,88.5-88.5S548.4,828,499.5,828z
		 M506.4,950.6l-1,5.2c-0.4,1.9-1.9,3.3-3.8,3.6l-0.3,1.7c-0.5,2.4-2.8,4-5.3,3.6l-14.7-2.9c-2.4-0.5-4-2.8-3.6-5.3l0.3-1.7
		c-1.6-1-2.5-2.9-2.1-4.7l1-5.2c0.2-1.2,1.4-2,2.6-1.8l25,4.9C505.9,948.3,506.7,949.4,506.4,950.6z M533.1,907.7
		c-3.6,18.7-12.8,15-23.5,32.2c-1,1.6-2.8,2.4-4.7,2l-23.2-4.5c-1.8-0.4-3.2-1.8-3.6-3.6c-3.5-20-13.4-20-9.8-38.7
		c3.5-17.9,20.8-29.6,38.7-26.1S536.6,889.8,533.1,907.7z"/>
</g>
<rect x="365.1" y="1530.2" class="st0" width="202" height="34.3"/>
<path id="Path_579" class="st1" d="M461.5,1394.2h172.8v219.7"/>
<polygon class="st0" points="540.4,1229.1 509.9,1229.1 509.9,1206.2 422.3,1206.2 422.3,1229.1 391.8,1229.1 391.8,1473.1 
	422.3,1473.1 422.3,1499.7 509.9,1499.7 509.9,1473.1 540.4,1473.1 "/>
<rect x="300.3" y="1587.4" class="st0" width="385" height="61"/>
</svg>
