<?xml version="1.0" encoding="utf-8"?>
<!-- Generator: Adobe Illustrator 22.1.0, SVG Export Plug-In . SVG Version: 6.00 Build 0)  -->
<svg version="1.1" id="Group_423" xmlns="http://www.w3.org/2000/svg" xmlns:xlink="http://www.w3.org/1999/xlink" x="0px" y="0px"
	 viewBox="0 0 280.1 253.2" style="enable-background:new 0 0 280.1 253.2;" xml:space="preserve">
<style type="text/css">
	.st0{fill:#88BCDD;}
	.st1{fill:#76A6C4;}
</style>
<polygon class="st0" points="56.8,219.4 116.4,116 131.1,140.7 98.3,195.4 239.7,195.6 220.2,219.8 "/>
<polygon class="st1" points="131.1,140.9 116.4,116.1 56.8,219.5 98.3,195.6 "/>
<polygon class="st0" points="246.8,179 127.4,179.9 141.3,154.7 205,155.3 136,37 164.5,37.8 "/>
<polygon class="st1" points="141.5,154.6 127.6,179.8 246.9,178.9 205.2,155.3 "/>
<polygon class="st0" points="118.3,35 177.3,138.8 148.5,138.9 118.1,83 46.1,204.8 35.3,175.7 "/>
<polygon class="st1" points="148.4,138.9 177.1,138.7 118.2,34.9 117.9,82.9 "/>
</svg>
