<?xml version="1.0" encoding="utf-8"?>
<!-- Generator: Adobe Illustrator 22.1.0, SVG Export Plug-In . SVG Version: 6.00 Build 0)  -->
<svg version="1.1" id="Layer_1" xmlns="http://www.w3.org/2000/svg" xmlns:xlink="http://www.w3.org/1999/xlink" x="0px" y="0px"
	 viewBox="0 0 231 231" style="enable-background:new 0 0 231 231;" xml:space="preserve">
<style type="text/css">
	.st0{fill:#F7D372;}
	.st1{fill:#E6C97B;}
</style>
<path class="st0" d="M-60.3,77.6l-99.8-80.9v161.7L-60.3,77.6z"/>
<polygon class="st0" points="-160.1,77.6 -259.9,-3.3 -259.9,158.4 "/>
<path class="st1" d="M-60.3,77.6h-99.8v80.9L-60.3,77.6z"/>
<path class="st1" d="M-160.1,77.2h-99.8V-3.3L-160.1,77.2z"/>
<polygon class="st1" points="129.6,29.4 129.6,89.3 152.5,110.3 129.6,131.3 129.6,191.1 217.8,110.3 "/>
<polyline class="st0" points="152.5,110.2 129.6,89.3 129.6,29.4 217.8,110.3 "/>
<polygon class="st1" points="19.3,191.1 19.3,131.2 42.2,110.2 19.3,89.3 19.3,29.4 107.4,110.2 "/>
<polygon class="st0" points="19.3,29.4 107.4,110.2 42.2,110.2 19.3,89.3 "/>
</svg>
