<?xml version="1.0" encoding="utf-8"?>
<!-- Generator: Adobe Illustrator 23.0.1, SVG Export Plug-In . SVG Version: 6.00 Build 0)  -->
<svg version="1.1" id="Layer_1" xmlns="http://www.w3.org/2000/svg" xmlns:xlink="http://www.w3.org/1999/xlink" x="0px" y="0px"
	 viewBox="0 0 2598 764" style="enable-background:new 0 0 2598 764;" xml:space="preserve">
<style type="text/css">
	.st0{fill:#F5F5F5;}
	.st1{enable-background:new    ;}
	.st2{fill:#69536F;}
	.st3{fill:#E8E8E8;}
	.st4{fill:#5E4B63;}
	.st5{fill:#524257;}
	.st6{fill:#DB9A7D;}
	.st7{fill:#E6C97B;}
	.st8{fill:#C68A73;}
	.st9{fill:#F9B2B2;}
	.st10{fill:#FFFFFF;}
	.st11{fill:#85B9D9;}
	.st12{fill:#76A6C4;}
	.st13{fill:#EAA9A9;}
	.st14{fill:#EDABA2;}
	.st15{fill:#F15C5E;}
	.st16{fill:#DBBA72;}
	.st17{fill:#D95C5E;}
	.st18{display:none;}
	.st19{display:inline;fill:#5E4B63;}
	.st20{display:inline;fill:none;stroke:#D6D6D6;}
	.st21{display:inline;fill:#FFFFFF;}
	.st22{display:inline;fill:#F15C5E;}
	.st23{font-family:'Fresno-Black';}
	.st24{font-size:137.4961px;}
	.st25{letter-spacing:18;}
	.st26{display:inline;fill:#D95C5E;}
	.st27{font-size:115.3214px;}
	.st28{letter-spacing:15;}
	.st29{display:inline;}
	.st30{display:inline;fill:#69536F;}
	.st31{display:inline;fill:#F9B2B2;}
	.st32{display:inline;fill:#E8E8E8;}
	.st33{display:inline;fill:#85B9D9;}
	.st34{display:inline;fill:#76A6C4;}
	.st35{display:inline;fill:#EAA9A9;}
	.st36{display:inline;fill:#DB9A7D;}
</style>
<rect x="-2129" y="261.3" class="st0" width="652" height="439.3"/>
<g class="st1">
	<path class="st2" d="M-1193.9,498.9c0,9.3-4.6,13.4-14.3,13.4h-28.7c-9.2,0-14.4-3.8-14.4-13.4v-104c0-9,4.8-13.4,14.4-13.4h28.7
		c9.3,0,14.3,3.8,14.3,13.4V498.9z M-1215.3,493v-92.1h-14.4V493H-1215.3z"/>
	<path class="st2" d="M-1103.2,498.5c0,10-5.1,13.8-14.8,13.8h-27.9c-9.7,0-14.8-3.8-14.8-13.8v-117h21.5V493h14.4V381.5h21.5v117
		H-1103.2z"/>
	<path class="st2" d="M-1012.5,512.3h-21.5v-48.2h-14.4v48.2h-21.5V381.5h42.6c9.7,0,14.8,3.9,14.8,13.9v48.2c0,6.4-3,9.3-7.9,10.8
		v0.5c4.8,0.5,7.9,3.4,7.9,9.8L-1012.5,512.3L-1012.5,512.3z M-1034,444.9v-44.1h-14.4v44.1H-1034z"/>
	<path class="st2" d="M-870.1,498.9c0,9.8-5.1,13.4-14.6,13.4H-924V493h32.5v-35.7h-18.7c-10,0-13.8-5.1-13.8-14.8v-47.1
		c0-10,5.1-13.9,14.8-13.9h36.1v19.3h-29.3v37.4h18.7c10,0,13.8,5.2,13.8,14.9v45.8H-870.1z"/>
	<path class="st2" d="M-779.7,400.8h-18.9v111.5h-21.5V400.8h-18.7v-19.3h59v19.3H-779.7z"/>
	<path class="st2" d="M-691,498.9c0,9.3-4.6,13.4-14.3,13.4H-734c-9.2,0-14.4-3.8-14.4-13.4v-104c0-9,4.8-13.4,14.4-13.4h28.7
		c9.3,0,14.3,3.8,14.3,13.4V498.9z M-712.5,493v-92.1h-14.4V493H-712.5z"/>
	<path class="st2" d="M-600.4,512.3h-21.5v-48.2h-14.4v48.2h-21.5V381.5h42.6c9.7,0,14.8,3.9,14.8,13.9v48.2c0,6.4-3,9.3-7.9,10.8
		v0.5c4.8,0.5,7.9,3.4,7.9,9.8L-600.4,512.3L-600.4,512.3z M-621.8,444.9v-44.1h-14.4v44.1H-621.8z"/>
	<path class="st2" d="M-509.5,447.2c0,10-5.2,13.4-14.9,13.4h-3v51.6h-21.5v-51.6h-3.4c-9.7,0-14.8-3.4-14.8-13.4v-65.7h21.5v60.2
		h14.6v-60.2h21.5L-509.5,447.2L-509.5,447.2z"/>
</g>
<path class="st2" d="M-273,774"/>
<rect x="-1830.8" y="107" class="st0" width="455.6" height="295.2"/>
<rect x="-1970.1" y="379.1" class="st0" width="572.9" height="144"/>
<rect x="95.2" y="-58.6" class="st3" width="555.3" height="419.4"/>
<g class="st1">
	<path class="st2" d="M1460.4,650c0,13.4-6.9,18.3-19.9,18.3H1387V642h44.2v-48.6h-25.4c-13.6,0-18.7-6.9-18.7-20.1v-64
		c0-13.6,6.9-19,20.1-19h49.1v26.3h-39.9v50.9h25.4c13.6,0,18.7,7.1,18.7,20.3L1460.4,650L1460.4,650z"/>
	<path class="st2" d="M1583.4,516.6h-25.7v151.7h-29.2V516.6H1503v-26.3h80.3L1583.4,516.6L1583.4,516.6z"/>
	<path class="st2" d="M1704.1,650c0,12.7-6.2,18.3-19.4,18.3h-39c-12.5,0-19.6-5.1-19.6-18.3V508.6c0-12.3,6.5-18.3,19.6-18.3h39
		c12.7,0,19.4,5.1,19.4,18.3V650z M1674.8,642V516.6h-19.6V642H1674.8z"/>
	<path class="st2" d="M1827.4,668.3h-29.2v-65.6h-19.6v65.6h-29.2v-178h58c13.2,0,20.1,5.4,20.1,19v65.6c0,8.7-4,12.7-10.7,14.7v0.7
		c6.5,0.7,10.7,4.7,10.7,13.4v64.6H1827.4z M1798.2,576.6v-60h-19.6v60H1798.2z"/>
	<path class="st2" d="M1951,579.8c0,13.6-7.1,18.3-20.3,18.3h-4v70.3h-29.2v-70.3h-4.7c-13.2,0-20.1-4.7-20.1-18.3v-89.5h29.2v81.9
		h19.9v-81.9h29.2V579.8z"/>
</g>
<path class="st2" d="M2246,834.2"/>
<rect x="353.4" y="-96.4" class="st0" width="353" height="248"/>
<rect x="25.5" y="197.2" class="st0" width="353" height="124"/>
<path class="st4" d="M1050.2,717.9c0,0-4.4,6-6,7.4c-3,2.6-11.2,6.9-7.7,9.5c12.9,0,18.9,0,27.5,0c2.6,0-0.9-17.2-0.9-17.2
	L1050.2,717.9z"/>
<path class="st4" d="M1122.7,717.1c0,0,4.4,6,6,7.4c3,2.6,11.2,6.9,7.7,9.5c-12.9,0-18.9,0-27.5,0c-2.6,0,0.9-17.2,0.9-17.2
	L1122.7,717.1z"/>
<path class="st4" d="M900.5,718.8c0,0,4.4,6,6,7.4c3,2.6,11.2,6.9,7.7,9.5c-12.9,0-18.9,0-27.5,0c-2.6,0,0.9-17.2,0.9-17.2
	L900.5,718.8z"/>
<path class="st4" d="M829.8,719.7c0,0-4.4,6-6,7.4c-3,2.6-11.2,6.9-7.7,9.5c12.9,0,18.9,0,27.5,0c2.6,0-0.9-17.2-0.9-17.2
	L829.8,719.7z"/>
<g>
	<path class="st4" d="M975.5,522.5c-10,33.7,7.7,43.6,18.3,122.5c2.7,20.3,4.9,40.4,8.2,73.3c0,0,3.8,1.5,7.7,1.4
		c7.4-0.4,9.5-1.1,9.5-1.1s-1.5-38.3-0.4-77.2c1.2-42,2.5-92.9,2-96.8C1018.4,506.4,975.5,522.5,975.5,522.5z"/>
	<path class="st4" d="M939.3,526.6c-5.9,21.3-8.6,44.5-0.3,107.8c1.3,26.1,3.5,46,2.7,84.7c0,0,0.5,1.7,5.2,1.7
		c6.3,0,9.5-0.1,11.3-0.7c0,0,5.4-44.3,9.2-84.4c3.6-37.1,10.7-52.9,11.9-72.9C996.2,504.9,946.5,524.5,939.3,526.6z"/>
	<path class="st5" d="M936.4,544l1.5-10.8l80.1-4.4c0,0,2.1,8.5,2.6,12.9c0,0-2.8,2.6-5.8,3C1001.1,546.5,948.5,546.1,936.4,544z"/>
	<path class="st4" d="M993,575.2h-26.9c-4.4,0-8-3.6-8-8v-8.8c0-4.4,3.6-8,8-8H993c4.4,0,8,3.6,8,8v8.8
		C1001,571.6,997.4,575.2,993,575.2z"/>
	<path class="st0" d="M942.2,406.1c0,0-46.2,22.6-53.2,23.5s-38.6-25.1-38.6-25.1L846,416l39.2,38.1l55.9-15.3"/>
	<path class="st4" d="M944.3,335.1c-2.7,9.6,2,26.4-3.6,36.1s-8.3,50.7,18.3,54.3c26.6,3.6,44.8,0.2,49.2-12.2
		c1.7-4.9-2.5-28.8,0-39.9c3.6-16.1,4.6-39.3-0.6-49.3C1002.2,313.9,957.7,287.8,944.3,335.1z"/>
	<path class="st0" d="M991.8,399.2c0,0,61.2,29,68.2,29.8c7,0.9,38.6-25.1,38.6-25.1l4.5,11.6l-39.2,38.1l-50.8-13.8"/>
	<path class="st6" d="M965.9,373.9c0.3,8.3,1.1,23.4-1.8,25.4c-1.1,0.8,5.2,27.3,13,28.6c5.1,0.9,18.2-19.7,14.7-28.8
		c-0.4,1.8-4-8.4-3.4-22C988.7,368,965.9,373.9,965.9,373.9z"/>
	<path class="st6" d="M959.5,371.8c4.4,7.3,10,12.7,19.6,12.7c7.9,0,11.9-3.4,16.6-11.8c5.5-9.8,7.4-34.4-0.4-46.4
		c-7.7-12-26.8-10.1-35.3,0S951.8,359.2,959.5,371.8z"/>
	<path class="st7" d="M992.8,404.5c0,0-7.5,9.1-13.3,9.3c-5.8,0.2-13.7-4.4-17.3-9.3l-3.7,2.2c0,0,11.5,11.1,21.1,10.6
		c9.6-0.5,16.1-10.6,16.1-10.6L992.8,404.5z"/>
	<path class="st4" d="M1007.5,353.3c-7.1-3-12.7-11.9-14.8-19.3c-14.7,14.9-28.7,24.6-42.2,24.6c0,0-2.5-30,3.1-32.6
		s21.2-16.9,32.8-10C1013.8,332,1007.5,353.3,1007.5,353.3z"/>
	<path class="st0" d="M1019.4,540.9c-14.7,4.3-84.1,2.7-84.3-1.1c18.6-66.3-1-75.5,3.1-100.9c0,0,1.2-8.9,1.2-14.5
		c0.2-4.6-1.3-16.1-1.3-16.1c4.1-2,9-4.6,14-6.5c2.3-0.9,12.1-2.3,12.1-2.3s4.5,18.1,14.8,28.1c9-7.4,12.9-28.3,12.9-28.3l12.3,4.6
		c0,0,8.7,4.2,15.9,8.5c0,0-0.3,19.7-2,28.9c5.1,21.9-14.8,38.9,3,95.6C1020.9,536.7,1022.7,539.9,1019.4,540.9z"/>
	<path class="st8" d="M966.1,380.1c4.2,3.6,16.2,6.6,22.4,1.8l-0.1,1.9c0,0-9.7,10.8-22.2-1.8L966.1,380.1L966.1,380.1z"/>
</g>
<g>
	<path class="st2" d="M1081.2,523.1c-10,33.7,7.7,43.6,18.3,122.5c2.7,20.3,4.9,40.4,8.2,73.3c0,0,3.8,1.5,7.7,1.4
		c7.4-0.4,9.5-1.1,9.5-1.1s-1.5-38.3-0.4-77.2c1.2-42-1.6-93.3-4.7-99.3C1117.4,504.5,1081.2,523.1,1081.2,523.1z"/>
	<path class="st2" d="M1047.2,527.6c-5.9,21.3-5.1,34.2-3.1,105.5c0.7,24.6,4.1,48,3.4,86.7c0,0,0.5,1.7,5.2,1.7
		c6.3,0,9.5-0.1,11.3-0.7c0,0,5.4-44.3,9.2-84.4c3.6-37.1,10.7-52.9,11.9-72.9C1101.9,505.6,1054.4,525.5,1047.2,527.6z"/>
	<path class="st2" d="M1098.7,575.8h-26.9c-4.4,0-8-3.6-8-8V559c0-4.4,3.6-8,8-8h26.9c4.4,0,8,3.6,8,8v8.8
		C1106.7,572.2,1103.1,575.8,1098.7,575.8z"/>
	<path class="st4" d="M1079.9,308.5c-3.4,2-3.9,4-4,8.4c-0.1,4.2-2.6,12.7,7.4,14c10,1.4,14-1.3,15.7-6s3-8.1,0-12.3
		C1097.9,311.1,1088.2,305.1,1079.9,308.5z"/>
	<path class="st4" d="M1062,320c-8.3,4.8-16.3,11.9-16.6,22.6c1.2,10.3-1.8,28.7,22.6,32s34-3.2,38.1-14.6s4.3-21.1-2.8-31.4
		C1100.8,324.9,1079.8,309.8,1062,320z"/>
	<path class="st9" d="M1069.3,400.2c-0.5,1.1-3.2,16.9,10.1,19.4c16,3,12.6-12.8,16.2-15.6c0,0-2.1-8.5-3.3-16.4
		c-0.8-8.1,1.2-6.5,4-17c0-0.1,0-0.1,0-0.2c4.1-9.9,3.8-27.2-2.2-36.7c-7.1-11-24.6-9.3-32.4,0c-7.9,9.3-8.3,25.4-0.8,42.9
		c2.3,5.4,5.3,8.2,9.5,9.5C1070.4,386.3,1070.7,397.2,1069.3,400.2z"/>
	<path class="st10" d="M1111.3,537.7c-14.7,4.3-67.1,3.5-67.3-0.3c4.6-40-4-93.5-2.5-97.3c0,0-4.3-13.3-4.1-16.8
		c0.2-4.6-0.2-4.4,6.8-13.9c1.6-2.3,13.6-6.8,13.6-6.8l12-4.7c0,0,3,10.2,9.2,10.2c11.2,0,15-10.4,15-10.4l11.8,6.2
		c0,0,9.1,3.6,14.9,7.8c0,0,0.2,29.8-1.5,38.9c-6.3,45.1-0.3,59.1,0.5,81.1C1119.8,531.7,1114.6,536.7,1111.3,537.7z"/>
	<path class="st3" d="M1085.8,473.6c0,0,9.7,0.3,12.3,2.4c0,0-1,9.2-0.8,10c0,0-8.7-1.2-11.2-1.2c0,0-5.8,1.4-16,3.4
		c0,0-0.8-5.6-1-11.2L1085.8,473.6z"/>
	<path class="st4" d="M1066.2,323.6c10.6-6.3,25,6.8,30.1,9.2c5.2,2.5,2.7,33.9,2.7,33.9c-12.7-4.2-7.5-9.2-13.1-16.8
		c-4.9,10.3-27.1,3.1-32.6,6.3C1053.4,356.2,1041.1,338.5,1066.2,323.6z"/>
	<path class="st4" d="M1120.3,541.4c-0.1,0.7,1.2,8.8,1.3,9.7c0.1,0.9-12,2.1-20.3,0c-2.5-0.6-4.5-8.3-3-9.9
		c1.5-1.6,18.9,0.3,18.9,0.3L1120.3,541.4z"/>
	<path class="st4" d="M1070.1,540.5c-0.1,0.7,1.2,8.7,1.5,9.5s-0.1,3.9-28.4,1.9c0,0,0.1-6.2,1.6-7.8s18.4-3.5,18.4-3.5
		L1070.1,540.5z"/>
	<path class="st11" d="M1117.6,409.9c3,19.2-3.3,90,6.1,136.6c0.9,4.7-23.1,2.9-25.4,0.4c-3.8-3.9-2.4-48,0.4-80
		c3.8-42.4-0.6-67.4-0.6-67.4L1117.6,409.9z"/>
	<path class="st11" d="M1046.6,405.7c-3,19.2,3.8,87.2-8.5,140.5c-1.1,4.7,34.6,3.3,34.3,1.1c-3.9-27.9,0.4-46.8-4-77.7
		c-6.4-45.3-1.7-70.6-1.7-70.6L1046.6,405.7z"/>
	<path class="st12" d="M1069.2,478.8c0.4,0.2,0.8,6.4,1,9.4c0,0-16.5,2.9-25.6,3.4c0,0,0.2-3.6,0-9.1L1069.2,478.8z"/>
	<path class="st9" d="M1065.9,459.2c-6.4-1-12.5-2.7-20.8,7.1c-8.2,9.8,6.1,11.8,8.9,9c2.7-2.7,4.5-9.9,11.9-9.2"/>
	<path class="st12" d="M1118.9,477.9c-0.4,2.1-0.6,5.1-0.4,8.1c0,0-10.3,1.9-21,0c0,0,0.3-7.2,0.9-8.9L1118.9,477.9z"/>
	<path class="st11" d="M1050.4,448.2c0,0-2.6,6.9-4.9,17.8c5.3,2.2,48.1-3.7,48.1-3.7l4.7,11.9c0,0-40.2,13.6-62.6,14.4
		c-9.7,0.4-11.7-10.2-11.7-15.4c0-24.3,10.7-59.9,22.6-67.6"/>
	<path class="st9" d="M1097.7,462.4c5.9-2.8,11.2-6.2,21.9,0.9c10.7,7-2.5,13-5.9,11.2s-7.1-8.2-14-5.4"/>
	<path class="st11" d="M1117.6,409.6c9.8,6.1,14.8,34.6,18.5,59.4c0.6,3.9,0.2,13.9-7.4,14.8c-16.4,2-58-14.7-68.3-17.9
		c0,0,0.5-8.3,2.2-8.1c30.9,4.4,55.3,7.7,55.3,7.7l-4.4-20.9"/>
	<path class="st11" d="M1196.1,363.7"/>
	<path class="st12" d="M1085.3,478.3c0,0-25.4-10.6-24.8-12.3l31.2,10.4L1085.3,478.3z"/>
	<path class="st13" d="M1090,379.2c0,0-9.7,8.5-19.8,7c0,0,0.4-0.5,0.2,2.6C1070.4,388.8,1083,388.2,1090,379.2z"/>
</g>
<path class="st6" d="M1098.9,400.9c7.6,1.1,17.3-5.1,19,7.6s-11.5,6.6-12.3,2.9S1105.6,404.3,1098.9,400.9"/>
<polygon class="st3" points="862.6,408.2 866.6,407 866,405.5 "/>
<polygon class="st3" points="876,405.5 878.1,407.2 875.6,406.9 "/>
<g>
	<path class="st14" d="M785.9,328.1c3.4-8-3.9-12.3-6.1-16.2s5-19.1,12.9-6.7c8,12.4,4.1,18.6,0.8,25.4"/>
	<path class="st7" d="M863.5,523.1c-10,33.7,3.4,37.4,13.9,116.3c2.7,20.3,4.7,47.4,7.9,80.3c0,0,8.4,0.7,12.3,0.6
		c7.4-0.4,9.5-1.1,9.5-1.1s2-45.1,0-83.4c-2.2-42-6.1-95.1-6.6-99C898.2,498.5,863.5,523.1,863.5,523.1z"/>
	<path class="st7" d="M828,541.6c-1.4,24.3,0.2,24.5-2.6,94.8c-1,24.6,0.7,45.1-0.1,83.8c0,0,4.8,1.2,9.5,1.2
		c6.3,0,9.5-0.1,11.3-0.7c0,0,5.4-44.3,9.2-84.4c3.6-37.1,10.7-52.9,11.9-72.9C884.1,505.5,835.2,539.5,828,541.6z"/>
	<path class="st7" d="M880.9,575.8H854c-4.4,0-8-3.6-8-8V559c0-4.4,3.6-8,8-8h26.9c4.4,0,8,3.6,8,8v8.8
		C888.9,572.2,885.3,575.8,880.9,575.8z"/>
	<path class="st4" d="M849.8,330.8c-4.4-2.3-9.5,1.1-9.5,6c0,3.2-0.5,7.2-2.5,10.8c-4.6,8.3,5.3,13.5,8.2,18.1
		c2.9,4.5,1.8,12.3,8.1,14.6c6.3,2.3,22.6,0.2,24.1-6.2C879.3,369,864.7,338.6,849.8,330.8z"/>
	<path class="st14" d="M870.3,323.2c-15.4,0.3-21,11.3-20.9,31.7c0,7.6,3.6,15.1,6.4,19.8c2.1,3.5,2.7,7.8,1.6,11.7l-3.2,11.5
		c-2.1,10.7,3,16.4,10.5,18.4c3.7,1,8.1,0.1,11.3-2.1c3.8-2.5,4-7.9,3.2-12.4l-0.9-3.3c-1.3-4.4,1.2-9.2,5.6-10.3
		c3.4-0.8,7-0.2,9.5-2.1c2.5-1.8,8.2-20.3,5-39.7C895.3,326.6,885.7,323,870.3,323.2z"/>
	<path class="st4" d="M901.2,320.9c-3.4-4.5-6.6,2.6-11.2,2.2c-1.1-0.1-2.2-0.3-3.3-0.6l-17.1-4.7c-10.3,0.1-27.4,6.3-24.9,21.2
		l2,10.1c0.8,4.3,1.6,2.6,6,3.1l3.7,3.3c0.4,1.4,0.9,4.2,2.4,4.1c1.9,0,3.3-1.6,3.3-3.4c0-4.7,3.2-8.9,7.8-10
		c5.7-1.4,11.6-4.4,18-2.7c0.1,0,0.1,0,0.1,0c5.5,1.4,12,3.2,14.6-4C903.8,335.4,903.1,324.3,901.2,320.9z"/>
	<path class="st14" d="M856.2,357.4c-0.3,3.8-2,6.8-5.7,6.4c-3.6-0.3-5.5-5.8-5.2-9.6c0.3-3.8,2.8-4.5,6.5-4.2
		C855.3,350.3,856.5,353.6,856.2,357.4z"/>
	<path class="st4" d="M861.9,356.4c-0.4,6.4,1.8,11.3,3.8,12.8c1.9,1.5,24.7,1.8,33,0.8c3.3,3.3,0.8,12.1-5.7,17.8
		c-5.3,4.7-22.3-3.3-29.9-6.7c-5.9-2.6-6.5-23.4-7.5-28.2C854.7,348.1,862.2,352,861.9,356.4z"/>
	<path class="st14" d="M908.4,536.8c0,0,1,7.5-6.2,18.1s-13.6-3.2-11.1-6.1c4-4.7,10.4-10.5,10.4-10.5"/>
	<path class="st2" d="M903.2,412.3c12.3,6.4,24.6,54.5,27.2,78.6c2,20.6-21,55.9-21,55.8l-9.6-6.7c0,0,16.3-38.3,13.6-48.4
		c-4-12.6-10.2-35.1-12.8-38.1"/>
	<path class="st2" d="M827.4,441.6c-23.6-9.7-34.7-16.6-51.9-33.4c-19.8-20.6,8.6-86.7,10.1-84.3l11.9,8c0,0-11.7,53.8-6.4,59
		c9.4,9.3,34.4,14.2,38.1,15.7"/>
	<polygon class="st10" points="855.3,394.5 870.9,401.5 877.8,396.1 886.2,406.8 893,493.8 836.8,491.8 847.6,405.5 	"/>
	<polyline class="st15" points="872.9,486.8 880.9,474.8 874,413.5 875.9,405.5 870.9,401.5 865.9,405.5 868.9,413.5 863.9,476.8 	
		"/>
	<path class="st7" d="M896,541.3c0,0-0.7,11.6,5.8,15.9l-1.3,5.8l-21.6-0.6l4.5-17.6L896,541.3z"/>
	<path class="st16" d="M829.1,536.8c-0.2,0.4-1.1,5.7-1.3,10.6c0,0,42.7,3.9,68.2-2.8c0,0,0,1.7,0-1c0,0,3-3.1,3.8-3.7l0.9-2.2
		l-0.4-4.2L829.1,536.8z"/>
	<path class="st2" d="M885.3,403c0.1-0.3,15.8,5.3,21.8,13.2c0,0-2.2,27.7-4,36.8c-2.6,42.1,0.4,58.5,0.5,81.1c0,0-5.2,5-8.5,6
		c-14.7,4.3-72.4,5.4-72.6,1.6c4.6-40,2.7-91.9,2.8-99.2c0-4.3-4.3-13.3-4.1-16.8c0.2-4.6-11.1-22.3,4.3-20.1c4.2,0.3,17.3-3,17.3-3
		l8.3-3.2c0,0,14.2,29.9,20.5,29.9C876.7,429.3,882.7,413.8,885.3,403z"/>
</g>
<path class="st6" d="M849.5,400c-7.5,1.7-17.7-3.6-18.3,9.2c-0.6,12.8,12,5.6,12.5,1.8C844.2,407.2,843.1,404,849.5,400"/>
<path class="st4" d="M904.2,446.3l-1.3,12l3.4,9.9C906.3,468.2,905.3,453.7,904.2,446.3z"/>
<path class="st4" d="M1017.6,717.9c0,0,4.4,6,6,7.4c3,2.6,11.2,6.9,7.7,9.5c-12.9,0-18.9,0-27.5,0c-2.6,0,0.9-17.2,0.9-17.2
	L1017.6,717.9z"/>
<path class="st4" d="M943.5,718.8c0,0-4.4,6-6,7.4c-3,2.6-11.2,6.9-7.7,9.5c12.9,0,18.9,0,27.5,0c2.6,0-0.9-17.2-0.9-17.2
	L943.5,718.8z"/>
<g>
	
		<image style="overflow:visible;opacity:0.16;enable-background:new    ;" width="121" height="184" xlink:href="EC591F000EE9FF39.png"  transform="matrix(1 0 0 1 -425 638)">
	</image>
	<g>
		<g>
			<polyline class="st11" points="-402.1,736.6 -337.2,737.1 -341.1,783.3 -402.5,782.3 			"/>
			<polyline class="st12" points="-389.4,787.7 -354.4,787.4 -354.7,806.2 -387.7,806.3 			"/>
			<polyline class="st12" points="-364,754.8 -322.9,741.8 -316.9,759.6 -355.8,771.8 			"/>
			<g>
				<circle class="st12" cx="-361.4" cy="655.2" r="7.9"/>
				
					<rect x="-381" y="670.7" transform="matrix(0.1055 -0.9944 0.9944 0.1055 -993.5969 240.9594)" class="st12" width="36.3" height="4.1"/>
			</g>
			<polyline class="st11" points="-412.1,681.5 -326.3,685.1 -329.2,731.4 -410.3,727.4 			"/>
			<circle class="st10" cx="-348.3" cy="704.7" r="8.6"/>
			<circle class="st10" cx="-379.8" cy="702.6" r="8.6"/>
		</g>
	</g>
</g>
<rect x="-2241" y="394.6" class="st0" width="252.1" height="103.9"/>
<rect x="-2135.9" y="156.9" class="st0" width="378.1" height="103.9"/>
<rect x="-1645.7" y="517.5" class="st0" width="252.1" height="103.9"/>
<rect x="-2185.7" y="290.8" class="st0" width="252.1" height="103.9"/>
<rect x="-2013" y="216.8" class="st3" width="563" height="327.8"/>
<rect x="-1594" y="468" class="st3" width="111" height="153.6"/>
<rect x="-1866" y="217" class="st3" width="356" height="153.6"/>
<rect x="-2091" y="482" class="st3" width="265" height="153.6"/>
<rect x="-1705" y="165" class="st3" width="256" height="153.6"/>
<rect x="-2085" y="216" class="st3" width="114" height="140"/>
<rect x="-1968" y="189" class="st3" width="134" height="154.6"/>
<g>
	<rect x="11.2" y="-722.5" class="st15" width="73.7" height="37.3"/>
	<polygon class="st15" points="-11.7,-624.3 -11.7,-745.4 84.9,-745.4 84.9,-796.9 -85.1,-796.9 -85.1,-624.3 	"/>
	<polygon class="st15" points="11.2,-662.4 11.2,-601.4 -85.1,-601.4 -85.1,-549.9 84.9,-549.9 84.9,-662.4 	"/>
</g>
<g class="st1">
	<path class="st15" d="M1465.6,431.5c0,12.7-6.2,18.3-19.4,18.3h-39c-12.5,0-19.6-5.1-19.6-18.3V290.1c0-12.3,6.5-18.3,19.6-18.3h39
		c12.7,0,19.4,5.1,19.4,18.3V431.5z M1436.3,423.5V298.1h-19.6v125.4H1436.3z"/>
	<path class="st15" d="M1589,431.1c0,13.6-6.9,18.7-20.1,18.7H1531c-13.2,0-20.1-5.1-20.1-18.7V271.8h29.2v151.7h19.6V271.8h29.2
		v159.3H1589z"/>
	<path class="st15" d="M1712.3,449.8h-29.2v-65.6h-19.6v65.6h-29.2v-178h58c13.2,0,20.1,5.4,20.1,19v65.6c0,8.7-4,12.7-10.7,14.7
		v0.7c6.5,0.7,10.7,4.7,10.7,13.4v64.6H1712.3z M1683.1,358.1v-60h-19.6v60H1683.1z"/>
</g>
<g id="Layer_8">
</g>
<path class="st4" d="M-1664,761.4c0,0-5.1,7-7,8.6c-3.5,3.1-13,8-9,11c15,0,22,0,32,0c3,0-1-20-1-20L-1664,761.4z"/>
<path class="st4" d="M-1579.8,760.4c0,0,5.1,7,7,8.6c3.5,3.1,13,8,9,11c-15,0-22,0-32,0c-3,0,1-20,1-20L-1579.8,760.4z"/>
<path class="st4" d="M-1837.8,762.4c0,0,5.1,7,7,8.6c3.5,3.1,13,8,9,11c-15,0-22,0-32,0c-3,0,1-20,1-20L-1837.8,762.4z"/>
<path class="st4" d="M-1920,763.4c0,0-5.1,7-7,8.6c-3.5,3.1-13,8-9,11c15,0,22,0,32,0c3,0-1-20-1-20L-1920,763.4z"/>
<g>
	<path class="st4" d="M-1750.7,534.3c-11.6,39.2,8.9,50.7,21.2,142.3c3.2,23.6,5.7,46.9,9.5,85.1c0,0,4.4,1.8,8.9,1.6
		c8.6-0.5,11.1-1.3,11.1-1.3s-1.7-44.4-0.4-89.7c1.4-48.8-7-108-7.5-112.5C-1710.8,515.5-1750.7,534.3-1750.7,534.3z"/>
	<path class="st4" d="M-1785.1,539.1c-6.8,24.8-2.2,43.2-5.4,124.8c-1.1,28.6,1.3,53.9,0.4,98.8c0,0,0.5,2,6,2
		c7.3,0,11.1-0.1,13.1-0.8c0,0,6.3-51.4,10.7-98c4.1-43.1,12.4-61.5,13.8-84.7C-1726.7,513.9-1776.7,536.7-1785.1,539.1z"/>
	<path class="st5" d="M-1788.4,559.3l1.7-12.6l75.4-5.2c0,0,2.5,9.8,3,15c0,0-3.2,3.1-6.8,3.5
		C-1730.9,562.1-1774.4,561.7-1788.4,559.3z"/>
	<path class="st4" d="M-1729.2,595.5h-33.8c-4.4,0-8-3.6-8-8v-12.8c0-4.4,3.6-8,8-8h33.8c4.4,0,8,3.6,8,8v12.8
		C-1721.2,591.9-1724.8,595.5-1729.2,595.5z"/>
	<path class="st10" d="M-1789.5,399.2c0,0-53.6,26.2-61.8,27.3c-8.1,1-44.8-29.2-44.8-29.2l-5.2,13.4l45.5,44.3l65-17.8"/>
	<path class="st4" d="M-1787.1,316.7c-3.2,11.2,2.3,30.7-4.2,42s-9.6,58.9,21.3,63.1s52,0.2,57.2-14.2c2-5.6-2.9-33.4,0-46.3
		c4.2-18.7,5.4-45.7-0.7-57.3C-1719.8,292.1-1771.5,261.7-1787.1,316.7z"/>
	<path class="st10" d="M-1731.9,391.1c0,0,71.1,33.7,79.2,34.7s44.8-29.2,44.8-29.2l5.2,13.4l-45.5,44.3l-59-16"/>
	<path class="st6" d="M-1761.9,361.8c0.3,9.6,1.3,27.1-2.1,29.5c-1.3,0.9,6,31.7,15,33.2c6,1,21.2-22.9,17.1-33.4
		c-0.4,2.1-4.7-9.8-4-25.5C-1735.4,354.9-1761.9,361.8-1761.9,361.8z"/>
	<path class="st6" d="M-1769.4,359.3c5.2,8.5,11.6,14.8,22.8,14.8c9.1,0,13.9-3.9,19.3-13.7c6.4-11.4,8.5-40-0.4-53.9
		c-9-13.9-31.1-11.8-41,0C-1778.7,318.3-1778.3,344.6-1769.4,359.3z"/>
	<path class="st4" d="M-1713.6,337.7c-8.2-3.5-14.7-13.9-17.2-22.5c-17,17.3-33.3,28.5-49.1,28.5c0,0-2.9-34.8,3.6-37.9
		s24.6-19.6,38.1-11.7C-1706.3,313.1-1713.6,337.7-1713.6,337.7z"/>
	<path class="st10" d="M-1714.7,553.1c-17,5-77.9,4.1-78.2-0.4c12.4-73.5,1-104.5,2.1-115.6c0,0-2-10.5-2-17
		c0.3-5.3-1.5-18.7-1.5-18.7c4.8-2.3,10.4-5.4,16.3-7.5c2.7-1,14-2.7,14-2.7s4.7,14.1,16.6,25.7c10.5-8.6,15.5-25.9,15.5-25.9
		l14.3,5.3c0,0,10.1,4.9,18.5,9.9c0,0-5.8,31.4-7.8,42c-7.3,52.4,1.2,72.2,2.2,97.9C-1704.7,546.2-1710.8,552-1714.7,553.1z"/>
	<path class="st8" d="M-1761.7,368.9c3.1,5,18.4,9.2,25.7,2.2l0.3,2.1c0,0-11.5,12.6-26-2V368.9z"/>
</g>
<g>
	<path class="st2" d="M-1627.7,536.6c-11.6,39.2,8.9,50.7,21.2,142.3c3.2,23.6,5.7,46.9,9.5,85.1c0,0,4.4,1.8,8.9,1.6
		c8.6-0.5,11.1-1.3,11.1-1.3s-1.7-44.4-0.4-89.7c1.4-48.8-1.8-108.4-5.5-115.3C-1585.7,515-1627.7,536.6-1627.7,536.6z"/>
	<path class="st2" d="M-1667.3,541.8c-6.8,24.8-5.9,39.7-3.7,122.5c0.8,28.6,4.8,55.8,3.9,100.7c0,0,0.5,2,6,2
		c7.3,0,11.1-0.1,13.1-0.8c0,0,6.3-51.4,10.7-98c4.1-43.1,12.4-61.5,13.8-84.7C-1603.7,516.2-1658.9,539.3-1667.3,541.8z"/>
	<path class="st2" d="M-1606.2,597.8h-33.8c-4.4,0-8-3.6-8-8V577c0-4.4,3.6-8,8-8h33.8c4.4,0,8,3.6,8,8v12.8
		C-1598.2,594.2-1601.8,597.8-1606.2,597.8z"/>
	<path class="st4" d="M-1628.3,285c-4,2.3-5.6,4.7-5.7,9.8c-0.1,4.9-3,14.7,8.6,16.3c11.7,1.6,16.3-1.5,18.2-7
		c1.9-5.4,2.1-10.1-1.3-15C-1609.8,287.3-1619.8,280.1-1628.3,285z"/>
	<path class="st4" d="M-1650,300.7c-9.7,5.6-13.6,11.3-13.9,23.8c-0.3,12-7.4,35.8,20.9,39.6s39.5-3.8,44.2-17s5-24.5-3.3-36.4
		C-1605.1,306.3-1629.4,288.8-1650,300.7z"/>
	<path class="st9" d="M-1641.6,393.8c-0.6,1.3-3.7,19.6,11.7,22.5c18.6,3.5,14.7-14.9,18.8-18.1c0,0-2.4-9.9-3.8-19
		c-0.9-9.4,1.3-7.6,4.6-19.7c0-0.1,0-0.1,0.1-0.2c4.7-11.5,4.5-31.6-2.6-42.6c-8.2-12.8-28.5-10.8-37.7,0
		c-9.1,10.8-9.7,29.5-0.9,49.9c2.7,6.3,6.2,9.5,11,11C-1640.4,377.6-1640,390.3-1641.6,393.8z"/>
	<path class="st10" d="M-1592.8,553.5c-17,5-77.9,4.1-78.2-0.4c5.3-46.5-4.7-108.7-2.9-113c0,0-5-15.4-4.7-19.5
		c0.3-5.3-0.2-5.1,7.9-16.2c1.9-2.7,15.8-7.9,15.8-7.9l14-5.5c0,0,3.5,11.8,10.7,11.8c13,0,17.5-12.1,17.5-12.1l13.7,7.2
		c0,0,10.6,4.2,17.4,9.1c0,0,0.3,34.6-1.8,45.2c-7.3,52.4-0.4,68.6,0.5,94.3C-1582.9,546.5-1589,552.4-1592.8,553.5z"/>
	<path class="st3" d="M-1622.4,479.1c0,0,11.3,0.4,14.3,2.7c0,0-1.1,10.6-0.9,11.6c0,0-10.1-1.4-13-1.4c0,0-6.8,1.6-18.6,4
		c0,0-0.9-6.5-1.1-13L-1622.4,479.1z"/>
	<path class="st4" d="M-1604.9,351.4c-9.4,1-11.8-8.1-15.2-23.3c-6.5,8.9-26.4,19.9-40.9,19.9c0,0-2.4-27.8,3.6-30.6
		c6-2.8,22.6-18,34.9-10.7C-1593.3,324-1604.9,351.4-1604.9,351.4z"/>
	<path class="st4" d="M-1582.4,557.8c-0.1,0.8,1.4,10.2,1.5,11.2c0.1,1.1-13.9,2.4-23.5,0c-2.9-0.7-5.3-9.6-3.5-11.5
		c1.7-1.8,22,0.3,22,0.3H-1582.4z"/>
	<path class="st4" d="M-1640.7,556.8c-0.1,0.8,1.4,10.1,1.7,11c0.3,1-0.1,4.5-32.9,2.3c0,0,0.1-7.2,1.9-9.1
		c1.7-1.8,21.3-4.1,21.3-4.1L-1640.7,556.8z"/>
	<path class="st11" d="M-1585.5,405.1c3.4,22.3-3.9,104.5,7.1,158.7c1.1,5.4-26.8,3.3-29.5,0.5c-4.4-4.6-2.8-55.7,0.5-93
		c4.4-49.3-0.7-78.3-0.7-78.3L-1585.5,405.1z"/>
	<path class="st11" d="M-1668,400.2c-3.4,22.3,4.4,101.3-9.9,163.3c-1.2,5.4,40.2,3.8,39.8,1.3c-4.5-32.4,0.4-54.3-4.7-90.2
		c-7.5-52.7-2-82-2-82L-1668,400.2z"/>
	<path class="st12" d="M-1641.7,485.1c0.4,0.2,1,7.4,1.2,10.9c0,0-19.1,3.4-29.7,4c0,0,0.2-4.2,0-10.6L-1641.7,485.1z"/>
	<path class="st9" d="M-1645.5,462.4c-7.5-1.2-14.5-3.1-24.1,8.2c-9.6,11.4,7.1,13.7,10.3,10.5c3.2-3.2,5.2-11.5,13.8-10.7"/>
	<path class="st12" d="M-1584,484c-0.4,2.4-0.7,5.9-0.5,9.5c0,0-12,2.3-24.4,0c0,0,0.3-8.3,1-10.4L-1584,484z"/>
	<path class="st11" d="M-1663.5,449.6c0,0-3,8-5.7,20.7c6.1,2.5,55.9-4.3,55.9-4.3l5.4,13.9c0,0-46.7,15.8-72.8,16.8
		c-11.3,0.4-13.5-11.8-13.5-17.9c0-28.2,12.4-69.6,26.3-78.5"/>
	<path class="st9" d="M-1608.6,466c6.9-3.2,13-7.2,25.5,1s-2.9,15.1-6.9,13c-3.9-2.1-8.3-9.6-16.3-6.3"/>
	<path class="st11" d="M-1585.5,404.7c11.4,7.1,17.2,40.2,21.5,69c0.7,4.5,0.2,16.1-8.6,17.2c-19.1,2.3-67.4-17-79.4-20.8
		c0,0,0.6-9.7,2.6-9.4c35.9,5.1,64.2,9,64.2,9l-5.1-24.3"/>
	<path class="st11" d="M-1494.3,351.4"/>
	<path class="st12" d="M-1623,484.5c0,0-29.6-12.3-28.9-14.3l36.3,12L-1623,484.5z"/>
	<path class="st13" d="M-1617.5,369.4c0,0-11.2,9.8-23,8.1c0,0,0.5-0.6,0.2,3.1C-1640.3,380.6-1625.6,379.9-1617.5,369.4z"/>
</g>
<path class="st6" d="M-1607.4,393.1c8.9,1.3,20.1-5.9,22.1,8.8c2,14.7-13.4,7.7-14.3,3.3S-1599.7,397-1607.4,393.1"/>
<polygon class="st3" points="-1881.9,401.6 -1877.3,400.2 -1877.9,398.5 "/>
<polygon class="st3" points="-1866.4,398.5 -1864,400.4 -1866.8,400 "/>
<g>
	<path class="st14" d="M-1969.6,310.1c-0.1-7.6-1.1-14.8,11.5-22.7c12.6-7.9,12.5,9,9,11.7s-12.1,3.5-12.5,12.2"/>
	<path class="st7" d="M-1880.8,535c-11.6,39.2,3.9,43.5,16.2,135.1c3.2,23.6,5.4,55,9.2,93.2c0,0,9.7,0.9,14.3,0.7
		c8.6-0.5,11.1-1.3,11.1-1.3s2.3-52.4,0-96.9c-2.5-48.8-7.1-110.4-7.6-115C-1840.5,506.5-1880.8,535-1880.8,535z"/>
	<path class="st7" d="M-1922,556.5c-1.7,28.2,0.2,28.5-3,110.1c-1.1,28.6,0.8,52.4-0.1,97.4c0,0,5.6,1.4,11,1.4
		c7.3,0,11.1-0.1,13.1-0.8c0,0,6.3-51.4,10.7-98c4.1-43.1,12.4-61.5,13.8-84.7C-1856.8,514.6-1913.6,554.1-1922,556.5z"/>
	<path class="st7" d="M-1859.2,596.2h-33.8c-4.4,0-8-3.6-8-8v-12.8c0-4.4,3.6-8,8-8h33.8c4.4,0,8,3.6,8,8v12.8
		C-1851.2,592.6-1854.8,596.2-1859.2,596.2z"/>
	<path class="st4" d="M-1896.7,311.6c-5.1-2.7-11.1,1.3-11,7c0,3.8-0.6,8.4-2.9,12.6c-5.4,9.7,6.2,15.7,9.6,21s2.1,14.3,9.4,17
		s26.3,0.2,28-7.2C-1862.4,356-1879.4,320.7-1896.7,311.6z"/>
	<path class="st14" d="M-1872.8,302.8c-17.9,0.3-24.3,13.2-24.3,36.8c0,8.9,4.2,17.6,7.5,23.1c2.4,4.1,3.2,9,1.9,13.6l-3.7,13.4
		c-2.4,12.4,3.5,19,12.2,21.3c4.3,1.2,9.4,0.1,13.1-2.4c4.4-3,4.7-9.1,3.8-14.4l-1.1-3.8c-1.5-5.1,1.4-10.7,6.5-11.9
		c4-1,8.1-0.3,11-2.4s9.5-23.6,5.8-46.1C-1843.8,306.8-1854.9,302.6-1872.8,302.8z"/>
	<path class="st4" d="M-1837,300.2c-4-5.2-7.7,3-13,2.6c-1.2-0.1-2.5-0.3-3.9-0.7l-19.9-5.5c-12,0.2-31.8,7.3-29,24.6l2.3,11.8
		c1,5,1.8,3,6.9,3.6l4.3,3.8c0.4,1.7,1.1,4.8,2.8,4.8c2.2,0,3.9-1.8,3.8-3.9c0-5.5,3.7-10.3,9.1-11.6c6.6-1.6,13.4-5.1,20.9-3.1
		c0.1,0,0.1,0,0.1,0c6.4,1.6,14,3.7,16.9-4.7C-1833.9,317-1834.7,304.1-1837,300.2z"/>
	<path class="st14" d="M-1889.3,342.6c-0.4,4.4-2.3,7.9-6.7,7.5c-4.2-0.4-6.4-6.7-6-11.1s3.2-5.3,7.5-4.9
		C-1890.2,334.3-1888.9,338.1-1889.3,342.6z"/>
	<path class="st4" d="M-1882.6,341.4c-0.5,7.4,2.1,13.1,4.4,14.9c2.3,1.7,28.7,2.1,38.3,0.9c3.9,3.8,0.9,14.1-6.6,20.7
		c-6.2,5.4-25.9-3.9-34.7-7.7c-6.9-3-7.5-27.2-8.7-32.7C-1891,331.8-1882.2,336.3-1882.6,341.4z"/>
	<path class="st14" d="M-1828.6,551c0,0,1.1,8.8-7.2,21c-8.4,12.3-15.8-3.7-12.9-7.1c4.7-5.4,12.1-12.2,12.1-12.2"/>
	<path class="st2" d="M-1834.7,406.3c14.3,7.5,28.6,63.3,31.6,91.3c2.3,23.9-24.4,65-24.4,64.9l-11.2-7.8c0,0,18.9-44.5,15.9-56.2
		c-4.6-14.7-11.9-40.8-14.8-44.3"/>
	<path class="st2" d="M-1922.7,440.3c-27.4-11.2-40.3-19.3-60.3-38.7c-23-23.9,10-100.7,11.8-97.9l15.1,7.1c0,0-14.8,64.7-8.7,70.8
		c10.9,10.8,40,16.5,44.3,18.2"/>
	<polygon class="st10" points="-1890.3,385.7 -1872.1,393.8 -1864.2,387.5 -1854.4,399.9 -1846.5,501 -1911.8,498.7 -1899.2,398.5 	
		"/>
	<polyline class="st15" points="-1869.8,492.9 -1860.5,478.9 -1868.6,407.8 -1866.4,398.5 -1872.1,393.8 -1877.9,398.5 
		-1874.5,407.8 -1880.3,481.2 	"/>
	<path class="st7" d="M-1843,556.2c0,0-0.9,13.5,6.8,18.5l-1.5,6.8l-25.1-0.7l5.3-20.5L-1843,556.2z"/>
	<path class="st16" d="M-1920.7,551c-0.2,0.5-1.3,6.7-1.5,12.3c0,0,49.6,4.6,79.2-3.3c0,0,0,1.9,0-1.2c0,0,3.5-3.6,4.4-4.3l1.1-2.6
		l-0.4-4.9L-1920.7,551z"/>
	<path class="st2" d="M-1855.4,395.5c0.1-0.3,18.4,6.1,25.3,15.3c0,0-2.6,32.1-4.6,42.7c-3,49,0.4,67.9,0.5,94.3c0,0-6.1,5.8-9.9,7
		c-17,5-84.1,6.3-84.3,1.8c5.3-46.5,3.1-106.7,3.2-115.2c0.1-5-5-15.4-4.7-19.5c0.3-5.3-12.9-25.9,5-23.4c4.9,0.4,20.1-3.5,20.1-3.5
		l9.7-3.7c0,0,15.9,29.5,23.1,29.5C-1863,420.8-1858.4,408.1-1855.4,395.5z"/>
</g>
<path class="st6" d="M-1897.2,392.1c-8.7,2-20.6-4.2-21.2,10.7c-0.7,14.9,14,6.5,14.6,2.1S-1904.6,396.7-1897.2,392.1"/>
<path class="st4" d="M-1833.6,445.8l-1.5,13.9l3.9,11.6C-1831.2,471.3-1832.3,454.4-1833.6,445.8z"/>
<image style="display:none;overflow:visible;enable-background:new    ;" width="789" height="226" id="Layer_0" xlink:href="EC591F000EE9FF3B.png"  transform="matrix(0.9078 0 0 0.9078 878.3657 498)">
</image>
<path class="st4" d="M-1701.8,761.4c0,0,5.1,7,7,8.6c3.5,3.1,13,8,9,11c-15,0-22,0-32,0c-3,0,1-20,1-20L-1701.8,761.4z"/>
<path class="st4" d="M-1788,762.4c0,0-5.1,7-7,8.6c-3.5,3.1-13,8-9,11c15,0,22,0,32,0c3,0-1-20-1-20L-1788,762.4z"/>
<g>
	<g>
		<g>
			<polyline class="st15" points="715,660.2 770.3,660.5 766.9,700 714.6,699 			"/>
			<polyline class="st17" points="725.8,703.7 755.6,703.4 755.4,719.5 727.2,719.5 			"/>
			<polyline class="st17" points="747.4,675.7 782.4,664.5 787.5,679.8 754.4,690.1 			"/>
			<g class="st1">
				<circle class="st17" cx="749.6" cy="590.8" r="6.7"/>
				
					<rect x="733" y="604" transform="matrix(0.1055 -0.9944 0.9944 0.1055 67.0821 1286.058)" class="st17" width="30.9" height="3.5"/>
			</g>
			<polyline class="st15" points="706.4,613.2 779.5,616.3 777.1,655.7 707.9,652.3 			"/>
			<circle class="st10" cx="760.8" cy="633" r="7.4"/>
			<circle class="st10" cx="733.9" cy="631.2" r="7.4"/>
		</g>
	</g>
</g>
<rect x="458.5" y="1215.5" class="st3" width="645" height="487.2"/>
<g class="st1">
	<path class="st2" d="M1405.6,1553.4c0,9.3-4.6,13.4-14.3,13.4h-28.7c-9.2,0-14.4-3.8-14.4-13.4v-103.9c0-9,4.8-13.4,14.4-13.4h28.7
		c9.3,0,14.3,3.8,14.3,13.4V1553.4z M1384.2,1547.5v-92.1h-14.4v92.1H1384.2z"/>
	<path class="st2" d="M1496.3,1553c0,10-5.1,13.8-14.8,13.8h-27.9c-9.7,0-14.8-3.8-14.8-13.8v-117h21.5v111.5h14.4V1436h21.5v117
		H1496.3z"/>
	<path class="st2" d="M1587,1566.8h-21.5v-48.2h-14.4v48.2h-21.5V1436h42.6c9.7,0,14.8,3.9,14.8,13.9v48.2c0,6.4-3,9.3-7.9,10.8v0.5
		c4.8,0.5,7.9,3.4,7.9,9.8V1566.8z M1565.5,1499.4v-44.1h-14.4v44.1H1565.5z"/>
	<path class="st2" d="M1729.4,1553.4c0,9.8-5.1,13.4-14.6,13.4h-39.3v-19.3h32.5v-35.7h-18.7c-10,0-13.8-5.1-13.8-14.8v-47.1
		c0-10,5.1-13.9,14.8-13.9h36.1v19.3H1697v37.4h18.7c10,0,13.8,5.2,13.8,14.9L1729.4,1553.4L1729.4,1553.4z"/>
	<path class="st2" d="M1819.8,1455.3h-18.9v111.5h-21.5v-111.5h-18.7V1436h59L1819.8,1455.3L1819.8,1455.3z"/>
	<path class="st2" d="M1908.5,1553.4c0,9.3-4.6,13.4-14.3,13.4h-28.7c-9.2,0-14.4-3.8-14.4-13.4v-103.9c0-9,4.8-13.4,14.4-13.4h28.7
		c9.3,0,14.3,3.8,14.3,13.4V1553.4z M1887,1547.5v-92.1h-14.4v92.1H1887z"/>
	<path class="st2" d="M1999.1,1566.8h-21.5v-48.2h-14.4v48.2h-21.5V1436h42.6c9.7,0,14.8,3.9,14.8,13.9v48.2c0,6.4-3,9.3-7.9,10.8
		v0.5c4.8,0.5,7.9,3.4,7.9,9.8V1566.8z M1977.7,1499.4v-44.1h-14.4v44.1H1977.7z"/>
	<path class="st2" d="M2090,1501.7c0,10-5.2,13.4-14.9,13.4h-3v51.6h-21.5v-51.6h-3.4c-9.7,0-14.8-3.4-14.8-13.4V1436h21.5v60.2
		h14.6V1436h21.5V1501.7z"/>
</g>
<path class="st2" d="M2140.5,1752.5"/>
<rect x="758.5" y="1171.5" class="st0" width="410" height="288.1"/>
<rect x="377.5" y="1512.6" class="st0" width="410" height="144"/>
<path class="st4" d="M884.5,1758.9c0,0-5.1,7-7,8.6c-3.5,3.1-13,8-9,11c15,0,22,0,32,0c3,0-1-20-1-20L884.5,1758.9z"/>
<path class="st4" d="M968.7,1757.9c0,0,5.1,7,7,8.6c3.5,3.1,13,8,9,11c-15,0-22,0-32,0c-3,0,1-20,1-20L968.7,1757.9z"/>
<path class="st4" d="M710.7,1759.9c0,0,5.1,7,7,8.6c3.5,3.1,13,8,9,11c-15,0-22,0-32,0c-3,0,1-20,1-20L710.7,1759.9z"/>
<path class="st4" d="M628.5,1760.9c0,0-5.1,7-7,8.6c-3.5,3.1-13,8-9,11c15,0,22,0,32,0c3,0-1-20-1-20L628.5,1760.9z"/>
<g>
	<path class="st4" d="M797.8,1531.8c-11.6,39.2,8.9,50.7,21.2,142.3c3.2,23.6,5.7,46.9,9.5,85.1c0,0,4.4,1.8,8.9,1.6
		c8.6-0.5,11.1-1.3,11.1-1.3s-1.7-44.4-0.4-89.7c1.4-48.8-7-108-7.5-112.5C837.7,1513,797.8,1531.8,797.8,1531.8z"/>
	<path class="st4" d="M763.4,1536.6c-6.8,24.8-2.2,43.2-5.4,124.8c-1.1,28.6,1.3,53.9,0.4,98.8c0,0,0.5,2,6,2
		c7.3,0,11.1-0.1,13.1-0.8c0,0,6.3-51.4,10.7-98c4.1-43.1,12.4-61.5,13.8-84.7C821.8,1511.4,771.8,1534.2,763.4,1536.6z"/>
	<path class="st5" d="M760.1,1556.8l1.7-12.6l75.4-5.2c0,0,2.5,9.8,3,15c0,0-3.2,3.1-6.8,3.5
		C817.6,1559.6,774.1,1559.2,760.1,1556.8z"/>
	<path class="st4" d="M819.3,1593h-33.8c-4.4,0-8-3.6-8-8v-12.8c0-4.4,3.6-8,8-8h33.8c4.4,0,8,3.6,8,8v12.8
		C827.3,1589.4,823.7,1593,819.3,1593z"/>
	<path class="st10" d="M759,1396.7c0,0-53.6,26.2-61.8,27.3c-8.1,1-44.8-29.2-44.8-29.2l-5.2,13.4l45.5,44.3l65-17.8"/>
	<path class="st4" d="M761.4,1314.2c-3.2,11.2,2.3,30.7-4.2,42s-9.6,58.9,21.3,63.1c30.9,4.2,52,0.2,57.2-14.2
		c2-5.6-2.9-33.4,0-46.3c4.2-18.7,5.4-45.7-0.7-57.3C828.7,1289.6,777,1259.2,761.4,1314.2z"/>
	<path class="st10" d="M816.6,1388.6c0,0,71.1,33.7,79.2,34.7c8.1,1,44.8-29.2,44.8-29.2l5.2,13.4l-45.5,44.3l-59-16"/>
	<path class="st6" d="M786.6,1359.3c0.3,9.6,1.3,27.1-2.1,29.5c-1.3,0.9,6,31.7,15,33.2c6,1,21.2-22.9,17.1-33.4
		c-0.4,2.1-4.7-9.8-4-25.5C813.1,1352.4,786.6,1359.3,786.6,1359.3z"/>
	<path class="st6" d="M779.1,1356.8c5.2,8.5,11.6,14.8,22.8,14.8c9.1,0,13.9-3.9,19.3-13.7c6.4-11.4,8.5-40-0.4-53.9
		c-9-13.9-31.1-11.8-41,0C769.8,1315.8,770.2,1342.1,779.1,1356.8z"/>
	<path class="st4" d="M834.9,1335.2c-8.2-3.5-14.7-13.9-17.2-22.5c-17,17.3-33.3,28.5-49.1,28.5c0,0-2.9-34.8,3.6-37.9
		s24.6-19.6,38.1-11.7C842.2,1310.6,834.9,1335.2,834.9,1335.2z"/>
	<path class="st10" d="M833.8,1550.6c-17,5-77.9,4.1-78.2-0.4c12.4-73.5,1-104.5,2.1-115.6c0,0-2-10.5-2-17
		c0.3-5.3-1.5-18.7-1.5-18.7c4.8-2.3,10.4-5.4,16.3-7.5c2.7-1,14-2.7,14-2.7s4.7,14.1,16.6,25.7c10.5-8.6,15.5-25.9,15.5-25.9
		l14.3,5.3c0,0,10.1,4.9,18.5,9.9c0,0-5.8,31.4-7.8,42c-7.3,52.4,1.2,72.2,2.2,97.9C843.8,1543.7,837.7,1549.5,833.8,1550.6z"/>
	<path class="st8" d="M786.8,1366.4c3.1,5,18.4,9.2,25.7,2.2l0.3,2.1c0,0-11.5,12.6-26-2V1366.4z"/>
</g>
<g>
	<path class="st2" d="M920.8,1534.1c-11.6,39.2,8.9,50.7,21.2,142.3c3.2,23.6,5.7,46.9,9.5,85.1c0,0,4.4,1.8,8.9,1.6
		c8.6-0.5,11.1-1.3,11.1-1.3s-1.7-44.4-0.4-89.7c1.4-48.8-1.8-108.4-5.5-115.3C962.8,1512.5,920.8,1534.1,920.8,1534.1z"/>
	<path class="st2" d="M881.2,1539.3c-6.8,24.8-5.9,39.7-3.7,122.5c0.8,28.6,4.8,55.8,3.9,100.7c0,0,0.5,2,6,2
		c7.3,0,11.1-0.1,13.1-0.8c0,0,6.3-51.4,10.7-98c4.1-43.1,12.4-61.5,13.8-84.7C944.8,1513.7,889.6,1536.8,881.2,1539.3z"/>
	<path class="st2" d="M942.3,1595.3h-33.8c-4.4,0-8-3.6-8-8v-12.8c0-4.4,3.6-8,8-8h33.8c4.4,0,8,3.6,8,8v12.8
		C950.3,1591.7,946.7,1595.3,942.3,1595.3z"/>
	<path class="st4" d="M920.2,1282.5c-4,2.3-5.6,4.7-5.7,9.8c-0.1,4.9-3,14.7,8.6,16.3c11.7,1.6,16.3-1.5,18.2-7
		c1.9-5.4,2.1-10.1-1.3-15C938.7,1284.8,928.7,1277.6,920.2,1282.5z"/>
	<path class="st4" d="M898.5,1298.2c-9.7,5.6-13.6,11.3-13.9,23.8c-0.3,12-7.4,35.8,20.9,39.6c28.3,3.8,39.5-3.8,44.2-17
		s5-24.5-3.3-36.4C943.4,1303.8,919.1,1286.3,898.5,1298.2z"/>
	<path class="st9" d="M906.9,1391.3c-0.6,1.3-3.7,19.6,11.7,22.5c18.6,3.5,14.7-14.9,18.8-18.1c0,0-2.4-9.9-3.8-19
		c-0.9-9.4,1.3-7.6,4.6-19.7c0-0.1,0-0.1,0.1-0.2c4.7-11.5,4.5-31.6-2.6-42.6c-8.2-12.8-28.5-10.8-37.7,0
		c-9.1,10.8-9.7,29.5-0.9,49.9c2.7,6.3,6.2,9.5,11,11C908.1,1375.1,908.5,1387.8,906.9,1391.3z"/>
	<path class="st10" d="M955.7,1551c-17,5-77.9,4.1-78.2-0.4c5.3-46.5-4.7-108.7-2.9-113c0,0-5-15.4-4.7-19.5
		c0.3-5.3-0.2-5.1,7.9-16.2c1.9-2.7,15.8-7.9,15.8-7.9l14-5.5c0,0,3.5,11.8,10.7,11.8c13,0,17.5-12.1,17.5-12.1l13.7,7.2
		c0,0,10.6,4.2,17.4,9.1c0,0,0.3,34.6-1.8,45.2c-7.3,52.4-0.4,68.6,0.5,94.3C965.6,1544,959.5,1549.9,955.7,1551z"/>
	<path class="st3" d="M926.1,1476.6c0,0,11.3,0.4,14.3,2.7c0,0-1.1,10.6-0.9,11.6c0,0-10.1-1.4-13-1.4c0,0-6.8,1.6-18.6,4
		c0,0-0.9-6.5-1.1-13L926.1,1476.6z"/>
	<path class="st4" d="M943.6,1348.9c-9.4,1-11.8-8.1-15.2-23.3c-6.5,8.9-26.4,19.9-40.9,19.9c0,0-2.4-27.8,3.6-30.6
		c6-2.8,22.6-18,34.9-10.7C955.2,1321.5,943.6,1348.9,943.6,1348.9z"/>
	<path class="st4" d="M966.1,1555.3c-0.1,0.8,1.4,10.2,1.5,11.2c0.1,1.1-13.9,2.4-23.5,0c-2.9-0.7-5.3-9.6-3.5-11.5
		c1.7-1.8,22,0.3,22,0.3H966.1z"/>
	<path class="st4" d="M907.8,1554.3c-0.1,0.8,1.4,10.1,1.7,11c0.3,1-0.1,4.5-32.9,2.3c0,0,0.1-7.2,1.9-9.1
		c1.7-1.8,21.3-4.1,21.3-4.1L907.8,1554.3z"/>
	<path class="st11" d="M963,1402.6c3.4,22.3-3.9,104.5,7.1,158.7c1.1,5.4-26.8,3.3-29.5,0.5c-4.4-4.6-2.8-55.7,0.5-93
		c4.4-49.3-0.7-78.3-0.7-78.3L963,1402.6z"/>
	<path class="st11" d="M880.5,1397.7c-3.4,22.3,4.4,101.3-9.9,163.3c-1.2,5.4,40.2,3.8,39.8,1.3c-4.5-32.4,0.4-54.3-4.7-90.2
		c-7.5-52.7-2-82-2-82L880.5,1397.7z"/>
	<path class="st12" d="M906.8,1482.6c0.4,0.2,1,7.4,1.2,10.9c0,0-19.1,3.4-29.7,4c0,0,0.2-4.2,0-10.6L906.8,1482.6z"/>
	<path class="st9" d="M903,1459.9c-7.5-1.2-14.5-3.1-24.1,8.2c-9.6,11.4,7.1,13.7,10.3,10.5s5.2-11.5,13.8-10.7"/>
	<path class="st12" d="M964.5,1481.5c-0.4,2.4-0.7,5.9-0.5,9.5c0,0-12,2.3-24.4,0c0,0,0.3-8.3,1-10.4L964.5,1481.5z"/>
	<path class="st11" d="M885,1447.1c0,0-3,8-5.7,20.7c6.1,2.5,55.9-4.3,55.9-4.3l5.4,13.9c0,0-46.7,15.8-72.8,16.8
		c-11.3,0.4-13.5-11.8-13.5-17.9c0-28.2,12.4-69.6,26.3-78.5"/>
	<path class="st9" d="M939.9,1463.5c6.9-3.2,13-7.2,25.5,1c12.4,8.2-2.9,15.1-6.9,13s-8.3-9.6-16.3-6.3"/>
	<path class="st11" d="M963,1402.2c11.4,7.1,17.2,40.2,21.5,69c0.7,4.5,0.2,16.1-8.6,17.2c-19.1,2.3-67.4-17-79.4-20.8
		c0,0,0.6-9.7,2.6-9.4c35.9,5.1,64.2,9,64.2,9l-5.1-24.3"/>
	<path class="st11" d="M1054.2,1348.9"/>
	<path class="st12" d="M925.5,1482c0,0-29.6-12.3-28.9-14.3l36.3,12L925.5,1482z"/>
	<path class="st13" d="M931,1366.9c0,0-11.2,9.8-23,8.1c0,0,0.5-0.6,0.2,3.1C908.2,1378.1,922.9,1377.4,931,1366.9z"/>
</g>
<path class="st6" d="M941.1,1390.6c8.9,1.3,20.1-5.9,22.1,8.8s-13.4,7.7-14.3,3.3C947.9,1398.3,948.8,1394.5,941.1,1390.6"/>
<polygon class="st3" points="666.6,1399.1 671.2,1397.7 670.6,1396 "/>
<polygon class="st3" points="682.1,1396 684.5,1397.9 681.7,1397.5 "/>
<g>
	<path class="st14" d="M578.9,1307.6c-0.1-7.6-1.1-14.8,11.5-22.7c12.6-7.9,12.5,9,9,11.7c-3.6,2.7-12.1,3.5-12.5,12.2"/>
	<path class="st7" d="M667.7,1532.5c-11.6,39.2,3.9,43.5,16.2,135.1c3.2,23.6,5.4,55,9.2,93.2c0,0,9.7,0.9,14.3,0.7
		c8.6-0.5,11.1-1.3,11.1-1.3s2.3-52.4,0-96.9c-2.5-48.8-7.1-110.4-7.6-115C708,1504,667.7,1532.5,667.7,1532.5z"/>
	<path class="st7" d="M626.5,1554c-1.7,28.2,0.2,28.5-3,110.1c-1.1,28.6,0.8,52.4-0.1,97.4c0,0,5.6,1.4,11,1.4
		c7.3,0,11.1-0.1,13.1-0.8c0,0,6.3-51.4,10.7-98c4.1-43.1,12.4-61.5,13.8-84.7C691.7,1512.1,634.9,1551.6,626.5,1554z"/>
	<path class="st7" d="M689.3,1593.7h-33.8c-4.4,0-8-3.6-8-8v-12.8c0-4.4,3.6-8,8-8h33.8c4.4,0,8,3.6,8,8v12.8
		C697.3,1590.1,693.7,1593.7,689.3,1593.7z"/>
	<path class="st4" d="M651.8,1309.1c-5.1-2.7-11.1,1.3-11,7c0,3.8-0.6,8.4-2.9,12.6c-5.4,9.7,6.2,15.7,9.6,21
		c3.4,5.3,2.1,14.3,9.4,17c7.3,2.7,26.3,0.2,28-7.2C686.1,1353.5,669.1,1318.2,651.8,1309.1z"/>
	<path class="st14" d="M675.7,1300.3c-17.9,0.3-24.3,13.2-24.3,36.8c0,8.9,4.2,17.6,7.5,23.1c2.4,4.1,3.2,9,1.9,13.6l-3.7,13.4
		c-2.4,12.4,3.5,19,12.2,21.3c4.3,1.2,9.4,0.1,13.1-2.4c4.4-3,4.7-9.1,3.8-14.4l-1.1-3.8c-1.5-5.1,1.4-10.7,6.5-11.9
		c4-1,8.1-0.3,11-2.4s9.5-23.6,5.8-46.1C704.7,1304.3,693.6,1300.1,675.7,1300.3z"/>
	<path class="st4" d="M711.5,1297.7c-4-5.2-7.7,3-13,2.6c-1.2-0.1-2.5-0.3-3.9-0.7l-19.9-5.5c-12,0.2-31.8,7.3-29,24.6l2.3,11.8
		c1,5,1.8,3,6.9,3.6l4.3,3.8c0.4,1.7,1.1,4.8,2.8,4.8c2.2,0,3.9-1.8,3.8-3.9c0-5.5,3.7-10.3,9.1-11.6c6.6-1.6,13.4-5.1,20.9-3.1
		c0.1,0,0.1,0,0.1,0c6.4,1.6,14,3.7,16.9-4.7C714.6,1314.5,713.8,1301.6,711.5,1297.7z"/>
	<path class="st14" d="M659.2,1340.1c-0.4,4.4-2.3,7.9-6.7,7.5c-4.2-0.4-6.4-6.7-6-11.1s3.2-5.3,7.5-4.9
		C658.3,1331.8,659.6,1335.6,659.2,1340.1z"/>
	<path class="st4" d="M665.9,1338.9c-0.5,7.4,2.1,13.1,4.4,14.9c2.3,1.7,28.7,2.1,38.3,0.9c3.9,3.8,0.9,14.1-6.6,20.7
		c-6.2,5.4-25.9-3.9-34.7-7.7c-6.9-3-7.5-27.2-8.7-32.7C657.5,1329.3,666.3,1333.8,665.9,1338.9z"/>
	<path class="st14" d="M719.9,1548.5c0,0,1.1,8.8-7.2,21c-8.4,12.3-15.8-3.7-12.9-7.1c4.7-5.4,12.1-12.2,12.1-12.2"/>
	<path class="st2" d="M713.8,1403.8c14.3,7.5,28.6,63.3,31.6,91.3c2.3,23.9-24.4,65-24.4,64.9l-11.2-7.8c0,0,18.9-44.5,15.9-56.2
		c-4.6-14.7-11.9-40.8-14.8-44.3"/>
	<path class="st2" d="M625.8,1437.8c-27.4-11.2-40.3-19.3-60.3-38.7c-23-23.9,10-100.7,11.8-97.9l15.1,7.1c0,0-14.8,64.7-8.7,70.8
		c10.9,10.8,40,16.5,44.3,18.2"/>
	<polygon class="st10" points="658.2,1383.2 676.4,1391.3 684.3,1385 694.1,1397.4 702,1498.5 636.7,1496.2 649.3,1396 	"/>
	<polyline class="st15" points="678.7,1490.4 688,1476.4 679.9,1405.3 682.1,1396 676.4,1391.3 670.6,1396 674,1405.3 668.2,1478.7 
			"/>
	<path class="st7" d="M705.5,1553.7c0,0-0.9,13.5,6.8,18.5l-1.5,6.8l-25.1-0.7l5.3-20.5L705.5,1553.7z"/>
	<path class="st16" d="M627.8,1548.5c-0.2,0.5-1.3,6.7-1.5,12.3c0,0,49.6,4.6,79.2-3.3c0,0,0,1.9,0-1.2c0,0,3.5-3.6,4.4-4.3l1.1-2.6
		l-0.4-4.9L627.8,1548.5z"/>
	<path class="st2" d="M693.1,1393c0.1-0.3,18.4,6.1,25.3,15.3c0,0-2.6,32.1-4.6,42.7c-3,49,0.4,67.9,0.5,94.3c0,0-6.1,5.8-9.9,7
		c-17,5-84.1,6.3-84.3,1.8c5.3-46.5,3.1-106.7,3.2-115.2c0.1-5-5-15.4-4.7-19.5c0.3-5.3-12.9-25.9,5-23.4c4.9,0.4,20.1-3.5,20.1-3.5
		l9.7-3.7c0,0,15.9,29.5,23.1,29.5C685.5,1418.3,690.1,1405.6,693.1,1393z"/>
</g>
<path class="st6" d="M651.3,1389.6c-8.7,2-20.6-4.2-21.2,10.7c-0.7,14.9,14,6.5,14.6,2.1C645.2,1397.9,643.9,1394.2,651.3,1389.6"/>
<path class="st4" d="M714.9,1443.3l-1.5,13.9l3.9,11.6C717.3,1468.8,716.2,1451.9,714.9,1443.3z"/>
<path class="st4" d="M846.7,1758.9c0,0,5.1,7,7,8.6c3.5,3.1,13,8,9,11c-15,0-22,0-32,0c-3,0,1-20,1-20L846.7,1758.9z"/>
<path class="st4" d="M760.5,1759.9c0,0-5.1,7-7,8.6c-3.5,3.1-13,8-9,11c15,0,22,0,32,0c3,0-1-20-1-20L760.5,1759.9z"/>
<g>
	
		<image style="overflow:visible;opacity:0.16;enable-background:new    ;" width="120" height="182" xlink:href="EC591F000EE9FF3E.png"  transform="matrix(0.9917 0 0 0.9917 473 1594.7583)">
	</image>
	<g>
		<g>
			<polyline class="st15" points="495.1,1691.7 559.3,1692.2 555.4,1738 494.7,1736.9 			"/>
			<polyline class="st17" points="507.7,1742.3 542.3,1742 542,1760.6 509.3,1760.7 			"/>
			<polyline class="st17" points="532.7,1709.8 573.4,1696.8 579.4,1714.5 540.9,1726.6 			"/>
			<g class="st1">
				<circle class="st17" cx="535.3" cy="1611.2" r="7.8"/>
				
					<rect x="515.9" y="1626.5" transform="matrix(0.1055 -0.9944 0.9944 0.1055 -1141.9235 1987.6807)" class="st17" width="35.9" height="4.1"/>
			</g>
			<polyline class="st15" points="485.2,1637.2 570.1,1640.8 567.2,1686.6 486.9,1682.7 			"/>
			<circle class="st10" cx="548.3" cy="1660.2" r="8.6"/>
			
				<ellipse transform="matrix(0.9239 -0.3827 0.3827 0.9239 -595.1658 324.1012)" class="st10" cx="517.1" cy="1658.1" rx="8.6" ry="8.6"/>
		</g>
	</g>
</g>
<g id="Layer_6" class="st18">
	<path class="st19" d="M1773.8,744.2H851.6c-14.7,0-26.4-11.8-26.4-26.4V428.4c0-14.7,11.8-26.4,26.4-26.4h922.2
		c14.7,0,26.4,11.8,26.4,26.4v289.3C1800.2,732.4,1788.4,744.2,1773.8,744.2z"/>
	<path class="st20" d="M1773.8,743.4H851.6c-14.3,0-25.6-11.6-25.6-25.6V428.4c0-14.3,11.6-25.6,25.6-25.6h922.2
		c14.3,0,25.6,11.6,25.6,25.6v289.3C1799.6,732.1,1788.1,743.4,1773.8,743.4z"/>
	<rect id="Rectangle_732_1_" x="859.5" y="436.5" class="st21" width="906.6" height="272.9"/>
	<text transform="matrix(1 0 0 1 987.6973 629.6875)" class="st22 st23 st24 st25">Our Story</text>
</g>
<g id="Layer_5" class="st18">
	<rect x="931" y="480" class="st26" width="751.9" height="185"/>
	<text transform="matrix(1 0 0 1 1038.1064 617.4336)" class="st21 st23 st27 st28">Our Story</text>
	<rect x="875.6" y="442" class="st26" width="155.4" height="59"/>
	<rect x="1713.6" y="601" class="st26" width="155.4" height="59"/>
	<rect x="1628.6" y="525" class="st26" width="155.4" height="59"/>
	<rect x="1445.6" y="647" class="st26" width="155.4" height="59"/>
	<rect x="1114.6" y="637" class="st26" width="155.4" height="59"/>
	<rect x="864.6" y="607" class="st26" width="155.4" height="59"/>
	<rect x="1241.6" y="451" class="st26" width="155.4" height="59"/>
	<rect x="797.6" y="631" class="st26" width="155.4" height="59"/>
	<rect x="745.6" y="531" class="st26" width="155.4" height="59"/>
	<rect x="1585.6" y="481" class="st26" width="155.4" height="59"/>
</g>
<g class="st18">
	<g class="st29">
		<path class="st4" d="M1332.5,418.3c-13.1,44.2,10.1,57.2,24,160.7c3.6,26.7,6.5,53,10.7,96.1c0,0,5,2,10.1,1.8
			c9.7-0.6,12.5-1.5,12.5-1.5s-1.9-50.2-0.5-101.2c1.5-55.1-7.9-121.9-8.5-127.1C1377.6,397,1332.5,418.3,1332.5,418.3z"/>
		<path class="st4" d="M1293.7,423.6c-7.7,28-2.4,48.8-6.1,141c-1.3,32.3,1.5,60.8,0.5,111.6c0,0,0.6,2.3,6.8,2.3
			c8.3,0,12.5-0.2,14.8-0.9c0,0,7.1-58.1,12.1-110.7c4.7-48.7,14-69.4,15.6-95.6C1359.6,395.2,1303.2,420.9,1293.7,423.6z"/>
		<path class="st5" d="M1289.9,446.4l2-14.2l85.2-5.9c0,0,2.8,11.1,3.4,16.9c0,0-3.7,3.5-7.6,4
			C1354.9,449.7,1305.8,449.2,1289.9,446.4z"/>
		<path class="st4" d="M1357.9,487.4h-40.3c-4.4,0-8-3.6-8-8v-16.6c0-4.4,3.6-8,8-8h40.3c4.4,0,8,3.6,8,8v16.6
			C1365.9,483.8,1362.3,487.4,1357.9,487.4z"/>
		<path class="st10" d="M1288.7,265.6c0,0-60.5,29.6-69.7,30.8c-9.2,1.1-50.6-32.9-50.6-32.9l-5.9,15.2l51.4,50l73.3-20.1"/>
		<path class="st4" d="M1291.5,172.5c-3.6,12.6,2.6,34.6-4.8,47.4c-7.4,12.8-10.8,66.5,24,71.2c34.8,4.7,58.8,0.3,64.6-16
			c2.3-6.4-3.3-37.8,0-52.3c4.7-21.1,6-51.6-0.8-64.7C1367.4,144.7,1309,110.4,1291.5,172.5z"/>
		<path class="st10" d="M1353.8,256.5c0,0,80.3,38,89.5,39.1s50.6-32.9,50.6-32.9l5.9,15.2l-51.4,50l-66.6-18.1"/>
		<path class="st6" d="M1319.9,223.4c0.4,10.8,1.5,30.7-2.3,33.3c-1.5,1,6.8,35.8,17,37.5c6.7,1.1,23.9-25.9,19.3-37.8
			c-0.5,2.4-5.3-11-4.5-28.8C1349.8,215.7,1319.9,223.4,1319.9,223.4z"/>
		<path class="st6" d="M1311.5,220.6c5.8,9.6,13.1,16.7,25.7,16.7c10.3,0,15.7-4.5,21.8-15.4c7.2-12.9,9.6-45.1-0.5-60.9
			s-35.1-13.3-46.4,0C1300.9,174.3,1301.4,204,1311.5,220.6z"/>
		<path class="st4" d="M1374.5,196.3c-9.3-3.9-16.6-15.7-19.4-25.4c-19.2,19.6-37.6,32.2-55.4,32.2c0,0-3.3-39.3,4.1-42.8
			s27.8-22.1,43-13.2C1382.6,168.4,1374.5,196.3,1374.5,196.3z"/>
		<path class="st10" d="M1373.3,439.5c-19.2,5.7-88,4.6-88.3-0.4c14-83,1.1-118,2.4-130.5c0,0-2.3-11.8-2.3-19.2
			c0.3-6-1.7-21.1-1.7-21.1c5.4-2.6,11.8-6.1,18.4-8.5c3.1-1.1,15.8-3.1,15.8-3.1s5.3,15.9,18.8,29c11.9-9.7,17.5-29.2,17.5-29.2
			l16.2,6c0,0,11.4,5.5,20.9,11.2c0,0-6.5,35.5-8.8,47.4c-8.3,59.1,1.4,81.6,2.5,110.5C1384.5,431.6,1377.6,438.2,1373.3,439.5z"/>
		<path class="st8" d="M1320.1,231.4c3.5,5.6,20.8,10.4,29,2.4l0.3,2.4c0,0-12.9,14.3-29.4-2.2L1320.1,231.4L1320.1,231.4z"/>
	</g>
	<path class="st30" d="M1471.4,420.8c-13.1,44.2,10.1,57.2,24,160.7c3.6,26.7,6.5,53,10.7,96.1c0,0,5,2,10.1,1.8
		c9.7-0.6,12.5-1.5,12.5-1.5s-1.9-50.2-0.5-101.2c1.5-55.1-2.1-122.4-6.2-130.2C1518.8,396.4,1471.4,420.8,1471.4,420.8z"/>
	<path class="st30" d="M1426.8,426.6c-7.7,28-6.7,44.9-4.1,138.4c0.9,32.3,5.4,63,4.4,113.7c0,0,0.6,2.3,6.8,2.3
		c8.3,0,12.5-0.2,14.8-0.9c0,0,7.1-58.1,12.1-110.7c4.7-48.7,14-69.4,15.6-95.6C1498.5,397.8,1436.2,423.9,1426.8,426.6z"/>
	<path class="st30" d="M1496.8,489.9h-40.3c-4.4,0-8-3.6-8-8v-16.6c0-4.4,3.6-8,8-8h40.3c4.4,0,8,3.6,8,8v16.6
		C1504.8,486.3,1501.2,489.9,1496.8,489.9z"/>
	<path class="st19" d="M1470.8,136.7c-4.5,2.6-6.3,5.3-6.5,11.1c-0.1,5.6-3.4,16.6,9.7,18.4c13.2,1.8,18.4-1.7,20.6-7.9
		s2.3-11.4-1.5-16.9C1491.7,139.3,1480.4,131.1,1470.8,136.7z"/>
	<path class="st19" d="M1446.2,154.4c-10.9,6.3-15.4,12.8-15.7,26.9c-0.3,13.5-8.4,40.4,23.6,44.8s44.6-4.2,50-19.2
		c5.3-14.9,5.7-27.7-3.7-41.2C1497,160.7,1469.5,140.9,1446.2,154.4z"/>
	<path class="st31" d="M1455.7,259.6c-0.7,1.4-4.1,22.2,13.2,25.5c21,4,16.6-16.8,21.2-20.5c0,0-2.7-11.2-4.3-21.5
		c-1-10.7,1.5-8.5,5.2-22.3c0-0.1,0-0.2,0.1-0.2c5.3-12.9,5-35.7-2.9-48.1c-9.3-14.5-32.2-12.2-42.6,0c-10.3,12.2-10.9,33.3-1,56.3
		c3.1,7.1,7,10.8,12.4,12.5C1457.2,241.3,1457.6,255.6,1455.7,259.6z"/>
	<path class="st21" d="M1510.8,439.9c-19.2,5.7-88,4.6-88.3-0.4c6-52.5-5.3-122.7-3.3-127.6c0,0-5.7-17.4-5.4-22
		c0.3-6-0.2-5.7,9-18.3c2.1-3.1,17.9-8.9,17.9-8.9l15.8-6.2c0,0,3.9,13.3,12.1,13.3c14.7,0,19.7-13.7,19.7-13.7l15.4,8.1
		c0,0,11.9,4.7,19.6,10.3c0,0,0.3,39.1-2,51c-8.3,59.1-0.5,77.5,0.6,106.4C1522,432,1515.2,438.6,1510.8,439.9z"/>
	<path class="st32" d="M1477.5,355.8c0,0,12.7,0.4,16.2,3.1c0,0-1.3,12-1,13.2c0,0-11.4-1.6-14.7-1.6c0,0-7.6,1.8-21,4.5
		c0,0-1-7.4-1.3-14.6L1477.5,355.8z"/>
	<path class="st19" d="M1497.2,211.7c-10.6,1.1-13.3-9.1-17.2-26.3c-7.4,10-29.8,22.5-46.2,22.5c0,0-2.7-31.4,4.1-34.6
		c6.8-3.2,25.5-20.3,39.5-12.1C1510.3,180.7,1497.2,211.7,1497.2,211.7z"/>
	<path class="st19" d="M1522.6,444.7c-0.1,0.9,1.6,11.5,1.7,12.7s-15.7,2.7-26.6,0c-3.3-0.8-6-10.9-4-13s24.8,0.4,24.8,0.4
		L1522.6,444.7z"/>
	<path class="st19" d="M1456.8,443.6c-0.1,0.9,1.6,11.4,2,12.4c0.4,1.1-0.1,5.1-37.2,2.6c0,0,0.2-8.2,2.1-10.2
		c2-2.1,24.1-4.6,24.1-4.6L1456.8,443.6z"/>
	<path class="st33" d="M1519.1,272.3c3.9,25.2-4.4,118.1,8,179.2c1.2,6.1-30.2,3.8-33.4,0.5c-5-5.2-3.2-62.9,0.6-105
		c5-55.7-0.7-88.4-0.7-88.4L1519.1,272.3z"/>
	<path class="st33" d="M1426,266.7c-3.9,25.2,5,114.4-11.2,184.4c-1.4,6.1,45.4,4.3,45,1.4c-5.1-36.6,0.5-61.3-5.3-101.9
		c-8.4-59.5-2.3-92.6-2.3-92.6L1426,266.7z"/>
	<path class="st34" d="M1455.6,362.7c0.5,0.3,1.1,8.4,1.4,12.4c0,0-21.6,3.8-33.6,4.5c0,0,0.2-4.7,0-12L1455.6,362.7z"/>
	<path class="st31" d="M1451.3,337c-8.5-1.3-16.4-3.6-27.2,9.3c-10.8,12.8,8.1,15.4,11.6,11.9c3.6-3.6,5.9-13,15.6-12"/>
	<path class="st34" d="M1520.8,361.4c-0.5,2.8-0.8,6.7-0.6,10.7c0,0-13.5,2.6-27.6,0c0,0,0.4-9.4,1.2-11.7L1520.8,361.4z"/>
	<path class="st33" d="M1431,322.5c0,0-3.4,9-6.5,23.3c6.9,2.9,63.1-4.9,63.1-4.9l6.1,15.7c0,0-52.7,17.9-82.2,18.9
		c-12.8,0.5-15.3-13.3-15.3-20.2c0-31.9,14-78.6,29.7-88.7"/>
	<path class="st31" d="M1493,341.1c7.7-3.7,14.7-8.1,28.8,1.1c14,9.2-3.3,17.1-7.8,14.7s-9.3-10.8-18.4-7.1"/>
	<path class="st33" d="M1519.1,271.9c12.8,8,19.4,45.3,24.3,78c0.8,5.1,0.2,18.2-9.7,19.4c-21.5,2.7-76.1-19.2-89.6-23.5
		c0,0,0.6-10.9,2.9-10.6c40.6,5.7,72.5,10.1,72.5,10.1l-5.8-27.4"/>
	<path class="st34" d="M1476.7,362c0,0-33.4-13.9-32.6-16.2l40.9,13.6L1476.7,362z"/>
	<path class="st35" d="M1483,236c0,0-12,10-26,5.1c0,0,0.6-0.6,0.2,3.5C1457.2,244.6,1473.8,247.8,1483,236z"/>
	<path class="st36" d="M1494.3,258.7c10,1.4,22.7-6.7,24.9,10c2.2,16.6-15.1,8.7-16.2,3.7C1502,267.5,1503.1,263.2,1494.3,258.7"/>
	<polygon class="st32" points="1184.4,268.3 1189.6,266.7 1188.8,264.8 	"/>
	<polygon class="st32" points="1201.9,264.8 1204.6,267 1201.5,266.6 	"/>
	<g class="st29">
		<path class="st14" d="M1085.4,165c-0.1-8.6-1.2-16.8,13-25.7s14.2,10.1,10.1,13.2c-4,3-13.7,4-14.1,13.8"/>
		<path class="st7" d="M1185.6,419.1c-13.1,44.2,4.4,49.1,18.3,152.5c3.6,26.7,6.1,62.1,10.4,105.3c0,0,11,1,16.1,0.8
			c9.7-0.6,12.5-1.5,12.5-1.5s2.6-59.2,0-109.4c-2.9-55.1-8-124.7-8.6-129.9C1231.1,386.8,1185.6,419.1,1185.6,419.1z"/>
		<path class="st7" d="M1139.1,443.3c-1.9,31.8,0.3,32.2-3.4,124.4c-1.3,32.3,0.9,59.2-0.1,110c0,0,6.3,1.6,12.5,1.6
			c8.3,0,12.5-0.2,14.8-0.9c0,0,7.1-58.1,12.1-110.7c4.7-48.7,14-69.4,15.6-95.6C1212.7,396,1148.6,440.6,1139.1,443.3z"/>
		<path class="st7" d="M1211,488.2h-40.3c-4.4,0-8-3.6-8-8v-16.6c0-4.4,3.6-8,8-8h40.3c4.4,0,8,3.6,8,8v16.6
			C1219,484.6,1215.4,488.2,1211,488.2z"/>
		<path class="st4" d="M1167.6,166.7c-5.7-3-12.5,1.4-12.4,7.9c0,4.3-0.7,9.5-3.3,14.2c-6.1,10.9,7,17.7,10.8,23.7
			s2.4,16.2,10.6,19.2s29.7,0.2,31.6-8.1C1206.4,216.9,1187.2,177,1167.6,166.7z"/>
		<path class="st14" d="M1194.6,156.8c-20.2,0.4-27.5,14.9-27.4,41.6c0,10,4.8,19.8,8.4,26c2.8,4.6,3.6,10.2,2.1,15.4l-4.1,15.1
			c-2.8,14,4,21.5,13.8,24.1c4.8,1.3,10.6,0.1,14.8-2.7c5-3.3,5.3-10.3,4.2-16.2l-1.2-4.3c-1.7-5.8,1.6-12.1,7.4-13.4
			c4.5-1.1,9.1-0.3,12.5-2.7c3.3-2.3,10.7-26.7,6.6-52.1C1227.4,161.3,1214.8,156.5,1194.6,156.8z"/>
		<path class="st4" d="M1235.1,153.9c-4.5-5.9-8.7,3.4-14.7,3c-1.4-0.1-2.9-0.3-4.4-0.7l-22.5-6.2c-13.5,0.2-35.9,8.2-32.7,27.8
			l2.6,13.3c1.1,5.6,2.1,3.4,7.8,4l4.9,4.3c0.5,1.9,1.2,5.4,3.2,5.4c2.4,0,4.4-2,4.3-4.4c0-6.2,4.2-11.6,10.2-13.1
			c7.5-1.8,15.2-5.7,23.6-3.5c0.1,0,0.1,0,0.1,0c7.2,1.8,15.8,4.2,19.1-5.3C1238.5,172.9,1237.6,158.2,1235.1,153.9z"/>
		<path class="st14" d="M1176.1,201.7c-0.5,5-2.6,8.9-7.5,8.4c-4.8-0.4-7.3-7.6-6.8-12.6s3.6-6,8.5-5.5
			C1175,192.4,1176.5,196.7,1176.1,201.7z"/>
		<path class="st4" d="M1183.6,200.4c-0.6,8.3,2.4,14.8,4.9,16.8s32.4,2.3,43.3,1c4.4,4.3,1.1,15.9-7.4,23.4
			c-7,6.1-29.2-4.4-39.2-8.7c-7.8-3.4-8.5-30.7-9.8-37C1174.1,189.5,1184,194.7,1183.6,200.4z"/>
		<path class="st14" d="M1244.5,437.1c0,0,1.3,9.9-8.2,23.8s-17.9-4.2-14.6-8c5.3-6.1,13.7-13.7,13.7-13.7"/>
		<path class="st2" d="M1237.7,273.7c16.1,8.5,32.3,71.4,35.6,103.2c2.6,27-27.6,73.4-27.6,73.2l-12.6-8.8c0,0,21.3-50.3,17.9-63.5
			c-5.2-16.5-13.4-46-16.8-50"/>
		<path class="st2" d="M1138.3,312.1c-30.9-12.7-45.5-21.8-68-43.7c-26-27,11.3-113.7,13.3-110.5l17.1,8c0,0-16.7,73-9.8,79.9
			c12.3,12.2,45.1,18.7,50,20.6"/>
		<polygon class="st10" points="1174.9,250.4 1195.4,259.5 1204.4,252.4 1215.4,266.5 1224.3,380.6 1150.6,378 1164.8,264.8 		"/>
		<polyline class="st15" points="1198,371.4 1208.5,355.6 1199.4,275.3 1201.9,264.8 1195.4,259.5 1188.8,264.8 1192.7,275.3 
			1186.2,358.3 		"/>
		<path class="st7" d="M1228.3,442.9c0,0-1,15.3,7.6,20.9l-1.7,7.7l-28.4-0.8l6-23.2L1228.3,442.9z"/>
		<path class="st16" d="M1140.6,437.1c-0.2,0.6-1.5,7.5-1.7,13.9c0,0,56,5.2,89.4-3.7c0,0,0,2.2-0.1-1.3c0,0,4-4,5-4.8l1.2-2.9
			l-0.5-5.5L1140.6,437.1z"/>
		<path class="st2" d="M1227,441.3c-19.2,5.7-94.9,7.1-95.2,2c6-52.5,3.5-120.5,3.6-130.1c0.1-5.7-5.7-17.4-5.4-22
			c0.3-6-14.5-29.2,5.6-26.4c5.5,0.4,22.7-3.9,22.7-3.9l11-4.2c0,0,12,25.1,20.2,25.1c14.7,0,9.7,0.5,15.5-1.1
			c4.6-1.3,9.2-19.3,9.2-19.3s20.7,6.9,28.5,17.3c0,0-2.9,36.3-5.2,48.2c-3.4,55.3,0.5,76.7,0.6,106.4
			C1238.2,433.4,1231.4,440,1227,441.3z"/>
	</g>
	<path class="st36" d="M1167.1,257.6c-9.8,2.3-23.2-4.7-24,12.1s15.8,7.3,16.5,2.3C1160.2,267,1158.8,262.8,1167.1,257.6"/>
	<path class="st19" d="M1238.9,318.3l-1.7,15.7l4.4,13C1241.6,347.1,1240.4,328,1238.9,318.3z"/>
</g>
<g id="Layer_4">
	<g id="z8hFZr.tif_1_">
		
			<image style="overflow:visible;enable-background:new    ;" width="1827" height="429" id="Layer_0_1_" xlink:href="EC591F000EE9FF3F.png"  transform="matrix(0.3064 0 0 0.3064 889 -186)">
		</image>
	</g>
</g>
</svg>
