<?xml version="1.0" encoding="utf-8"?>
<!-- Generator: Adobe Illustrator 22.0.1, SVG Export Plug-In . SVG Version: 6.00 Build 0)  -->
<svg version="1.1" id="Layer_1" xmlns="http://www.w3.org/2000/svg" xmlns:xlink="http://www.w3.org/1999/xlink" x="0px" y="0px"
	 viewBox="0 0 508 648" style="enable-background:new 0 0 508 648;" xml:space="preserve">
<style type="text/css">
	.st0{fill:#E5E5E5;}
	.st1{fill:#B167C9;}
	.st2{fill:#FFFFFF;}
	.st3{fill:#6FC7F7;}
	.st4{fill:#F15C5E;}
	.st5{fill:#FFC950;}
</style>
<g>
	<path class="st0" d="M350.8,323.9c-0.1,0.7-0.2,1.7-0.3,2.6l-0.3,2.8c-0.2,1.9-0.3,3.7-0.5,5.6c-0.3,3.8-0.4,7.6-0.4,11.4
		c-0.1,7.6,0.2,15.2,1,22.8c0.8,7.6,2,15.1,3.9,22.4c1.8,7.3,4.3,14.5,7.5,21.3c1.6,3.4,3.4,6.7,5.4,9.9c2,3.2,4.2,6.2,6.7,9.1
		c4.8,5.8,10.6,10.8,17.1,14.9c3.2,2,6.7,3.8,10.2,5.4c3.6,1.5,7.2,2.8,11,3.8c7.5,2.1,15.3,3.2,23.2,3.6c-7.9,0.3-15.8,0-23.7-1.4
		c-3.9-0.7-7.8-1.7-11.6-2.9c-3.8-1.3-7.6-2.8-11.2-4.6c-7.2-3.7-14-8.5-19.8-14.2c-2.9-2.9-5.7-6-8.2-9.2
		c-2.5-3.3-4.8-6.7-6.9-10.2c-4.2-7.1-7.6-14.6-10.3-22.3c-2.7-7.7-4.8-15.6-6.4-23.6c-1.6-8-2.7-16.1-3.4-24.2
		c-0.3-4.1-0.6-8.1-0.7-12.2c-0.1-2-0.1-4.1-0.1-6.2l0-3.1c0-1.1,0-2,0.1-3.3l0-0.1c0.3-5,4.6-8.8,9.5-8.5s8.8,4.6,8.5,9.5
		C350.8,323.3,350.8,323.6,350.8,323.9z"/>
</g>
<g>
	<path class="st0" d="M169.2,350.9c0,0.7,0,1.1,0,1.6l0,1.5l0,2.9c0,1.9-0.1,3.8-0.2,5.7c-0.2,3.8-0.5,7.6-1,11.4
		c-0.9,7.5-2.1,15-3.9,22.4c-3.5,14.7-8.9,29.2-17.3,42c-4.2,6.4-9.1,12.3-14.9,17.4c-2.8,2.5-5.9,4.9-9,6.9
		c-3.2,2.1-6.5,3.9-9.9,5.5c-3.4,1.6-6.9,2.8-10.5,3.9c-3.6,1.1-7.2,1.8-10.8,2.5c-7.3,1.1-14.7,1.4-21.9,1.1
		c7.3-0.4,14.5-1.4,21.5-3.3c3.5-1,6.9-2.1,10.2-3.4c3.3-1.4,6.5-2.9,9.5-4.7c3-1.8,5.9-3.8,8.7-6c2.7-2.2,5.3-4.6,7.6-7.2
		c4.7-5.1,8.6-11,11.8-17.1c6.4-12.4,10-26.1,11.8-39.9c0.9-6.9,1.4-14,1.4-20.9c0-3.5,0-7-0.2-10.5c-0.1-1.7-0.2-3.5-0.3-5.2
		l-0.2-2.6l-0.1-1.2c0-0.4-0.1-0.9-0.1-1.1L169.2,350.9z"/>
</g>
<g>
	<path class="st0" d="M257.3,187.1l-11,409l-11-409c-0.2-6.1,4.6-11.1,10.7-11.3s11.1,4.6,11.3,10.7
		C257.3,186.7,257.3,186.9,257.3,187.1z"/>
</g>
<g>
	<path class="st1" d="M342.6,189.1c-1.2-0.7-2.7-0.7-3.8,0c-6.1,4-9.9,8-13.8,11.9c-15.9,16.2-16.7,34.5-12.4,53l-18.2,18.6
		c-2.8,2.9-2.6,2-1.3,5.8l10.5,30.9c1.3,3.7,0.8,3.6,3.6,0.7l18.3-18.8c1.1,2.9,2.2,5.8,3.2,8.6c0.5,1.4,1.8,2.4,3.4,2.4L352,302
		c1.5,0,2.9-1,3.3-2.5c0.9-2.9,1.9-5.8,3-8.7l18.7,18.3c2.8,2.8,2.2,2.8,3.4-1l10-31.7c1.2-3.8,1.4-2.3-1.5-5.1l-18.8-18
		c3.9-18.6,2.6-36.9-13.6-52.7C352.8,196.8,348.8,193,342.6,189.1L342.6,189.1z"/>
	
		<ellipse transform="matrix(0.4366 -0.8997 0.8997 0.4366 -5.6438 430.8168)" class="st2" cx="341.1" cy="219.9" rx="13.5" ry="13.5"/>
</g>
<path class="st3" d="M352.9,324.5l-10.6,34.9l-12-35.2c-1.1-3.6-0.5-7.5,1.7-10.6l0,0c4.7-6.6,14.6-6.5,19.3,0.2l0,0
	C353.5,317,354.2,320.9,352.9,324.5z"/>
<g>
	<path class="st4" d="M248.7,14.7c-1.5-1-3.4-1-5,0c-7.9,5.1-13,10.2-18.1,15.3c-20.9,20.9-22.2,44.6-16.9,68.6l-23.9,23.9
		c-3.7,3.7-3.4,2.6-1.8,7.5l13.2,40.3c1.6,4.8,1,4.7,4.7,1l24.1-24.1c1.4,3.7,2.7,7.6,4,11.2c0.6,1.9,2.4,3.1,4.4,3.1h25.7
		c2,0,3.7-1.3,4.4-3.1c1.2-3.7,2.6-7.5,4-11.2l24.1,24.1c3.6,3.6,2.8,3.6,4.5-1.2l13.5-41c1.6-5,1.8-3-1.8-6.6l-24.1-23.7
		c5.3-24.1,4-47.8-16.8-68.6C261.8,25,256.6,19.9,248.7,14.7L248.7,14.7z"/>
	
		<ellipse transform="matrix(0.4473 -0.8944 0.8944 0.4473 87.144 250.5657)" class="st2" cx="246.3" cy="54.8" rx="17.5" ry="17.5"/>
</g>
<g>
	<path class="st5" d="M160.2,220.4c-6.1,3.7-10,7.5-13.9,11.2c-16,15.3-17.5,33.1-13.9,51.3l-18.6,17.4c-2.8,2.7-2.6,1.2-1.5,5
		l9.5,31.1c1.1,3.7,0.5,3.7,3.3,1l18.5-17.7c1,2.8,2,5.7,2.8,8.5c0.4,1.4,1.7,2.4,3.2,2.4l19.3,0.5c1.5,0,2.8-0.9,3.3-2.3
		c1-2.8,2.1-5.6,3.2-8.4l17.7,18.6c2.7,2.8,2.2,2.9,3.5-0.7l10.6-30.1c1.3-3.7,1.5-2.8-1.2-5.7l-17.5-18.4c4.5-18,3.9-35.9-11.5-52
		c-3.7-3.9-7.5-7.8-13.3-11.8C162.8,219.8,161.3,219.7,160.2,220.4L160.2,220.4z"/>
	<ellipse class="st2" cx="161.2" cy="250.6" rx="13.2" ry="13.2"/>
</g>
<path class="st3" d="M261,191.7l-14.7,45.5l-14.7-45.5c-1.5-4.7-0.8-9.8,2.1-13.8l0,0c6.1-8.6,18.9-8.6,25,0l0,0
	C261.7,181.9,262.5,186.9,261,191.7z"/>
<path class="st3" d="M171.2,355.2l-12.4,34.2l-9.7-34.4c-1.1-3.5-0.5-7.4,1.7-10.3l0,0c4.7-6.4,14.3-6.3,18.8,0.2l0,0
	C171.8,347.9,172.4,351.7,171.2,355.2z"/>
</svg>
