<?xml version="1.0" encoding="utf-8"?>
<!-- Generator: Adobe Illustrator 22.0.1, SVG Export Plug-In . SVG Version: 6.00 Build 0)  -->
<svg version="1.1" id="Layer_1" xmlns="http://www.w3.org/2000/svg" xmlns:xlink="http://www.w3.org/1999/xlink" x="0px" y="0px"
	 viewBox="0 0 508 463.5" style="enable-background:new 0 0 508 463.5;" xml:space="preserve">
<style type="text/css">
	.st0{fill:#E5E5E5;}
	.st1{fill:#B167C9;}
	.st2{fill:#6FC7F7;}
	.st3{fill:#F15C5E;}
	.st4{fill:#FFFFFF;}
	.st5{fill:#FFC950;}
</style>
<g>
	<path class="st0" d="M354.7,160.7c0.4,0.5,1,1.3,1.6,2l1.7,2.1c1.2,1.4,2.3,2.7,3.5,4.1c2.4,2.8,4.9,5.4,7.5,8
		c5.1,5.2,10.5,10.2,16.2,14.8s11.6,8.9,17.9,12.6c6.2,3.7,12.8,6.9,19.6,9.4c3.4,1.2,6.9,2.2,10.4,3.1c3.5,0.8,7.1,1.4,10.7,1.6
		c7.2,0.7,14.6,0.1,21.8-1.5c3.5-0.8,7.1-2,10.6-3.3c3.5-1.4,6.8-3,10.1-4.9c6.5-3.7,12.6-8.2,18.2-13.3
		c-5.2,5.6-10.7,10.7-17.1,15.2c-3.1,2.2-6.5,4.1-9.9,5.9c-3.5,1.7-7.1,3.3-10.7,4.5c-7.4,2.4-15.3,3.7-23.1,3.8
		c-3.9,0-8-0.2-11.8-0.7c-3.9-0.5-7.8-1.3-11.6-2.2c-7.7-2-15.1-4.8-22.2-8.2s-13.9-7.3-20.4-11.7s-12.8-9.1-18.8-14.1
		c-3-2.6-5.9-5.1-8.8-7.8c-1.4-1.3-2.9-2.7-4.3-4.1l-2.1-2.1c-0.7-0.7-1.4-1.4-2.2-2.3l-0.1-0.1c-3.2-3.6-2.9-9.1,0.7-12.2
		c3.5-3.1,9.1-2.9,12.2,0.7C354.3,160.3,354.5,160.5,354.7,160.7z"/>
</g>
<g>
	<path class="st0" d="M249.5,302.6c0.5,0.5,0.7,0.7,1.1,1.1l1,1l2,2c1.3,1.3,2.5,2.7,3.7,4c2.4,2.7,4.8,5.5,7.1,8.4
		c4.5,5.7,8.8,11.6,12.6,17.9c7.6,12.4,13.8,25.9,16.8,40.3c1.5,7.2,2.2,14.6,1.7,22c-0.2,3.6-0.7,7.3-1.4,10.8
		c-0.7,3.6-1.8,7.1-3,10.5s-2.8,6.6-4.5,9.8s-3.7,6.1-5.6,9c-4.2,5.7-9,11-14.1,15.6c4.7-5.2,8.9-10.8,12.4-16.9
		c1.7-3.1,3.3-6.1,4.6-9.3c1.3-3.2,2.4-6.4,3.3-9.7c0.8-3.3,1.4-6.6,1.8-10c0.3-3.3,0.5-6.7,0.3-10.1c-0.3-6.7-1.6-13.3-3.6-19.7
		c-4.1-12.8-11-24.6-19.1-35.2c-4.1-5.3-8.6-10.5-13.3-15.2c-2.4-2.4-4.8-4.8-7.3-7c-1.2-1.1-2.5-2.2-3.7-3.3l-1.9-1.6l-0.9-0.7
		c-0.3-0.3-0.7-0.5-0.8-0.7L249.5,302.6z"/>
</g>
<g>
	<path class="st0" d="M198,131.3L468.8,417L183,146.2c-4.3-4-4.4-10.7-0.4-15s10.7-4.4,15-0.4C197.7,131,197.9,131.1,198,131.3z"/>
</g>
<g>
	<path class="st1" d="M257.4,74.6c-1.3,0.3-2.3,1.4-2.6,2.6c-1.4,6.9-1.3,12.2-1.3,17.5c0.2,21.8,12.1,34.8,27.6,44.5l0.3,25
		c0.1,3.9-0.4,3.1,3.1,4.8l28.2,13.9c3.4,1.6,3,1.9,2.9-2l-0.3-25.2c2.7,1.2,5.4,2.4,8,3.7c1.3,0.6,2.9,0.4,3.9-0.7l13.4-13.7
		c1-1,1.3-2.7,0.5-3.9c-1.4-2.6-2.7-5.2-3.9-8l25.2-0.3c3.8,0,3.4,0.4,1.6-3l-14.8-28.4c-1.8-3.4-0.6-2.5-4.5-2.4l-25,0.5
		c-10-15.3-23.3-26.9-45.1-26.6C269.6,72.9,264.3,73,257.4,74.6L257.4,74.6z"/>
</g>
<path class="st2" d="M360.8,160.4l21,37.4l-40.2-18.7c-3.9-2.1-6.7-5.9-7.5-10.3l0,0c-1.6-9.5,6.8-17.7,16.3-16l0,0
	C355,153.6,358.8,156.3,360.8,160.4z"/>
<g>
	<path class="st3" d="M74.9,19.8c-1.7,0.3-3,1.6-3.4,3.4C69.6,32.1,69.6,39,69.6,46c0,28.4,15.2,45.4,35.2,58.2v32.5
		c0,5-0.5,4.1,3.9,6.3l36.4,18.4c4.4,2.2,3.9,2.5,3.9-2.5v-32.8c3.5,1.6,7,3.3,10.3,4.9c1.7,0.9,3.7,0.5,5.1-0.9l17.5-17.5
		c1.4-1.4,1.6-3.4,0.9-5.1c-1.7-3.3-3.3-6.9-4.9-10.3h32.8c4.9,0,4.4,0.5,2.2-3.9l-18.7-37.1c-2.3-4.5-0.8-3.3-5.7-3.3L156,53.2
		C143.1,33.2,126.1,18,97.8,18C90.8,17.9,83.8,18,74.9,19.8L74.9,19.8z"/>
	<ellipse class="st4" cx="100.5" cy="48.7" rx="16.8" ry="16.8"/>
</g>
<g>
	<path class="st5" d="M154.6,220c-1.6,6.7-1.7,11.9-1.8,17.1c-0.5,21.3,10.6,34.4,25.4,44.4l-0.8,24.5c-0.1,3.7-1,2.6,2.4,4.4
		l27.6,14.7c3.3,1.8,2.9,2.2,2.9-1.6l0.5-24.6c2.6,1.2,5.2,2.5,7.7,3.9c1.2,0.7,2.8,0.5,3.8-0.5l13.5-12.8c1-1,1.3-2.5,0.7-3.8
		c-1.2-2.6-2.4-5.2-3.5-7.9l24.7,0.6c3.7,0.1,3.5,0.5,1.9-2.9l-13.3-27.7c-1.6-3.4-0.9-2.9-4.7-3.1l-24.4-0.6
		c-9.2-15.3-21.8-27.1-43.2-27.6c-5.2-0.1-10.4-0.2-17.1,1C156,217.8,154.9,218.7,154.6,220L154.6,220z"/>
	<ellipse class="st4" cx="175.8" cy="239.8" rx="11.1" ry="11.1"/>
	<ellipse class="st4" cx="195" cy="259" rx="8.1" ry="8.1"/>
</g>
<path class="st2" d="M211.5,133.1l27.9,54.5l-54.5-27.9c-5.6-2.9-9.6-8.2-10.6-14.4l0,0c-2.3-13.3,9.3-24.9,22.6-22.6l0,0
	C203.3,123.6,208.6,127.4,211.5,133.1z"/>
<path class="st2" d="M256.3,304.6l16.2,36.9L239,321.6c-3.6-1.9-6.1-5.4-6.7-9.3l0,0c-1.3-8.6,6.2-16,14.8-14.4l0,0
	C251.1,298.5,254.5,300.9,256.3,304.6z"/>
<path class="st4" d="M269.2,85.8l23.7,6.9c1.2,0.3,1.6,1.8,0.8,2.8L278,112.4c-0.9,0.9-2.4,0.6-2.8-0.6l-8-23.8
	C266.7,86.7,267.9,85.5,269.2,85.8z"/>
</svg>
