<?xml version="1.0" encoding="utf-8"?>
<!-- Generator: Adobe Illustrator 22.0.1, SVG Export Plug-In . SVG Version: 6.00 Build 0)  -->
<svg version="1.1" id="Layer_1" xmlns="http://www.w3.org/2000/svg" xmlns:xlink="http://www.w3.org/1999/xlink" x="0px" y="0px"
	 viewBox="0 0 976 646" style="enable-background:new 0 0 976 646;" xml:space="preserve">
<style type="text/css">
	.st0{fill:none;stroke:#E5E5E5;stroke-width:11;stroke-miterlimit:10;}
	.st1{fill:#F15C5E;}
	.st2{fill:#FFFFFF;}
	.st3{fill:none;stroke:#E5E5E5;stroke-width:11;stroke-miterlimit:10;stroke-dasharray:17.5325,17.5325;}
	.st4{fill:none;stroke:#E5E5E5;stroke-width:11;stroke-miterlimit:10;stroke-dasharray:18;}
	.st5{fill:#E5E5E5;}
	.st6{fill:#B167C9;}
	.st7{fill:#6FC7F7;}
	.st8{fill:#FFC950;}
</style>
<path class="st0" d="M246.1,305.5c0-135.3,109.7-245,245-245s245,109.7,245,245"/>
<path class="st0" d="M491.5,117.8c104.9,0,189.9,85,189.9,189.9s-85,189.9-189.9,189.9"/>
<path class="st0" d="M790.6,304.7c0,165.2-133.9,299.1-299.1,299.1"/>
<line class="st0" x1="835" y1="306.7" x2="156.2" y2="305.8"/>
<line class="st0" x1="245.4" y1="76.6" x2="723.9" y2="555.4"/>
<g>
	<path class="st1" d="M351.5,304.7c-1.5,2.4-1.5,5.5,0.1,7.9c8.3,12.5,16.4,20.5,24.5,28.4c33.4,32.8,71,34.6,109.1,25.7l38.2,37.5
		c5.9,5.8,4.2,5.4,11.9,2.8l63.7-21.5c7.6-2.7,7.4-1.7,1.6-7.4L562,340.2c5.9-2.3,11.9-4.4,17.8-6.5c3-1,5-3.8,4.9-7l-0.4-40.8
		c0-3.2-2.1-5.9-5.1-6.9c-5.9-1.9-11.9-4-17.9-6.2l37.8-38.5c5.7-5.8,5.7-4.6-2-7.1l-65.3-20.9c-7.9-2.5-4.8-2.8-10.5,3l-37.2,38.6
		c-38.2-8.1-75.9-5.6-108.6,27.7C367.5,283.8,359.6,292.1,351.5,304.7L351.5,304.7z"/>
	<circle class="st2" cx="415.1" cy="308" r="27.7"/>
</g>
<g>
	<g>
		<path class="st0" d="M681.4,307.7c0,3-0.1,6-0.2,9"/>
		<path class="st3" d="M679.6,334.1c-12.9,92.4-92.2,163.4-188.1,163.4c-98.9,0-180.1-75.6-189.1-172.1"/>
		<path class="st0" d="M301.9,316.7c-0.1-3-0.2-6-0.2-9"/>
	</g>
</g>
<path class="st4" d="M491.5,8.4c165.2,0,299.1,133.9,299.1,299.1"/>
<path class="st0" d="M196.2,307.5c0-77.7,29.7-148.6,78.3-201.8"/>
<g>
	<path class="st5" d="M-248.8,311.5c-0.1,0.3-0.1,0.8-0.2,1.2l-0.2,1.3l-0.3,2.7c-0.2,1.8-0.4,3.7-0.5,5.6
		c-0.3,3.7-0.5,7.5-0.5,11.3c-0.1,7.5,0.1,15.1,0.8,22.6c0.7,7.5,1.9,15,3.6,22.3c1.8,7.3,4.1,14.5,7.2,21.3
		c1.6,3.4,3.3,6.7,5.3,9.9c2,3.2,4.1,6.2,6.5,9.1c4.7,5.8,10.5,10.8,16.8,15c3.2,2,6.6,3.8,10.1,5.4c3.5,1.5,7.2,2.8,10.9,3.9
		c7.5,2.1,15.3,3.3,23.1,3.8c-7.9,0.4-15.8,0.1-23.7-1.2c-3.9-0.7-7.8-1.6-11.7-2.8c-3.8-1.2-7.6-2.7-11.3-4.5
		c-7.3-3.6-14.1-8.4-20-14.2c-3-2.9-5.7-6-8.3-9.2c-2.5-3.3-4.9-6.7-7-10.2c-4.3-7.1-7.7-14.6-10.5-22.4c-2.8-7.7-5-15.7-6.7-23.7
		c-1.7-8-2.8-16.2-3.6-24.3c-0.4-4.1-0.6-8.2-0.8-12.3c-0.1-2.1-0.1-4.1-0.1-6.2l0-3.1l0-1.6c0-0.6,0-1,0.1-1.7l0-0.6
		c0.4-5.8,5.3-10.2,11.2-9.9c5.8,0.4,10.2,5.3,9.9,11.2C-248.6,310.6-248.7,311.1-248.8,311.5z"/>
</g>
<g>
	<path class="st5" d="M-429.8,338.2l0,0.9l0,0.8l0,1.5l-0.1,2.9c-0.1,1.9-0.2,3.9-0.3,5.8c-0.3,3.8-0.6,7.7-1.1,11.5
		c-0.9,7.6-2.3,15.1-4.2,22.6c-3.7,14.8-9.3,29.4-18,42.3c-4.3,6.4-9.4,12.3-15.2,17.4c-2.9,2.5-6,4.8-9.2,6.9
		c-3.2,2.1-6.6,3.8-10,5.4c-3.4,1.6-7,2.8-10.6,3.8c-3.6,1-7.3,1.7-10.9,2.3c-7.3,1-14.7,1.2-22,0.8c7.3-0.5,14.5-1.6,21.4-3.5
		c3.4-1,6.9-2.1,10.1-3.5c3.3-1.4,6.4-3,9.4-4.8c3-1.8,5.9-3.9,8.5-6.1c2.7-2.2,5.1-4.7,7.4-7.2c4.6-5.1,8.4-11,11.5-17.1
		c6.2-12.3,9.6-25.9,11.2-39.7c0.8-6.9,1.2-13.8,1.2-20.8c0-3.5-0.1-6.9-0.3-10.4c-0.1-1.7-0.2-3.4-0.4-5.1l-0.3-2.5l-0.1-1.2
		l-0.1-0.6c0-0.2-0.1-0.4-0.1-0.5L-429.8,338.2z"/>
</g>
<g>
	<path class="st5" d="M-341.7,174.6l-13,409l-13-409c-0.2-7.2,5.4-13.2,12.6-13.4c7.2-0.2,13.2,5.4,13.4,12.6
		C-341.7,174-341.7,174.3-341.7,174.6z"/>
</g>
<g>
	<path class="st6" d="M-258.4,176.6c-1.2-0.7-2.7-0.7-3.8,0c-6.1,4-9.9,8-13.8,11.9c-15.9,16.2-16.7,34.5-12.4,53l-18.2,18.6
		c-2.8,2.9-2.6,2-1.3,5.8l10.5,30.9c1.3,3.7,0.8,3.6,3.6,0.7l18.3-18.8c1.1,2.9,2.2,5.8,3.2,8.6c0.5,1.4,1.8,2.4,3.4,2.4l19.8-0.2
		c1.5,0,2.9-1,3.3-2.5c0.9-2.9,1.9-5.8,3-8.7l18.7,18.3c2.8,2.8,2.2,2.8,3.4-1l10-31.7c1.2-3.8,1.4-2.3-1.5-5.1l-18.8-18
		c3.9-18.6,2.6-36.9-13.6-52.7C-248.2,184.3-252.2,180.4-258.4,176.6L-258.4,176.6z"/>
	
		<ellipse transform="matrix(0.4366 -0.8997 0.8997 0.4366 -333.0108 -116.9264)" class="st2" cx="-259.9" cy="207.4" rx="13.5" ry="13.5"/>
</g>
<path class="st7" d="M-248.1,312l-11.6,34.9l-11-35.2c-1.1-3.6-0.5-7.5,1.7-10.6l0,0c4.7-6.6,14.6-6.5,19.3,0.2l0,0
	C-247.5,304.5-246.8,308.4-248.1,312z"/>
<g>
	<path class="st1" d="M-352.3,2.2c-1.5-1-3.4-1-5,0c-7.9,5.1-13,10.2-18.1,15.3c-20.9,20.9-22.2,44.6-16.9,68.6l-23.9,23.9
		c-3.7,3.7-3.4,2.6-1.8,7.5l13.2,40.3c1.6,4.8,1,4.7,4.7,1l24.1-24.1c1.4,3.7,2.7,7.6,4,11.2c0.6,1.9,2.4,3.1,4.4,3.1h25.7
		c2,0,3.7-1.3,4.4-3.1c1.2-3.7,2.6-7.5,4-11.2l24.1,24.1c3.6,3.6,2.8,3.6,4.5-1.2l13.5-41c1.6-5,1.8-3-1.8-6.6l-24.1-23.7
		c5.3-24.1,4-47.8-16.8-68.6C-339.2,12.5-344.4,7.4-352.3,2.2L-352.3,2.2z"/>
	
		<ellipse transform="matrix(0.4473 -0.8944 0.8944 0.4473 -233.8673 -293.8805)" class="st2" cx="-354.7" cy="42.3" rx="17.5" ry="17.5"/>
</g>
<g>
	<path class="st8" d="M-440.8,207.9c-6.1,3.7-10,7.5-13.9,11.2c-16,15.3-17.5,33.1-13.9,51.3l-18.6,17.4c-2.8,2.7-2.6,1.2-1.5,5
		l9.5,31.1c1.1,3.7,0.5,3.7,3.3,1l18.5-17.7c1,2.8,2,5.7,2.8,8.5c0.4,1.4,1.7,2.4,3.2,2.4l19.3,0.5c1.5,0,2.8-0.9,3.3-2.3
		c1-2.8,2.1-5.6,3.2-8.4l17.7,18.6c2.7,2.8,2.2,2.9,3.5-0.7l10.6-30.1c1.3-3.7,1.5-2.8-1.2-5.7l-17.5-18.4c4.5-18,3.9-35.9-11.5-52
		c-3.7-3.9-7.5-7.8-13.3-11.8C-438.2,207.2-439.7,207.2-440.8,207.9L-440.8,207.9z"/>
	<ellipse class="st2" cx="-439.8" cy="238.1" rx="13.2" ry="13.2"/>
</g>
<path class="st7" d="M-340,179.2l-14.7,45.5l-14.7-45.5c-1.5-4.7-0.8-9.8,2.1-13.8l0,0c6.1-8.6,18.9-8.6,25,0l0,0
	C-339.3,169.4-338.5,174.4-340,179.2z"/>
<path class="st7" d="M-429.8,342.7l-11.4,34.2l-10.7-34.4c-1.1-3.5-0.5-7.4,1.7-10.3l0,0c4.7-6.4,14.3-6.3,18.8,0.2l0,0
	C-429.2,335.4-428.6,339.2-429.8,342.7z"/>
</svg>
