<?xml version="1.0" encoding="utf-8"?>
<!-- Generator: Adobe Illustrator 22.0.1, SVG Export Plug-In . SVG Version: 6.00 Build 0)  -->
<svg version="1.1" id="Layer_1" xmlns="http://www.w3.org/2000/svg" xmlns:xlink="http://www.w3.org/1999/xlink" x="0px" y="0px"
	 viewBox="0 0 976 646" style="enable-background:new 0 0 976 646;" xml:space="preserve">
<style type="text/css">
	.st0{fill:none;stroke:#E5E5E5;stroke-width:11;stroke-miterlimit:10;}
	.st1{fill:none;stroke:#E5E5E5;stroke-width:11;stroke-miterlimit:10;stroke-dasharray:17.5325,17.5325;}
	.st2{fill:none;stroke:#E5E5E5;stroke-width:11;stroke-miterlimit:10;stroke-dasharray:18;}
	.st3{fill:#F15C5E;}
	.st4{fill:#FFFFFF;}
	.st5{fill:#6FC7F7;}
</style>
<g>
	<g>
		<g>
			<path class="st0" d="M543.3,421c-2.2,0.7-4.5,1.4-6.7,2"/>
			<path class="st1" d="M523.4,426.2c-71.5,13-143.3-28.3-166.8-99.2c-24.1-73.1,11.9-151.6,81.1-181.8"/>
			<path class="st0" d="M444,142.6c2.2-0.8,4.4-1.6,6.6-2.3"/>
		</g>
	</g>
	<path class="st2" d="M718.3,207.5c40.3,122.2-26,253.9-148.1,294.2"/>
	<path class="st0" d="M637.4,234.3c25.6,77.6-16.5,161.2-94.1,186.8S382.2,404.6,356.5,327"/>
	<line class="st0" x1="582" y1="534.6" x2="413.6" y2="21.5"/>
	<path class="st0" d="M418.4,25.9c64.1-21.2,130.7-16,187.9,9.6"/>
</g>
<g>
	<g>
		<g>
			<path class="st0" d="M354.7,425.5c-2.3-2.3-4.5-4.6-6.7-7"/>
			<path class="st1" d="M335.9,404.1c-60.5-80.1-54.2-194.5,18.8-267.5C430,61.3,549.3,57,629.6,123.6"/>
			<path class="st0" d="M636.6,129.9c2.4,2.2,4.7,4.4,7,6.7"/>
		</g>
	</g>
	<path class="st2" d="M727,508.8c-125.7,125.7-329.5,125.7-455.3,0"/>
	<path class="st0" d="M687.6,95.9c103,103,103,269.9,0,372.9s-269.9,103-372.9,0"/>
	<path class="st0" d="M643.7,425.5c-79.8,79.8-209.2,79.8-289,0s-79.8-209.2,0-289"/>
	<path class="st0" d="M273.8,510.9c-125.7-125.7-125.7-329.5,0-455.3"/>
	<line class="st0" x1="235.5" y1="540.1" x2="752.8" y2="24.2"/>
	<line class="st0" x1="857" y1="274.9" x2="128.5" y2="274.7"/>
	<path class="st0" d="M724.1,56.4c59.1,59.1,90.5,135.7,94,213.2"/>
</g>
<g>
	<path class="st3" d="M587.1,193.4c-0.5-2.4-2.4-4.3-4.9-4.7c-12.6-2.6-22.4-2.5-32.2-2.4c-40.2,0.4-64.2,22.1-81.9,50.7l-46,0.4
		c-7.1,0.1-5.8-0.7-8.9,5.5l-25.6,51.8c-3,6.3-3.5,5.5,3.5,5.5l46.5-0.4c-2.2,5-4.6,9.9-6.9,14.8c-1.2,2.4-0.7,5.3,1.3,7.2l25,24.6
		c1.9,1.9,4.9,2.3,7.3,1.1c4.7-2.4,9.7-4.8,14.6-7.1l0.4,46.4c0.1,7-0.7,6.3,5.5,3.1l52.4-27c6.3-3.3,4.6-1.2,4.6-8.2l-0.9-46.1
		c28.1-18.3,49.5-42.7,49.2-82.8C590.1,215.8,589.9,205.9,587.1,193.4L587.1,193.4z"/>
	<circle class="st4" cx="546.5" cy="230" r="23.8"/>
</g>
<path class="st5" d="M427.7,380.6l-68.2,36.7l33.8-69.7c3.5-7.2,10.1-12.4,17.9-13.8l0,0c16.8-3.2,31.8,11.1,29.3,28l0,0
	C439.5,369.9,434.9,376.6,427.7,380.6z"/>
</svg>
