<?xml version="1.0" encoding="utf-8"?>
<!-- Generator: Adobe Illustrator 22.0.1, SVG Export Plug-In . SVG Version: 6.00 Build 0)  -->
<svg version="1.1" id="Layer_1" xmlns="http://www.w3.org/2000/svg" xmlns:xlink="http://www.w3.org/1999/xlink" x="0px" y="0px"
	 viewBox="0 0 976 648" style="enable-background:new 0 0 976 648;" xml:space="preserve">
<style type="text/css">
	.st0{fill:#95989A;}
	.st1{fill:#F15C5E;}
	.st2{fill:#FFFFFF;}
	.st3{fill:none;stroke:#E5E5E5;stroke-width:11;stroke-miterlimit:10;}
	.st4{fill:#4EB0F2;}
	.st5{fill:#B167C9;}
	.st6{fill:#FFC950;}
	.st7{fill:none;stroke:#E5E5E5;stroke-width:11;stroke-linecap:round;stroke-miterlimit:10;}
	.st8{fill:#E5E5E5;}
</style>
<g>
	
		<rect x="552.2" y="237.5" transform="matrix(0.549 -0.8358 0.8358 0.549 85.3495 643.8312)" class="st0" width="174.1" height="10.6"/>
	<polygon class="st1" points="780.5,240.5 738.9,302.1 645.1,243.6 686.6,180.3 	"/>
	<g>
		
			<rect x="720.8" y="233.8" transform="matrix(0.5517 -0.834 0.834 0.5517 123.4833 712.5667)" class="st2" width="7.7" height="15.3"/>
		<polygon class="st2" points="705.2,248.4 719,227.4 735.7,238.5 741.6,229.6 712.2,210.1 692.5,240 		"/>
		<polygon class="st2" points="713.5,244.4 706.5,254.9 689.8,243.9 683.9,252.8 713.4,272.3 726.2,252.8 		"/>
	</g>
</g>
<g>
	<path class="st1" d="M492.8,20.1c-2.5-1.6-5.7-1.6-8.2,0c-13.1,8.5-21.5,16.9-29.9,25.3c-34.5,34.5-36.8,73.7-27.9,113.5
		l-39.5,39.5c-6.1,6.1-5.7,4.3-3,12.4l21.8,66.6c2.7,8,1.7,7.7,7.7,1.7l39.9-39.9c2.3,6.2,4.5,12.5,6.6,18.6c1,3.1,3.9,5.2,7.2,5.2
		H510c3.3,0,6.2-2.1,7.2-5.2c2-6.1,4.3-12.4,6.6-18.6l39.8,39.8c6,6,4.7,6,7.4-2l22.4-67.9c2.7-8.2,3-5-3-11l-39.9-39.2
		c8.8-39.8,6.6-79.1-27.8-113.5C514.4,37,505.9,28.6,492.8,20.1L492.8,20.1z"/>
	
		<ellipse transform="matrix(0.2298 -0.9732 0.9732 0.2298 292.5054 542.1964)" class="st2" cx="488.8" cy="86.3" rx="28.9" ry="28.9"/>
</g>
<ellipse class="st3" cx="488" cy="445" rx="474" ry="58"/>
<ellipse transform="matrix(3.327794e-02 -0.9994 0.9994 3.327794e-02 -355.9081 468.6442)" class="st4" cx="64.3" cy="418.3" rx="38.7" ry="38.7"/>
<circle class="st5" cx="241" cy="395.2" r="41"/>
<circle class="st6" cx="755.4" cy="394.2" r="44.2"/>
<circle class="st6" cx="181.2" cy="486.5" r="59.8"/>
<path class="st7" d="M776.1,398.9C889.1,409.5,962,426.2,962,445c0,5.9-7.3,11.7-20.9,17.1"/>
<path class="st3" d="M281.9,392.8c62.3-3.7,132.2-5.8,206.1-5.8c78.3,0,152.2,2.3,217.3,6.4"/>
<g>
	<circle class="st8" cx="488.5" cy="445.3" r="183"/>
	<circle class="st0" cx="533.5" cy="399.3" r="64"/>
	
		<ellipse transform="matrix(0.9038 -0.4279 0.4279 0.9038 -176.889 288.5601)" class="st0" cx="553.5" cy="537.8" rx="43" ry="32.5"/>
	
		<ellipse transform="matrix(0.8315 -0.5555 0.5555 0.8315 -213.3368 292.4803)" class="st0" cx="375.5" cy="497.9" rx="38.8" ry="62.4"/>
	
		<ellipse transform="matrix(0.7676 -0.641 0.641 0.7676 -133.4895 335.7098)" class="st0" cx="396.1" cy="351.9" rx="27.8" ry="17.3"/>
</g>
<path class="st7" d="M108,410.3c28.7-4.7,63.2-8.9,102.1-12.3"/>
<path class="st7" d="M48.2,423.3C26.2,430,14,437.3,14,445c0,12.7,33.5,24.5,90.4,34.1"/>
<circle class="st4" cx="871.2" cy="477.5" r="53.8"/>
<path class="st7" d="M842.8,483.5c-59.1,8.2-136.7,14.3-224.8,17.3"/>
<circle class="st5" cx="571.3" cy="500.2" r="54.7"/>
<path class="st7" d="M526.4,502.8c-12.7,0.1-25.5,0.2-38.4,0.2c-103.8,0-199.9-4.1-278-11"/>
</svg>
