<?xml version="1.0" encoding="utf-8"?>
<!-- Generator: Adobe Illustrator 22.1.0, SVG Export Plug-In . SVG Version: 6.00 Build 0)  -->
<svg version="1.1" xmlns="http://www.w3.org/2000/svg" xmlns:xlink="http://www.w3.org/1999/xlink" x="0px" y="0px"
	 viewBox="0 0 1920 1080" style="enable-background:new 0 0 1920 1080;" xml:space="preserve">
<style type="text/css">
	.st0{fill:#F15C5E;}
	.st1{fill:none;stroke:#E65A5C;stroke-width:6;}
</style>
<g id="Layer_1">
	<g id="Layer_2_1_">
		<g>
			<rect class="st0" width="1920" height="1080"/>
		</g>
	</g>
</g>
<g id="Layer_2">
	<g id="Group_409_57_" transform="translate(225.365) rotate(90)">
		<path id="Path_544_57_" class="st1" d="M689-1609.4v-130.4H494.6v-278.4"/>
		<path id="Path_545_57_" class="st1" d="M494.6-1892.4H337.8v-127.4"/>
		<path id="Path_546_57_" class="st1" d="M494.6-1831.9h128.5v-133.4H494.6"/>
		<path id="Path_547_57_" class="st1" d="M865.6-1908.5H621.5"/>
		<path id="Path_548_57_" class="st1" d="M865.6-1778.6h-96V-1909"/>
		<path id="Path_549_57_" class="st1" d="M701.6-1909v-107.7"/>
		<path id="Path_550_57_" class="st1" d="M701.6-1967.2h92.3v-49.5"/>
		<path id="Path_551_57_" class="st1" d="M689-1641.3h101.4v30.3"/>
		<path id="Path_552_57_" class="st1" d="M762.1-1609.4v-32"/>
	</g>
	<g id="Group_409_56_" transform="translate(225.365) rotate(90)">
		<path id="Path_544_56_" class="st1" d="M18.5-7.9v130.4H213v278.4"/>
		<path id="Path_545_56_" class="st1" d="M213,275.2h156.8v127.4"/>
		<path id="Path_546_56_" class="st1" d="M213,214.6H84.5V348H213"/>
		<path id="Path_547_56_" class="st1" d="M-158,291.2H86.1"/>
		<path id="Path_548_56_" class="st1" d="M-158,161.4h96v130.3"/>
		<path id="Path_549_56_" class="st1" d="M5.9,291.7v107.7"/>
		<path id="Path_550_56_" class="st1" d="M5.9,349.9h-92.3v49.5"/>
		<path id="Path_551_56_" class="st1" d="M18.5,24.1H-82.9V-6.3"/>
		<path id="Path_552_56_" class="st1" d="M-54.5-7.9v32"/>
	</g>
	<g id="Group_409_55_" transform="translate(225.365) rotate(90)">
		<path id="Path_544_55_" class="st1" d="M11.6-348.1v130.4h194.4V60.7"/>
		<path id="Path_545_55_" class="st1" d="M206.1-65.1h156.8V62.3"/>
		<path id="Path_546_55_" class="st1" d="M206.1-125.6H77.6V7.8h128.5"/>
		<path id="Path_547_55_" class="st1" d="M-164.9-49H79.2"/>
		<path id="Path_548_55_" class="st1" d="M-164.9-178.8h96v130.3"/>
		<path id="Path_549_55_" class="st1" d="M-1-48.5V59.2"/>
		<path id="Path_550_55_" class="st1" d="M-1,9.7h-92.3v49.5"/>
		<path id="Path_551_55_" class="st1" d="M11.6-316.2H-89.8v-30.3"/>
		<path id="Path_552_55_" class="st1" d="M-61.4-348.1v32"/>
	</g>
	<g id="Group_409_54_" transform="translate(225.365) rotate(90)">
		<path id="Path_544_54_" class="st1" d="M528.5,409.1V278.7H334V0.3"/>
		<path id="Path_545_54_" class="st1" d="M334,126H177.2V-1.4"/>
		<path id="Path_546_54_" class="st1" d="M334,186.6h128.5V53.2H334"/>
		<path id="Path_547_54_" class="st1" d="M705,110H460.9"/>
		<path id="Path_548_54_" class="st1" d="M705,239.8h-96V109.5"/>
		<path id="Path_549_54_" class="st1" d="M541.1,109.5V1.8"/>
		<path id="Path_550_54_" class="st1" d="M541.1,51.3h92.3V1.8"/>
		<path id="Path_551_54_" class="st1" d="M528.5,377.1h101.4v30.3"/>
		<path id="Path_552_54_" class="st1" d="M601.5,409.1v-32"/>
	</g>
	<g id="Group_409_53_" transform="translate(225.365) rotate(90)">
		<path id="Path_544_53_" class="st1" d="M666.2-241.8H535.8v194.4H257.4"/>
		<path id="Path_545_53_" class="st1" d="M383.1-47.3v156.8H255.7"/>
		<path id="Path_546_53_" class="st1" d="M443.6-47.3v-128.5H310.3v128.5"/>
		<path id="Path_547_53_" class="st1" d="M367-418.3v244.1"/>
		<path id="Path_548_53_" class="st1" d="M496.9-418.3v96H366.5"/>
		<path id="Path_549_53_" class="st1" d="M366.5-254.4H258.8"/>
		<path id="Path_550_53_" class="st1" d="M308.3-254.4v-92.3h-49.5"/>
		<path id="Path_551_53_" class="st1" d="M634.2-241.8v-101.4h30.3"/>
		<path id="Path_552_53_" class="st1" d="M666.2-314.9h-32"/>
	</g>
	<g id="Group_409_52_" transform="translate(225.365) rotate(90)">
		<path id="Path_544_52_" class="st1" d="M-12.4-660.6v130.4H182v278.4"/>
		<path id="Path_545_52_" class="st1" d="M182-377.5h156.8v127.4"/>
		<path id="Path_546_52_" class="st1" d="M182-438.1H53.5v133.4H182"/>
		<path id="Path_547_52_" class="st1" d="M-189-361.5H55.1"/>
		<path id="Path_548_52_" class="st1" d="M-189-491.3h96v130.3"/>
		<path id="Path_549_52_" class="st1" d="M-25-360.9v107.7"/>
		<path id="Path_550_52_" class="st1" d="M-25-302.8h-92.3v49.5"/>
		<path id="Path_551_52_" class="st1" d="M-12.4-628.6h-101.4v-30.3"/>
		<path id="Path_552_52_" class="st1" d="M-85.5-660.6v32"/>
	</g>
	<g id="Group_409_51_" transform="translate(225.365) rotate(90)">
		<path id="Path_544_51_" class="st1" d="M-19.3-1000.8v130.4h194.4V-592"/>
		<path id="Path_545_51_" class="st1" d="M175.1-717.7h156.8v127.4"/>
		<path id="Path_546_51_" class="st1" d="M175.1-778.3H46.6v133.4h128.5"/>
		<path id="Path_547_51_" class="st1" d="M-195.9-701.7H48.2"/>
		<path id="Path_548_51_" class="st1" d="M-195.9-831.5h96v130.3"/>
		<path id="Path_549_51_" class="st1" d="M-31.9-701.2v107.7"/>
		<path id="Path_550_51_" class="st1" d="M-31.9-643h-92.3v49.5"/>
		<path id="Path_551_51_" class="st1" d="M-19.3-968.8h-101.4v-30.3"/>
		<path id="Path_552_51_" class="st1" d="M-92.4-1000.8v32"/>
	</g>
	<g id="Group_409_50_" transform="translate(225.365) rotate(90)">
		<path id="Path_544_50_" class="st1" d="M497.5-243.6V-374H303.1v-278.4"/>
		<path id="Path_545_50_" class="st1" d="M303.1-526.7H146.3V-654"/>
		<path id="Path_546_50_" class="st1" d="M303.1-466.1h128.5v-133.4H303.1"/>
		<path id="Path_547_50_" class="st1" d="M674.1-542.7H430"/>
		<path id="Path_548_50_" class="st1" d="M674.1-412.9h-96v-130.3"/>
		<path id="Path_549_50_" class="st1" d="M510.1-543.2v-107.7"/>
		<path id="Path_550_50_" class="st1" d="M510.1-601.4h92.3v-49.5"/>
		<path id="Path_551_50_" class="st1" d="M497.5-275.6h101.4v30.3"/>
		<path id="Path_552_50_" class="st1" d="M570.6-243.6v-32"/>
	</g>
	<g id="Group_409_49_" transform="translate(225.365) rotate(90)">
		<path id="Path_544_49_" class="st1" d="M635.2-894.5H504.8V-700H226.4"/>
		<path id="Path_545_49_" class="st1" d="M352.1-700v156.8H224.7"/>
		<path id="Path_546_49_" class="st1" d="M412.7-700v-128.5H279.3V-700"/>
		<path id="Path_547_49_" class="st1" d="M336.1-1071v244.1"/>
		<path id="Path_548_49_" class="st1" d="M465.9-1071v96H335.6"/>
		<path id="Path_549_49_" class="st1" d="M335.6-907.1H227.9"/>
		<path id="Path_550_49_" class="st1" d="M277.4-907v-92.3h-49.5"/>
		<path id="Path_551_49_" class="st1" d="M603.2-894.5v-101.4h30.3"/>
		<path id="Path_552_49_" class="st1" d="M635.2-967.5h-32"/>
	</g>
	<g id="Group_409_48_" transform="translate(225.365) rotate(90)">
		<path id="Path_544_48_" class="st1" d="M4.1-1403.3v130.4h194.4v278.4"/>
		<path id="Path_545_48_" class="st1" d="M198.6-1120.3h156.8v127.4"/>
		<path id="Path_546_48_" class="st1" d="M198.6-1180.8H70.1v133.4h128.5"/>
		<path id="Path_547_48_" class="st1" d="M-172.4-1104.2H71.7"/>
		<path id="Path_548_48_" class="st1" d="M-172.4-1234h96v130.3"/>
		<path id="Path_549_48_" class="st1" d="M-8.5-1103.7V-996"/>
		<path id="Path_550_48_" class="st1" d="M-8.5-1045.5h-92.3v49.5"/>
		<path id="Path_551_48_" class="st1" d="M4.1-1371.4H-97.3v-30.3"/>
		<path id="Path_552_48_" class="st1" d="M-68.9-1403.3v32"/>
	</g>
	<g id="Group_409_47_" transform="translate(225.365) rotate(90)">
		<path id="Path_544_47_" class="st1" d="M-2.8-1743.6v130.4h194.4v278.4"/>
		<path id="Path_545_47_" class="st1" d="M191.6-1460.5h156.8v127.4"/>
		<path id="Path_546_47_" class="st1" d="M191.6-1521H63.2v133.4h128.5"/>
		<path id="Path_547_47_" class="st1" d="M-179.3-1444.4H64.8"/>
		<path id="Path_548_47_" class="st1" d="M-179.3-1574.3h96v130.3"/>
		<path id="Path_549_47_" class="st1" d="M-15.4-1443.9v107.7"/>
		<path id="Path_550_47_" class="st1" d="M-15.4-1385.7h-92.3v49.5"/>
		<path id="Path_551_47_" class="st1" d="M-2.8-1711.6h-101.4v-30.3"/>
		<path id="Path_552_47_" class="st1" d="M-75.9-1743.6v32"/>
	</g>
	<g id="Group_409_46_" transform="translate(225.365) rotate(90)">
		<path id="Path_544_46_" class="st1" d="M514.1-986.3v-130.4H319.6v-278.4"/>
		<path id="Path_545_46_" class="st1" d="M319.6-1269.4H162.8v-127.4"/>
		<path id="Path_546_46_" class="st1" d="M319.6-1208.8h128.5v-133.4H319.6"/>
		<path id="Path_547_46_" class="st1" d="M690.6-1285.5H446.5"/>
		<path id="Path_548_46_" class="st1" d="M690.6-1155.6h-96V-1286"/>
		<path id="Path_549_46_" class="st1" d="M526.6-1286v-107.7"/>
		<path id="Path_550_46_" class="st1" d="M526.6-1344.1H619v-49.5"/>
		<path id="Path_551_46_" class="st1" d="M514.1-1018.3h101.4v30.3"/>
		<path id="Path_552_46_" class="st1" d="M587.1-986.3v-32"/>
	</g>
	<g id="Group_409_45_" transform="translate(225.365) rotate(90)">
		<path id="Path_544_45_" class="st1" d="M651.7-1637.2H521.3v194.4H242.9"/>
		<path id="Path_545_45_" class="st1" d="M368.7-1442.8v156.8H241.3"/>
		<path id="Path_546_45_" class="st1" d="M429.2-1442.8v-128.5H295.8v128.5"/>
		<path id="Path_547_45_" class="st1" d="M352.6-1813.8v244.1"/>
		<path id="Path_548_45_" class="st1" d="M482.4-1813.8v96H352.1"/>
		<path id="Path_549_45_" class="st1" d="M352.1-1649.8H244.4"/>
		<path id="Path_550_45_" class="st1" d="M293.9-1649.8v-92.3h-49.5"/>
		<path id="Path_551_45_" class="st1" d="M619.8-1637.2v-101.4h30.3"/>
		<path id="Path_552_45_" class="st1" d="M651.7-1710.3h-32"/>
	</g>
	<g id="Group_409_44_" transform="translate(225.365) rotate(90)">
		<path id="Path_544_44_" class="st1" d="M693.6-1336.4v130.4H888v278.4"/>
		<path id="Path_545_44_" class="st1" d="M888-1053.3h156.8v127.4"/>
		<path id="Path_546_44_" class="st1" d="M888-1113.9H759.5v133.4H888"/>
		<path id="Path_547_44_" class="st1" d="M517-1037.3h244.1"/>
		<path id="Path_548_44_" class="st1" d="M517-1167.1h96v130.3"/>
		<path id="Path_549_44_" class="st1" d="M681-1036.7v107.7"/>
		<path id="Path_550_44_" class="st1" d="M681-978.6h-92.3v49.5"/>
		<path id="Path_551_44_" class="st1" d="M693.6-1304.4H592.2v-30.3"/>
		<path id="Path_552_44_" class="st1" d="M620.5-1336.4v32"/>
	</g>
	<g id="Group_409_43_" transform="translate(225.365) rotate(90)">
		<path id="Path_544_43_" class="st1" d="M686.7-1676.6v130.4h194.4v278.4"/>
		<path id="Path_545_43_" class="st1" d="M881.1-1393.5h156.8v127.4"/>
		<path id="Path_546_43_" class="st1" d="M881.1-1454.1H752.6v133.4h128.5"/>
		<path id="Path_547_43_" class="st1" d="M510.1-1377.5h244.1"/>
		<path id="Path_548_43_" class="st1" d="M510.1-1507.3h96v130.3"/>
		<path id="Path_549_43_" class="st1" d="M674.1-1377v107.7"/>
		<path id="Path_550_43_" class="st1" d="M674.1-1318.8h-92.3v49.5"/>
		<path id="Path_551_43_" class="st1" d="M686.7-1644.6H585.2v-30.3"/>
		<path id="Path_552_43_" class="st1" d="M613.6-1676.6v32"/>
	</g>
	<g id="Group_409_42_" transform="translate(225.365) rotate(90)">
		<path id="Path_544_42_" class="st1" d="M1203.5-919.4v-130.4h-194.4v-278.4"/>
		<path id="Path_545_42_" class="st1" d="M1009.1-1202.5H852.3v-127.4"/>
		<path id="Path_546_42_" class="st1" d="M1009.1-1141.9h128.5v-133.4h-128.5"/>
		<path id="Path_547_42_" class="st1" d="M1380.1-1218.5H1136"/>
		<path id="Path_548_42_" class="st1" d="M1380.1-1088.7h-96V-1219"/>
		<path id="Path_549_42_" class="st1" d="M1216.1-1219v-107.7"/>
		<path id="Path_550_42_" class="st1" d="M1216.1-1277.2h92.3v-49.5"/>
		<path id="Path_551_42_" class="st1" d="M1203.5-951.4h101.4v30.3"/>
		<path id="Path_552_42_" class="st1" d="M1276.6-919.4v-32"/>
	</g>
	<g id="Group_409_41_" transform="translate(225.365) rotate(90)">
		<path id="Path_544_41_" class="st1" d="M1341.2-1570.3h-130.4v194.4H932.4"/>
		<path id="Path_545_41_" class="st1" d="M1058.1-1375.8v156.8H930.7"/>
		<path id="Path_546_41_" class="st1" d="M1118.7-1375.8v-128.5H985.3v128.5"/>
		<path id="Path_547_41_" class="st1" d="M1042.1-1746.8v244.1"/>
		<path id="Path_548_41_" class="st1" d="M1171.9-1746.8v96h-130.3"/>
		<path id="Path_549_41_" class="st1" d="M1041.6-1582.8H933.9"/>
		<path id="Path_550_41_" class="st1" d="M983.4-1582.8v-92.3h-49.5"/>
		<path id="Path_551_41_" class="st1" d="M1309.2-1570.3v-101.4h30.3"/>
		<path id="Path_552_41_" class="st1" d="M1341.2-1643.3h-32"/>
	</g>
	<g id="Group_409_40_" transform="translate(225.365) rotate(90)">
		<path id="Path_544_40_" class="st1" d="M786.4-570.1v130.4h194.4v278.4"/>
		<path id="Path_545_40_" class="st1" d="M980.8-287h156.8v127.4"/>
		<path id="Path_546_40_" class="st1" d="M980.8-347.5H852.4v133.4h128.5"/>
		<path id="Path_547_40_" class="st1" d="M609.8-270.9h244.1"/>
		<path id="Path_548_40_" class="st1" d="M609.8-400.8h96v130.3"/>
		<path id="Path_549_40_" class="st1" d="M773.8-270.4v107.7"/>
		<path id="Path_550_40_" class="st1" d="M773.8-212.2h-92.3v49.5"/>
		<path id="Path_551_40_" class="st1" d="M786.4-538.1H685v-30.3"/>
		<path id="Path_552_40_" class="st1" d="M713.3-570.1v32"/>
	</g>
	<g id="Group_409_39_" transform="translate(225.365) rotate(90)">
		<path id="Path_544_39_" class="st1" d="M779.5-910.3v130.4h194.4v278.4"/>
		<path id="Path_545_39_" class="st1" d="M973.9-627.2h156.8v127.4"/>
		<path id="Path_546_39_" class="st1" d="M973.9-687.8H845.4v133.4h128.5"/>
		<path id="Path_547_39_" class="st1" d="M602.9-611.2H847"/>
		<path id="Path_548_39_" class="st1" d="M602.9-741h96v130.3"/>
		<path id="Path_549_39_" class="st1" d="M766.9-610.6V-503"/>
		<path id="Path_550_39_" class="st1" d="M766.9-552.5h-92.3v49.5"/>
		<path id="Path_551_39_" class="st1" d="M779.5-878.3H678.1v-30.3"/>
		<path id="Path_552_39_" class="st1" d="M706.4-910.3v32"/>
	</g>
	<g id="Group_409_38_" transform="translate(225.365) rotate(90)">
		<path id="Path_544_38_" class="st1" d="M1296.3-153.1v-130.4h-194.4v-278.4"/>
		<path id="Path_545_38_" class="st1" d="M1101.9-436.1H945.1v-127.4"/>
		<path id="Path_546_38_" class="st1" d="M1101.9-375.6h128.5V-509h-128.5"/>
		<path id="Path_547_38_" class="st1" d="M1472.9-452.2h-244.1"/>
		<path id="Path_548_38_" class="st1" d="M1472.9-322.3h-96v-130.3"/>
		<path id="Path_549_38_" class="st1" d="M1308.9-452.7v-107.7"/>
		<path id="Path_550_38_" class="st1" d="M1308.9-510.9h92.3v-49.5"/>
		<path id="Path_551_38_" class="st1" d="M1296.3-185h101.4v30.3"/>
		<path id="Path_552_38_" class="st1" d="M1369.4-153.1v-32"/>
	</g>
	<g id="Group_409_37_" transform="translate(225.365) rotate(90)">
		<path id="Path_544_37_" class="st1" d="M1434-803.9h-130.4v194.4h-278.4"/>
		<path id="Path_545_37_" class="st1" d="M1150.9-609.5v156.8h-127.4"/>
		<path id="Path_546_37_" class="st1" d="M1211.5-609.5V-738h-133.4v128.5"/>
		<path id="Path_547_37_" class="st1" d="M1134.9-980.5v244.1"/>
		<path id="Path_548_37_" class="st1" d="M1264.7-980.5v96h-130.3"/>
		<path id="Path_549_37_" class="st1" d="M1134.4-816.5h-107.7"/>
		<path id="Path_550_37_" class="st1" d="M1076.2-816.5v-92.3h-49.5"/>
		<path id="Path_551_37_" class="st1" d="M1402-803.9v-101.4h30.3"/>
		<path id="Path_552_37_" class="st1" d="M1434-877h-32"/>
	</g>
	<g id="Group_409_36_" transform="translate(225.365) rotate(90)">
		<path id="Path_544_36_" class="st1" d="M-343.9-2077.6v130.4h194.4v278.4"/>
		<path id="Path_545_36_" class="st1" d="M-149.5-1794.5H7.3v127.4"/>
		<path id="Path_546_36_" class="st1" d="M-149.5-1855.1h-128.5v133.4h128.5"/>
		<path id="Path_547_36_" class="st1" d="M-520.5-1778.5h244.1"/>
		<path id="Path_548_36_" class="st1" d="M-520.5-1908.3h96v130.3"/>
		<path id="Path_549_36_" class="st1" d="M-356.5-1778v107.7"/>
		<path id="Path_550_36_" class="st1" d="M-356.5-1719.8h-92.3v49.5"/>
		<path id="Path_551_36_" class="st1" d="M-343.9-2045.6h-101.4v-30.3"/>
		<path id="Path_552_36_" class="st1" d="M-417-2077.6v32"/>
	</g>
	<g id="Group_409_35_" transform="translate(225.365) rotate(90)">
		<path id="Path_544_35_" class="st1" d="M-350.8-2417.8v130.4h194.4v278.4"/>
		<path id="Path_545_35_" class="st1" d="M-156.4-2134.7H0.4v127.4"/>
		<path id="Path_546_35_" class="st1" d="M-156.4-2195.3h-128.5v133.4h128.5"/>
		<path id="Path_547_35_" class="st1" d="M-527.4-2118.7h244.1"/>
		<path id="Path_548_35_" class="st1" d="M-527.4-2248.5h96v130.3"/>
		<path id="Path_549_35_" class="st1" d="M-363.4-2118.2v107.7"/>
		<path id="Path_550_35_" class="st1" d="M-363.4-2060h-92.3v49.5"/>
		<path id="Path_551_35_" class="st1" d="M-350.8-2385.8h-101.4v-30.3"/>
		<path id="Path_552_35_" class="st1" d="M-423.9-2417.8v32"/>
	</g>
	<g id="Group_409_34_" transform="translate(225.365) rotate(90)">
		<path id="Path_544_34_" class="st1" d="M166-1660.6V-1791H-28.4v-278.4"/>
		<path id="Path_545_34_" class="st1" d="M-28.4-1943.7h-156.8v-127.4"/>
		<path id="Path_546_34_" class="st1" d="M-28.4-1883.1h128.5v-133.4H-28.4"/>
		<path id="Path_547_34_" class="st1" d="M342.6-1959.7H98.5"/>
		<path id="Path_548_34_" class="st1" d="M342.6-1829.9h-96v-130.3"/>
		<path id="Path_549_34_" class="st1" d="M178.6-1960.2v-107.7"/>
		<path id="Path_550_34_" class="st1" d="M178.6-2018.4h92.3v-49.5"/>
		<path id="Path_551_34_" class="st1" d="M166-1692.6h101.4v30.3"/>
		<path id="Path_552_34_" class="st1" d="M239.1-1660.6v-32"/>
	</g>
	<g id="Group_409_33_" transform="translate(225.365) rotate(90)">
		<path id="Path_544_33_" class="st1" d="M303.7-2311.5H173.3v194.4h-278.4"/>
		<path id="Path_545_33_" class="st1" d="M20.6-2117v156.8h-127.4"/>
		<path id="Path_546_33_" class="st1" d="M81.2-2117v-128.5H-52.2v128.5"/>
		<path id="Path_547_33_" class="st1" d="M4.6-2488v244.1"/>
		<path id="Path_548_33_" class="st1" d="M134.4-2488v96H4.1"/>
		<path id="Path_549_33_" class="st1" d="M4.1-2324.1h-107.7"/>
		<path id="Path_550_33_" class="st1" d="M-54.1-2324.1v-92.3h-49.5"/>
		<path id="Path_551_33_" class="st1" d="M271.7-2311.5v-101.4h30.3"/>
		<path id="Path_552_33_" class="st1" d="M303.7-2384.5h-32"/>
	</g>
	<g id="Group_409_32_" transform="translate(225.365) rotate(90)">
		<path id="Path_544_32_" class="st1" d="M693.6,59v130.4H888v278.4"/>
		<path id="Path_545_32_" class="st1" d="M888,342.1h156.8v127.4"/>
		<path id="Path_546_32_" class="st1" d="M888,281.5H759.5v133.4H888"/>
		<path id="Path_547_32_" class="st1" d="M517,358.2h244.1"/>
		<path id="Path_548_32_" class="st1" d="M517,228.3h96v130.3"/>
		<path id="Path_549_32_" class="st1" d="M681,358.7v107.7"/>
		<path id="Path_550_32_" class="st1" d="M681,416.8h-92.3v49.5"/>
		<path id="Path_551_32_" class="st1" d="M693.6,91H592.2V60.7"/>
		<path id="Path_552_32_" class="st1" d="M620.5,59v32"/>
	</g>
	<g id="Group_409_31_" transform="translate(225.365) rotate(90)">
		<path id="Path_544_31_" class="st1" d="M686.7-281.2v130.4h194.4v278.4"/>
		<path id="Path_545_31_" class="st1" d="M881.1,1.9h156.8v127.4"/>
		<path id="Path_546_31_" class="st1" d="M881.1-58.7H752.6V74.7h128.5"/>
		<path id="Path_547_31_" class="st1" d="M510.1,17.9h244.1"/>
		<path id="Path_548_31_" class="st1" d="M510.1-111.9h96V18.4"/>
		<path id="Path_549_31_" class="st1" d="M674.1,18.4v107.7"/>
		<path id="Path_550_31_" class="st1" d="M674.1,76.6h-92.3v49.5"/>
		<path id="Path_551_31_" class="st1" d="M686.7-249.2H585.2v-30.3"/>
		<path id="Path_552_31_" class="st1" d="M613.6-281.2v32"/>
	</g>
	<g id="Group_409_30_" transform="translate(225.365) rotate(90)">
		<path id="Path_544_30_" class="st1" d="M1203.5,476V345.6h-194.4V67.2"/>
		<path id="Path_545_30_" class="st1" d="M1009.1,193H852.3V65.6"/>
		<path id="Path_546_30_" class="st1" d="M1009.1,253.5h128.5V120.1h-128.5"/>
		<path id="Path_547_30_" class="st1" d="M1380.1,176.9H1136"/>
		<path id="Path_548_30_" class="st1" d="M1380.1,306.7h-96V176.4"/>
		<path id="Path_549_30_" class="st1" d="M1216.1,176.4V68.7"/>
		<path id="Path_550_30_" class="st1" d="M1216.1,118.2h92.3V68.7"/>
		<path id="Path_551_30_" class="st1" d="M1203.5,444.1h101.4v30.3"/>
		<path id="Path_552_30_" class="st1" d="M1276.6,476v-32"/>
	</g>
	<g id="Group_409_29_" transform="translate(225.365) rotate(90)">
		<path id="Path_544_29_" class="st1" d="M1341.2-174.8h-130.4V19.6H932.4"/>
		<path id="Path_545_29_" class="st1" d="M1058.1,19.6v156.8H930.7"/>
		<path id="Path_546_29_" class="st1" d="M1118.7,19.6v-128.5H985.3V19.6"/>
		<path id="Path_547_29_" class="st1" d="M1042.1-351.4v244.1"/>
		<path id="Path_548_29_" class="st1" d="M1171.9-351.4v96h-130.3"/>
		<path id="Path_549_29_" class="st1" d="M1041.6-187.4H933.9"/>
		<path id="Path_550_29_" class="st1" d="M983.4-187.4v-92.3h-49.5"/>
		<path id="Path_551_29_" class="st1" d="M1309.2-174.8v-101.4h30.3"/>
		<path id="Path_552_29_" class="st1" d="M1341.2-247.9h-32"/>
	</g>
</g>
</svg>
