<?xml version="1.0" encoding="utf-8"?>
<!-- Generator: Adobe Illustrator 22.1.0, SVG Export Plug-In . SVG Version: 6.00 Build 0)  -->
<svg version="1.1" xmlns="http://www.w3.org/2000/svg" xmlns:xlink="http://www.w3.org/1999/xlink" x="0px" y="0px"
	 viewBox="0 0 1330 562" style="enable-background:new 0 0 1330 562;" xml:space="preserve">
<style type="text/css">
	.st0{fill:#F15C5E;}
	.st1{fill:none;stroke:#E65A5C;stroke-width:6;}
</style>
<g id="Layer_2">
	<g>
		<rect x="-95" y="-178.7" class="st0" width="1558.7" height="876.8"/>
	</g>
</g>
<g id="Layer_1">
	<g id="Group_409" transform="translate(225.365) rotate(90)">
		<path id="Path_544" class="st1" d="M96.9,0v71.6h106.8v152.9"/>
		<path id="Path_545" class="st1" d="M203.7,155.4h86.1v69.9"/>
		<path id="Path_546" class="st1" d="M203.7,122.2h-70.5v73.2h70.5"/>
		<path id="Path_547" class="st1" d="M0,164.2h134"/>
		<path id="Path_548" class="st1" d="M0,93h52.7v71.6"/>
		<path id="Path_549" class="st1" d="M90,164.5v59.1"/>
		<path id="Path_550" class="st1" d="M90,196.5H39.3v27.2"/>
		<path id="Path_551" class="st1" d="M96.9,17.6H41.3V0.9"/>
		<path id="Path_552" class="st1" d="M56.8,0v17.6"/>
	</g>
	<g id="Group_409_1_" transform="translate(225.365) rotate(90)">
		<path id="Path_544_1_" class="st1" d="M465.1-879.3v-71.6H358.3v-152.9"/>
		<path id="Path_545_1_" class="st1" d="M358.3-1034.7h-86.1v-69.9"/>
		<path id="Path_546_1_" class="st1" d="M358.3-1001.4h70.5v-73.2h-70.5"/>
		<path id="Path_547_1_" class="st1" d="M562-1043.5H428"/>
		<path id="Path_548_1_" class="st1" d="M562-972.2h-52.7v-71.6"/>
		<path id="Path_549_1_" class="st1" d="M472-1043.8v-59.1"/>
		<path id="Path_550_1_" class="st1" d="M472-1075.7h50.7v-27.2"/>
		<path id="Path_551_1_" class="st1" d="M465.1-896.8h55.7v16.7"/>
		<path id="Path_552_1_" class="st1" d="M505.2-879.3v-17.6"/>
	</g>
	<g id="Group_409_2_" transform="translate(225.365) rotate(90)">
		<path id="Path_544_2_" class="st1" d="M468.9-692.5v-71.6H362.1v-152.9"/>
		<path id="Path_545_2_" class="st1" d="M362.1-847.9H276v-69.9"/>
		<path id="Path_546_2_" class="st1" d="M362.1-814.6h70.5v-73.2h-70.5"/>
		<path id="Path_547_2_" class="st1" d="M565.8-856.7h-134"/>
		<path id="Path_548_2_" class="st1" d="M565.8-785.4h-52.7V-857"/>
		<path id="Path_549_2_" class="st1" d="M475.8-857v-59.1"/>
		<path id="Path_550_2_" class="st1" d="M475.8-888.9h50.7v-27.2"/>
		<path id="Path_551_2_" class="st1" d="M468.9-710h55.7v16.7"/>
		<path id="Path_552_2_" class="st1" d="M509-692.5v-17.6"/>
	</g>
	<g id="Group_409_3_" transform="translate(225.365) rotate(90)">
		<path id="Path_544_3_" class="st1" d="M185.1-1108.2v71.6h106.8v152.9"/>
		<path id="Path_545_3_" class="st1" d="M291.8-952.8h86.1v69.9"/>
		<path id="Path_546_3_" class="st1" d="M291.8-986.1h-70.5v73.2h70.5"/>
		<path id="Path_547_3_" class="st1" d="M88.2-944h134"/>
		<path id="Path_548_3_" class="st1" d="M88.2-1015.3h52.7v71.6"/>
		<path id="Path_549_3_" class="st1" d="M178.2-943.7v59.1"/>
		<path id="Path_550_3_" class="st1" d="M178.2-911.8h-50.7v27.2"/>
		<path id="Path_551_3_" class="st1" d="M185.1-1090.7h-55.7v-16.7"/>
		<path id="Path_552_3_" class="st1" d="M145-1108.2v17.6"/>
	</g>
	<g id="Group_409_4_" transform="translate(225.365) rotate(90)">
		<path id="Path_544_4_" class="st1" d="M109.5-750.9h71.6v-106.8h152.9"/>
		<path id="Path_545_4_" class="st1" d="M264.9-857.6v-86.1h69.9"/>
		<path id="Path_546_4_" class="st1" d="M231.7-857.6v70.5h73.2v-70.5"/>
		<path id="Path_547_4_" class="st1" d="M273.7-653.9v-134"/>
		<path id="Path_548_4_" class="st1" d="M202.4-653.9v-52.7H274"/>
		<path id="Path_549_4_" class="st1" d="M274-743.9h59.1"/>
		<path id="Path_550_4_" class="st1" d="M305.9-743.9v50.7h27.2"/>
		<path id="Path_551_4_" class="st1" d="M127-750.9v55.7h-16.7"/>
		<path id="Path_552_4_" class="st1" d="M109.5-710.7h17.6"/>
	</g>
	<g id="Group_409_8_" transform="translate(225.365) rotate(90)">
		<path id="Path_544_8_" class="st1" d="M482.1-520.9v-71.6H375.3v-152.9"/>
		<path id="Path_545_8_" class="st1" d="M375.3-676.3h-86.1v-69.9"/>
		<path id="Path_546_8_" class="st1" d="M375.3-643.1h70.5v-73.2h-70.5"/>
		<path id="Path_547_8_" class="st1" d="M579-685.2H445"/>
		<path id="Path_548_8_" class="st1" d="M579-613.9h-52.7v-71.6"/>
		<path id="Path_549_8_" class="st1" d="M489-685.4v-59.1"/>
		<path id="Path_550_8_" class="st1" d="M489-717.4h50.7v-27.2"/>
		<path id="Path_551_8_" class="st1" d="M482.1-538.5h55.7v16.7"/>
		<path id="Path_552_8_" class="st1" d="M522.2-520.9v-17.6"/>
	</g>
	<g id="Group_409_7_" transform="translate(225.365) rotate(90)">
		<path id="Path_544_7_" class="st1" d="M485.9-334.1v-71.6H379.1v-152.9"/>
		<path id="Path_545_7_" class="st1" d="M379.1-489.5H293v-69.9"/>
		<path id="Path_546_7_" class="st1" d="M379.1-456.3h70.5v-73.2h-70.5"/>
		<path id="Path_547_7_" class="st1" d="M582.8-498.4h-134"/>
		<path id="Path_548_7_" class="st1" d="M582.8-427.1h-52.7v-71.6"/>
		<path id="Path_549_7_" class="st1" d="M492.8-498.6v-59.1"/>
		<path id="Path_550_7_" class="st1" d="M492.8-530.6h50.7v-27.2"/>
		<path id="Path_551_7_" class="st1" d="M485.9-351.7h55.7v16.7"/>
		<path id="Path_552_7_" class="st1" d="M526-334.1v-17.6"/>
	</g>
	<g id="Group_409_6_" transform="translate(225.365) rotate(90)">
		<path id="Path_544_6_" class="st1" d="M202.1-749.9v71.6h106.8v152.9"/>
		<path id="Path_545_6_" class="st1" d="M308.8-594.5h86.1v69.9"/>
		<path id="Path_546_6_" class="st1" d="M308.8-627.7h-70.5v73.2h70.5"/>
		<path id="Path_547_6_" class="st1" d="M105.2-585.6h134"/>
		<path id="Path_548_6_" class="st1" d="M105.2-656.9h52.7v71.6"/>
		<path id="Path_549_6_" class="st1" d="M195.2-585.4v59.1"/>
		<path id="Path_550_6_" class="st1" d="M195.2-553.4h-50.7v27.2"/>
		<path id="Path_551_6_" class="st1" d="M202.1-732.3h-55.7V-749"/>
		<path id="Path_552_6_" class="st1" d="M162-749.9v17.6"/>
	</g>
	<g id="Group_409_5_" transform="translate(225.365) rotate(90)">
		<path id="Path_544_5_" class="st1" d="M126.5-392.5h71.6v-106.8h152.9"/>
		<path id="Path_545_5_" class="st1" d="M281.9-499.3v-86.1h69.9"/>
		<path id="Path_546_5_" class="st1" d="M248.7-499.3v70.5h73.2v-70.5"/>
		<path id="Path_547_5_" class="st1" d="M290.7-295.6v-134"/>
		<path id="Path_548_5_" class="st1" d="M219.4-295.6v-52.7H291"/>
		<path id="Path_549_5_" class="st1" d="M291-385.6h59.1"/>
		<path id="Path_550_5_" class="st1" d="M322.9-385.6v50.7h27.2"/>
		<path id="Path_551_5_" class="st1" d="M144-392.5v55.7h-16.7"/>
		<path id="Path_552_5_" class="st1" d="M126.5-352.4h17.6"/>
	</g>
	<g id="Group_409_12_" transform="translate(225.365) rotate(90)">
		<path id="Path_544_12_" class="st1" d="M473-113.1v-71.6H366.2v-152.9"/>
		<path id="Path_545_12_" class="st1" d="M366.2-268.5h-86.1v-69.9"/>
		<path id="Path_546_12_" class="st1" d="M366.2-235.3h70.5v-73.2h-70.5"/>
		<path id="Path_547_12_" class="st1" d="M569.9-277.4h-134"/>
		<path id="Path_548_12_" class="st1" d="M569.9-206.1h-52.7v-71.6"/>
		<path id="Path_549_12_" class="st1" d="M479.9-277.6v-59.1"/>
		<path id="Path_550_12_" class="st1" d="M479.9-309.6h50.7v-27.2"/>
		<path id="Path_551_12_" class="st1" d="M473-130.7h55.7v16.7"/>
		<path id="Path_552_12_" class="st1" d="M513.1-113.1v-17.6"/>
	</g>
	<g id="Group_409_11_" transform="translate(225.365) rotate(90)">
		<path id="Path_544_11_" class="st1" d="M476.8,73.7V2.1H370v-152.9"/>
		<path id="Path_545_11_" class="st1" d="M370-81.7h-86.1v-69.9"/>
		<path id="Path_546_11_" class="st1" d="M370-48.5h70.5v-73.2H370"/>
		<path id="Path_547_11_" class="st1" d="M573.7-90.6h-134"/>
		<path id="Path_548_11_" class="st1" d="M573.7-19.3H521v-71.6"/>
		<path id="Path_549_11_" class="st1" d="M483.7-90.8V-150"/>
		<path id="Path_550_11_" class="st1" d="M483.7-122.8h50.7V-150"/>
		<path id="Path_551_11_" class="st1" d="M476.8,56.1h55.7v16.7"/>
		<path id="Path_552_11_" class="st1" d="M516.9,73.7V56.1"/>
	</g>
	<g id="Group_409_10_" transform="translate(225.365) rotate(90)">
		<path id="Path_544_10_" class="st1" d="M193-342.1v71.6h106.8v152.9"/>
		<path id="Path_545_10_" class="st1" d="M299.8-186.7h86.1v69.9"/>
		<path id="Path_546_10_" class="st1" d="M299.8-219.9h-70.5v73.2h70.5"/>
		<path id="Path_547_10_" class="st1" d="M96.1-177.8h134"/>
		<path id="Path_548_10_" class="st1" d="M96.1-249.1h52.7v71.6"/>
		<path id="Path_549_10_" class="st1" d="M186.1-177.6v59.1"/>
		<path id="Path_550_10_" class="st1" d="M186.1-145.6h-50.7v27.2"/>
		<path id="Path_551_10_" class="st1" d="M193-324.5h-55.7v-16.7"/>
		<path id="Path_552_10_" class="st1" d="M152.9-342.1v17.6"/>
	</g>
	<g id="Group_409_9_" transform="translate(225.365) rotate(90)">
		<path id="Path_544_9_" class="st1" d="M117.4,15.3H189V-91.5h152.9"/>
		<path id="Path_545_9_" class="st1" d="M272.8-91.5v-86.1h69.9"/>
		<path id="Path_546_9_" class="st1" d="M239.6-91.5v70.5h73.2v-70.5"/>
		<path id="Path_547_9_" class="st1" d="M281.6,112.2v-134"/>
		<path id="Path_548_9_" class="st1" d="M210.4,112.2V59.5h71.6"/>
		<path id="Path_549_9_" class="st1" d="M281.9,22.2H341"/>
		<path id="Path_550_9_" class="st1" d="M313.9,22.2v50.7H341"/>
		<path id="Path_551_9_" class="st1" d="M135,15.3V71h-16.7"/>
		<path id="Path_552_9_" class="st1" d="M117.4,55.4H135"/>
	</g>
	<g id="Group_409_16_" transform="translate(225.365) rotate(90)">
		<path id="Path_544_16_" class="st1" d="M94.4-149.9v-71.6H-12.3v-152.9"/>
		<path id="Path_545_16_" class="st1" d="M-12.3-305.3h-86.1v-69.9"/>
		<path id="Path_546_16_" class="st1" d="M-12.3-272h70.5v-73.2h-70.5"/>
		<path id="Path_547_16_" class="st1" d="M191.4-314.1h-134"/>
		<path id="Path_548_16_" class="st1" d="M191.4-242.8h-52.7v-71.6"/>
		<path id="Path_549_16_" class="st1" d="M101.4-314.4v-59.1"/>
		<path id="Path_550_16_" class="st1" d="M101.4-346.3H152v-27.2"/>
		<path id="Path_551_16_" class="st1" d="M94.4-167.4h55.7v16.7"/>
		<path id="Path_552_16_" class="st1" d="M134.6-149.9v-17.6"/>
	</g>
	<g id="Group_409_15_" transform="translate(225.365) rotate(90)">
		<path id="Path_544_15_" class="st1" d="M98.2,36.9v-71.6H-8.5v-152.9"/>
		<path id="Path_545_15_" class="st1" d="M-8.5-118.5h-86.1v-69.9"/>
		<path id="Path_546_15_" class="st1" d="M-8.5-85.2H62v-73.2H-8.5"/>
		<path id="Path_547_15_" class="st1" d="M195.2-127.3h-134"/>
		<path id="Path_548_15_" class="st1" d="M195.2-56h-52.7v-71.6"/>
		<path id="Path_549_15_" class="st1" d="M105.2-127.6v-59.1"/>
		<path id="Path_550_15_" class="st1" d="M105.1-159.5h50.7v-27.2"/>
		<path id="Path_551_15_" class="st1" d="M98.2,19.4h55.7V36"/>
		<path id="Path_552_15_" class="st1" d="M138.4,36.9V19.3"/>
	</g>
	<g id="Group_409_14_" transform="translate(225.365) rotate(90)">
		<path id="Path_544_14_" class="st1" d="M-185.5-378.8v71.6h106.8v152.9"/>
		<path id="Path_545_14_" class="st1" d="M-78.8-223.4H7.3v69.9"/>
		<path id="Path_546_14_" class="st1" d="M-78.8-256.7h-70.5v73.2h70.5"/>
		<path id="Path_547_14_" class="st1" d="M-282.5-214.6h134"/>
		<path id="Path_548_14_" class="st1" d="M-282.5-285.9h52.7v71.6"/>
		<path id="Path_549_14_" class="st1" d="M-192.5-214.3v59.1"/>
		<path id="Path_550_14_" class="st1" d="M-192.5-182.4h-50.7v27.2"/>
		<path id="Path_551_14_" class="st1" d="M-185.5-361.3h-55.7v-16.7"/>
		<path id="Path_552_14_" class="st1" d="M-225.7-378.8v17.6"/>
	</g>
	<g id="Group_409_13_" transform="translate(225.365) rotate(90)">
		<path id="Path_544_13_" class="st1" d="M-261.1-21.5h71.6v-106.8h152.9"/>
		<path id="Path_545_13_" class="st1" d="M-105.7-128.2v-86.1h69.9"/>
		<path id="Path_546_13_" class="st1" d="M-139-128.2v70.5h73.2v-70.5"/>
		<path id="Path_547_13_" class="st1" d="M-96.9,75.5v-134"/>
		<path id="Path_548_13_" class="st1" d="M-168.2,75.5V22.8h71.6"/>
		<path id="Path_549_13_" class="st1" d="M-96.6-14.5h59.1"/>
		<path id="Path_550_13_" class="st1" d="M-64.7-14.6v50.7h27.2"/>
		<path id="Path_551_13_" class="st1" d="M-243.6-21.5v55.7h-16.7"/>
		<path id="Path_552_13_" class="st1" d="M-261.1,18.7h17.6"/>
	</g>
	<g id="Group_409_20_" transform="translate(225.365) rotate(90)">
		<path id="Path_544_20_" class="st1" d="M43.5-570.6v-71.6H-63.3v-152.9"/>
		<path id="Path_545_20_" class="st1" d="M-63.3-726h-86.1V-796"/>
		<path id="Path_546_20_" class="st1" d="M-63.3-692.8H7.3V-766h-70.5"/>
		<path id="Path_547_20_" class="st1" d="M140.4-734.9H6.4"/>
		<path id="Path_548_20_" class="st1" d="M140.4-663.6H87.7v-71.6"/>
		<path id="Path_549_20_" class="st1" d="M50.4-735.1v-59.1"/>
		<path id="Path_550_20_" class="st1" d="M50.4-767.1h50.7v-27.2"/>
		<path id="Path_551_20_" class="st1" d="M43.5-588.2h55.7v16.7"/>
		<path id="Path_552_20_" class="st1" d="M83.6-570.6v-17.6"/>
	</g>
	<g id="Group_409_19_" transform="translate(225.365) rotate(90)">
		<path id="Path_544_19_" class="st1" d="M47.3-383.8v-71.6H-59.5v-152.9"/>
		<path id="Path_545_19_" class="st1" d="M-59.5-539.2h-86.1v-69.9"/>
		<path id="Path_546_19_" class="st1" d="M-59.5-506h70.5v-73.2h-70.5"/>
		<path id="Path_547_19_" class="st1" d="M144.2-548.1h-134"/>
		<path id="Path_548_19_" class="st1" d="M144.2-476.8H91.5v-71.6"/>
		<path id="Path_549_19_" class="st1" d="M54.2-548.3v-59.1"/>
		<path id="Path_550_19_" class="st1" d="M54.2-580.3h50.7v-27.2"/>
		<path id="Path_551_19_" class="st1" d="M47.3-401.4H103v16.7"/>
		<path id="Path_552_19_" class="st1" d="M87.4-383.8v-17.6"/>
	</g>
	<g id="Group_409_18_" transform="translate(225.365) rotate(90)">
		<path id="Path_544_18_" class="st1" d="M-236.5-799.6v71.6h106.8v152.9"/>
		<path id="Path_545_18_" class="st1" d="M-129.7-644.2h86.1v69.9"/>
		<path id="Path_546_18_" class="st1" d="M-129.7-677.4h-70.5v73.2h70.5"/>
		<path id="Path_547_18_" class="st1" d="M-333.4-635.3h134"/>
		<path id="Path_548_18_" class="st1" d="M-333.4-706.6h52.7v71.6"/>
		<path id="Path_549_18_" class="st1" d="M-243.4-635.1v59.1"/>
		<path id="Path_550_18_" class="st1" d="M-243.4-603.1h-50.7v27.2"/>
		<path id="Path_551_18_" class="st1" d="M-236.5-782h-55.7v-16.7"/>
		<path id="Path_552_18_" class="st1" d="M-276.6-799.6v17.6"/>
	</g>
	<g id="Group_409_17_" transform="translate(225.365) rotate(90)">
		<path id="Path_544_17_" class="st1" d="M-312.1-442.2h71.6V-549h152.9"/>
		<path id="Path_545_17_" class="st1" d="M-156.7-549v-86.1h69.9"/>
		<path id="Path_546_17_" class="st1" d="M-189.9-549v70.5h73.2V-549"/>
		<path id="Path_547_17_" class="st1" d="M-147.9-345.3v-134"/>
		<path id="Path_548_17_" class="st1" d="M-219.1-345.3V-398h71.6"/>
		<path id="Path_549_17_" class="st1" d="M-147.6-435.3h59.1"/>
		<path id="Path_550_17_" class="st1" d="M-115.6-435.3v50.7h27.2"/>
		<path id="Path_551_17_" class="st1" d="M-294.5-442.2v55.7h-16.7"/>
		<path id="Path_552_17_" class="st1" d="M-312.1-402.1h17.6"/>
	</g>
	<g id="Group_409_24_" transform="translate(225.365) rotate(90)">
		<path id="Path_544_24_" class="st1" d="M664.1,257.1v-71.6H557.3V32.6"/>
		<path id="Path_545_24_" class="st1" d="M557.3,101.7h-86.1V31.7"/>
		<path id="Path_546_24_" class="st1" d="M557.3,134.9h70.5V61.7h-70.5"/>
		<path id="Path_547_24_" class="st1" d="M761,92.9H627"/>
		<path id="Path_548_24_" class="st1" d="M761,164.1h-52.7V92.6"/>
		<path id="Path_549_24_" class="st1" d="M671,92.6V33.5"/>
		<path id="Path_550_24_" class="st1" d="M671,60.6h50.7V33.5"/>
		<path id="Path_551_24_" class="st1" d="M664.1,239.5h55.7v16.7"/>
		<path id="Path_552_24_" class="st1" d="M704.2,257.1v-17.6"/>
	</g>
	<g id="Group_409_23_" transform="translate(225.365) rotate(90)">
		<path id="Path_544_23_" class="st1" d="M667.9,443.9v-71.6H561.1V219.4"/>
		<path id="Path_545_23_" class="st1" d="M561.1,288.5H475v-69.9"/>
		<path id="Path_546_23_" class="st1" d="M561.1,321.7h70.5v-73.2h-70.5"/>
		<path id="Path_547_23_" class="st1" d="M764.8,279.7h-134"/>
		<path id="Path_548_23_" class="st1" d="M764.8,350.9h-52.7v-71.6"/>
		<path id="Path_549_23_" class="st1" d="M674.8,279.4v-59.1"/>
		<path id="Path_550_23_" class="st1" d="M674.8,247.4h50.7v-27.2"/>
		<path id="Path_551_23_" class="st1" d="M667.9,426.3h55.7V443"/>
		<path id="Path_552_23_" class="st1" d="M708,443.9v-17.6"/>
	</g>
	<g id="Group_409_22_" transform="translate(225.365) rotate(90)">
		<path id="Path_544_22_" class="st1" d="M384.1,28.1v71.6h106.8v152.9"/>
		<path id="Path_545_22_" class="st1" d="M490.9,183.6h86.1v69.9"/>
		<path id="Path_546_22_" class="st1" d="M490.9,150.3h-70.5v73.2h70.5"/>
		<path id="Path_547_22_" class="st1" d="M287.2,192.4h134"/>
		<path id="Path_548_22_" class="st1" d="M287.2,121.1h52.7v71.6"/>
		<path id="Path_549_22_" class="st1" d="M377.2,192.7v59.1"/>
		<path id="Path_550_22_" class="st1" d="M377.2,224.6h-50.7v27.2"/>
		<path id="Path_551_22_" class="st1" d="M384.1,45.7h-55.7V29"/>
		<path id="Path_552_22_" class="st1" d="M344,28.1v17.6"/>
	</g>
	<g id="Group_409_21_" transform="translate(225.365) rotate(90)">
		<path id="Path_544_21_" class="st1" d="M308.5,385.5h71.6V278.7h152.9"/>
		<path id="Path_545_21_" class="st1" d="M463.9,278.7v-86.1h69.9"/>
		<path id="Path_546_21_" class="st1" d="M430.7,278.7v70.5h73.2v-70.5"/>
		<path id="Path_547_21_" class="st1" d="M472.7,482.4v-134"/>
		<path id="Path_548_21_" class="st1" d="M401.4,482.4v-52.7H473"/>
		<path id="Path_549_21_" class="st1" d="M473,392.4h59.1"/>
		<path id="Path_550_21_" class="st1" d="M505,392.4v50.7h27.2"/>
		<path id="Path_551_21_" class="st1" d="M326.1,385.5v55.7h-16.7"/>
		<path id="Path_552_21_" class="st1" d="M308.5,425.6h17.6"/>
	</g>
	<g id="Group_409_28_" transform="translate(225.365) rotate(90)">
		<path id="Path_544_28_" class="st1" d="M94.4-916v-71.6H-12.3v-152.9"/>
		<path id="Path_545_28_" class="st1" d="M-12.3-1071.4h-86.1v-69.9"/>
		<path id="Path_546_28_" class="st1" d="M-12.3-1038.2h70.5v-73.2h-70.5"/>
		<path id="Path_547_28_" class="st1" d="M191.4-1080.3h-134"/>
		<path id="Path_548_28_" class="st1" d="M191.4-1009h-52.7v-71.6"/>
		<path id="Path_549_28_" class="st1" d="M101.4-1080.5v-59.1"/>
		<path id="Path_550_28_" class="st1" d="M101.4-1112.5H152v-27.2"/>
		<path id="Path_551_28_" class="st1" d="M94.4-933.6h55.7v16.7"/>
		<path id="Path_552_28_" class="st1" d="M134.6-916v-17.6"/>
	</g>
	<g id="Group_409_27_" transform="translate(225.365) rotate(90)">
		<path id="Path_544_27_" class="st1" d="M98.2-729.2v-71.6H-8.5v-152.9"/>
		<path id="Path_545_27_" class="st1" d="M-8.5-884.6h-86.1v-69.9"/>
		<path id="Path_546_27_" class="st1" d="M-8.5-851.4H62v-73.2H-8.5"/>
		<path id="Path_547_27_" class="st1" d="M195.2-893.5h-134"/>
		<path id="Path_548_27_" class="st1" d="M195.2-822.2h-52.7v-71.6"/>
		<path id="Path_549_27_" class="st1" d="M105.2-893.7v-59.1"/>
		<path id="Path_550_27_" class="st1" d="M105.1-925.7h50.7v-27.2"/>
		<path id="Path_551_27_" class="st1" d="M98.2-746.8h55.7v16.7"/>
		<path id="Path_552_27_" class="st1" d="M138.4-729.2v-17.6"/>
	</g>
	<g id="Group_409_26_" transform="translate(225.365) rotate(90)">
		<path id="Path_544_26_" class="st1" d="M-185.5-1145v71.6h106.8v152.9"/>
		<path id="Path_545_26_" class="st1" d="M-78.8-989.6H7.3v69.9"/>
		<path id="Path_546_26_" class="st1" d="M-78.8-1022.8h-70.5v73.2h70.5"/>
		<path id="Path_547_26_" class="st1" d="M-282.5-980.7h134"/>
		<path id="Path_548_26_" class="st1" d="M-282.5-1052h52.7v71.6"/>
		<path id="Path_549_26_" class="st1" d="M-192.5-980.5v59.1"/>
		<path id="Path_550_26_" class="st1" d="M-192.5-948.5h-50.7v27.2"/>
		<path id="Path_551_26_" class="st1" d="M-185.5-1127.4h-55.7v-16.7"/>
		<path id="Path_552_26_" class="st1" d="M-225.7-1145v17.6"/>
	</g>
	<g id="Group_409_25_" transform="translate(225.365) rotate(90)">
		<path id="Path_544_25_" class="st1" d="M-261.1-787.6h71.6v-106.8h152.9"/>
		<path id="Path_545_25_" class="st1" d="M-105.7-894.4v-86.1h69.9"/>
		<path id="Path_546_25_" class="st1" d="M-139-894.4v70.5h73.2v-70.5"/>
		<path id="Path_547_25_" class="st1" d="M-96.9-690.7v-134"/>
		<path id="Path_548_25_" class="st1" d="M-168.2-690.7v-52.7h71.6"/>
		<path id="Path_549_25_" class="st1" d="M-96.6-780.7h59.1"/>
		<path id="Path_550_25_" class="st1" d="M-64.7-780.7v50.7h27.2"/>
		<path id="Path_551_25_" class="st1" d="M-243.6-787.6v55.7h-16.7"/>
		<path id="Path_552_25_" class="st1" d="M-261.1-747.5h17.6"/>
	</g>
</g>
</svg>
