<?xml version="1.0" encoding="utf-8"?>
<!-- Generator: Adobe Illustrator 22.0.1, SVG Export Plug-In . SVG Version: 6.00 Build 0)  -->
<svg version="1.1" id="Layer_1" xmlns="http://www.w3.org/2000/svg" xmlns:xlink="http://www.w3.org/1999/xlink" x="0px" y="0px"
	 viewBox="0 0 644.9 746.5" style="enable-background:new 0 0 644.9 746.5;" xml:space="preserve">
<style type="text/css">
	.st0{fill:#E5E5E5;}
	.st1{fill:#95989A;}
	.st2{fill:#F15C5E;}
	.st3{fill:#FFFFFF;}
</style>
<circle class="st0" cx="322.5" cy="501.2" r="183"/>
<circle class="st1" cx="367.5" cy="455.2" r="64"/>
<ellipse transform="matrix(0.9038 -0.4279 0.4279 0.9038 -216.8029 222.9242)" class="st1" cx="387.5" cy="593.7" rx="43" ry="32.5"/>
<ellipse transform="matrix(0.8315 -0.5555 0.5555 0.8315 -272.373 209.759)" class="st1" cx="209.6" cy="553.8" rx="38.8" ry="62.4"/>
<ellipse transform="matrix(0.7676 -0.641 0.641 0.7676 -207.9012 242.2401)" class="st1" cx="230.1" cy="407.8" rx="27.8" ry="17.3"/>
<g>
	
		<rect x="468" y="211.6" transform="matrix(0.8358 0.549 -0.549 0.8358 241.662 -210.7927)" class="st1" width="10.6" height="174.1"/>
	<polygon class="st2" points="590.5,322.8 551.5,377.8 483.8,292.3 520.6,236.2 	"/>
</g>
<g>
	<path class="st2" d="M326.8,77.3c-2.5-1.6-5.7-1.6-8.2,0c-13.1,8.5-21.5,16.9-29.9,25.3c-34.5,34.5-36.8,73.7-27.9,113.5
		l-39.5,39.5c-6.1,6.1-5.7,4.3-3,12.4l21.8,66.6c2.7,8,1.7,7.7,7.7,1.7l39.9-39.9c2.3,6.2,4.5,12.5,6.6,18.6c1,3.1,3.9,5.2,7.2,5.2
		H344c3.3,0,6.2-2.1,7.2-5.2c2-6.1,4.3-12.4,6.6-18.6l39.8,39.8c6,6,4.7,6,7.4-2l22.4-67.9c2.7-8.2,3-5-3-11l-39.9-39.2
		c8.8-39.8,6.6-79.1-27.8-113.5C348.4,94.2,339.9,85.8,326.8,77.3L326.8,77.3z"/>
	<circle class="st3" cx="322.8" cy="143.5" r="28.9"/>
</g>
</svg>
