<?xml version="1.0" encoding="utf-8"?>
<!-- Generator: Adobe Illustrator 22.0.1, SVG Export Plug-In . SVG Version: 6.00 Build 0)  -->
<svg version="1.1" id="Layer_1" xmlns="http://www.w3.org/2000/svg" xmlns:xlink="http://www.w3.org/1999/xlink" x="0px" y="0px"
	 viewBox="0 0 549.8 545.8" style="enable-background:new 0 0 549.8 545.8;" xml:space="preserve">
<style type="text/css">
	.st0{fill:#F15C5E;}
	.st1{fill:#FFFFFF;}
</style>
<path class="st0" d="M530.1,30c-1.3-6.1-6.1-10.9-12.2-12.2c-32.2-6.9-57.4-6.9-82.5-6.9c-103.2,0-165.1,55.2-211.3,128H106
	c-18.2,0-14.9-2.2-23.1,14l-67,132c-8,16.1-8.9,14,9.1,14l119.2,0c-5.9,12.8-11.9,25.5-18,37.7c-3.1,6.2-1.9,13.6,3,18.5l63.6,63.6
	c4.9,4.9,12.3,6.1,18.5,3c12.2-6.1,24.9-12,37.7-17.9l0,119.1c0,17.8-1.9,15.9,14,8.1l135-68c16.3-8.1,12-2.9,12-21l-1.1-118.2
	c72.6-46.3,128.1-108.4,128-211.1C537,87.4,537,62.2,530.1,30L530.1,30z"/>
<circle class="st1" cx="425" cy="122.9" r="61"/>
</svg>
